STARTFONT 2.1
COMMENT
COMMENT Converted from OpenType font "SourceSansPro-Black.otf" by "otf2bdf 3.0".
COMMENT
FONT -FreeType-Source Sans Pro Black-Medium-R-Normal--44-320-100-100-P-233-ISO10646-1
SIZE 32 100 100
FONTBOUNDINGBOX 116 59 -20 -13
STARTPROPERTIES 19
FOUNDRY "FreeType"
FAMILY_NAME "Source Sans Pro Black"
WEIGHT_NAME "Medium"
SLANT "R"
SETWIDTH_NAME "Normal"
ADD_STYLE_NAME ""
PIXEL_SIZE 44
POINT_SIZE 320
RESOLUTION_X 100
RESOLUTION_Y 100
SPACING "P"
AVERAGE_WIDTH 233
CHARSET_REGISTRY "ISO10646"
CHARSET_ENCODING "1"
FONT_ASCENT 43
FONT_DESCENT 12
COPYRIGHT "Copyright 2010, 2012, 2014 Adobe Systems Incorporated (http://www.adobe.com/), with Reserved Font Name Source."
_OTF_FONTFILE "SourceSansPro-Black.otf"
_OTF_PSNAME "SourceSansPro-Black"
ENDPROPERTIES
CHARS 1296
STARTCHAR 0020
ENCODING 32
SWIDTH 202 0
DWIDTH 9 0
BBX 0 0 0 0
BITMAP
ENDCHAR
STARTCHAR 0021
ENCODING 33
SWIDTH 360 0
DWIDTH 16 0
BBX 8 30 4 0
BITMAP
FF
FF
FF
FF
FF
FF
FF
7E
7E
7E
7E
7E
7E
7E
7E
7E
7E
7E
7E
00
00
3E
7F
FF
FF
FF
FF
FF
7E
3C
ENDCHAR
STARTCHAR 0022
ENCODING 34
SWIDTH 585 0
DWIDTH 26 0
BBX 19 16 3 14
BITMAP
FF0FE0
FF0FE0
FF0FE0
FF0FE0
FF0FE0
FF0FE0
7F0FE0
7F0FE0
7E0FE0
7E07E0
7E07E0
7E07C0
7E07C0
3E07C0
3C07C0
3C03C0
ENDCHAR
STARTCHAR 0023
ENCODING 35
SWIDTH 540 0
DWIDTH 24 0
BBX 21 29 2 0
BITMAP
07C3C0
0783C0
0787C0
0787C0
078780
078780
0F8780
FFFFF8
FFFFF8
FFFFF8
FFFFF8
FFFFF8
0F0F80
0F0F00
1F0F00
1F0F00
FFFFF0
FFFFF0
FFFFF0
FFFFF0
FFFFF0
1E1E00
1E1E00
3E1E00
3E1E00
3E1E00
3C3E00
3C3E00
3C3E00
ENDCHAR
STARTCHAR 0024
ENCODING 36
SWIDTH 540 0
DWIDTH 24 0
BBX 19 37 2 -4
BITMAP
01F000
01F000
01F000
01F000
03FC00
0FFF00
1FFFC0
3FFFE0
7FFFC0
7FFFC0
7F8780
7F0100
7F0000
7F0000
7FC000
7FF000
3FFC00
1FFE00
0FFF80
07FFC0
01FFC0
007FE0
001FE0
000FE0
000FE0
300FE0
3C1FE0
7FFFE0
FFFFC0
FFFFC0
7FFF80
3FFF00
07FC00
01F000
01F000
01F000
01F000
ENDCHAR
STARTCHAR 0025
ENCODING 37
SWIDTH 877 0
DWIDTH 39 0
BBX 37 29 1 0
BITMAP
07C000F000
1FF001E000
3FF801E000
7FFC03C000
7CFC03C000
FC7C078000
F87E078000
F83E0F0000
F83E1F0000
F83E1E0000
F83E3E0000
F87E3C1F00
FC7C7C7FC0
7EFC78FFE0
7FFCF1FFE0
3FF8F1F3F0
1FF1E3F1F0
07C1E3E1F0
0003C3E1F8
0003C3E1F8
000783E1F8
000783E1F8
000F03E1F0
001F03F1F0
001E01F3F0
003E01FFE0
003C00FFE0
007C007FC0
0078001F00
ENDCHAR
STARTCHAR 0026
ENCODING 38
SWIDTH 697 0
DWIDTH 31 0
BBX 29 29 1 0
BITMAP
007E0000
01FF8000
07FFC000
07FFE000
0FFFE000
0FC7E000
1FC3E000
1FC7E000
1FC7E000
0FCFE000
0FFFC000
0FFF8000
07FF03F8
07FE07F0
1FFC07F0
3FFE07F0
7FFF0FE0
7FFF9FE0
FF7FFFC0
FE3FFF80
FE1FFF80
FE0FFF00
FF03FFE0
FFFFFFF8
7FFFFFF0
3FFFFFF0
3FFFEFF0
0FFF83E0
03FC0060
ENDCHAR
STARTCHAR 0027
ENCODING 39
SWIDTH 315 0
DWIDTH 14 0
BBX 8 16 3 14
BITMAP
FF
FF
FF
FF
FF
FF
7F
7F
7E
7E
7E
7E
7E
3E
3C
3C
ENDCHAR
STARTCHAR 0028
ENCODING 40
SWIDTH 360 0
DWIDTH 16 0
BBX 11 40 3 -7
BITMAP
0780
07E0
0FC0
0FC0
1F80
1F80
3F00
3F00
3F00
7E00
7E00
7E00
7E00
7E00
FC00
FC00
FC00
FC00
FC00
FC00
FC00
FC00
FC00
FC00
FC00
FE00
7E00
7E00
7E00
7E00
3F00
3F00
3F00
1F80
1F80
1F80
0FC0
0FC0
07C0
0200
ENDCHAR
STARTCHAR 0029
ENCODING 41
SWIDTH 360 0
DWIDTH 16 0
BBX 11 40 2 -7
BITMAP
3C00
FC00
7E00
7E00
3F00
3F00
1F80
1F80
1F80
0FC0
0FC0
0FC0
0FC0
0FE0
07E0
07E0
07E0
07E0
07E0
07E0
07E0
07E0
07E0
07E0
07E0
0FE0
0FC0
0FC0
0FC0
0FC0
1F80
1F80
1F80
3F00
3F00
3F00
7E00
7E00
7C00
0800
ENDCHAR
STARTCHAR 002A
ENCODING 42
SWIDTH 472 0
DWIDTH 21 0
BBX 19 17 1 14
BITMAP
01F000
01F000
01F000
01F000
71F1C0
7FFFC0
7FFFC0
FFFFE0
3FFF80
0FFE00
07FC00
0FFC00
0FFE00
1FBF00
1F1F00
0E0E00
040400
ENDCHAR
STARTCHAR 002B
ENCODING 43
SWIDTH 540 0
DWIDTH 24 0
BBX 20 21 2 4
BITMAP
01F800
01F800
01F800
01F800
01F800
01F800
01F800
01F800
FFFFF0
FFFFF0
FFFFF0
FFFFF0
FFFFF0
01F800
01F800
01F800
01F800
01F800
01F800
01F800
01F800
ENDCHAR
STARTCHAR 002C
ENCODING 44
SWIDTH 315 0
DWIDTH 14 0
BBX 10 18 2 -9
BITMAP
1F00
3F80
7F80
7FC0
7FC0
7FC0
7FC0
3FC0
07C0
07C0
07C0
0FC0
1F80
7F00
FF00
7E00
7800
6000
ENDCHAR
STARTCHAR 002D
ENCODING 45
SWIDTH 337 0
DWIDTH 15 0
BBX 11 5 2 9
BITMAP
FFE0
FFE0
FFE0
FFE0
FFE0
ENDCHAR
STARTCHAR 002E
ENCODING 46
SWIDTH 315 0
DWIDTH 14 0
BBX 9 9 3 0
BITMAP
3E00
7F00
FF00
FF80
FF80
FF00
FF00
7E00
3C00
ENDCHAR
STARTCHAR 002F
ENCODING 47
SWIDTH 337 0
DWIDTH 15 0
BBX 12 39 1 -7
BITMAP
01F0
01F0
01F0
01F0
01E0
03E0
03E0
03E0
03E0
03C0
07C0
07C0
07C0
07C0
0780
0F80
0F80
0F80
0F80
0F00
1F00
1F00
1F00
1F00
1E00
3E00
3E00
3E00
3E00
3C00
7C00
7C00
7C00
7C00
7800
F800
F800
F800
F800
ENDCHAR
STARTCHAR 0030
ENCODING 48
SWIDTH 540 0
DWIDTH 24 0
BBX 20 29 2 0
BITMAP
01F800
07FE00
1FFF80
1FFF80
3FFFC0
7FFFE0
7F0FE0
FF0FF0
FE07F0
FE07F0
FE07F0
FE07F0
FE07F0
FE07F0
FE07F0
FE07F0
FE07F0
FE07F0
FE07F0
FE07F0
FE07F0
7F0FE0
7F0FE0
7FFFE0
3FFFC0
1FFF80
0FFF00
07FE00
01F800
ENDCHAR
STARTCHAR 0031
ENCODING 49
SWIDTH 540 0
DWIDTH 24 0
BBX 19 29 3 0
BITMAP
01FC00
07FC00
3FFC00
7FFC00
7FFC00
7FFC00
7FFC00
03FC00
03FC00
03FC00
03FC00
03FC00
03FC00
03FC00
03FC00
03FC00
03FC00
03FC00
03FC00
03FC00
03FC00
03FC00
03FC00
FFFFE0
FFFFE0
FFFFE0
FFFFE0
FFFFE0
FFFFE0
ENDCHAR
STARTCHAR 0032
ENCODING 50
SWIDTH 540 0
DWIDTH 24 0
BBX 21 29 1 0
BITMAP
03F800
0FFF00
3FFF80
7FFFC0
FFFFE0
7FFFE0
3E1FE0
1C0FF0
080FF0
000FF0
000FF0
000FE0
000FE0
001FE0
003FC0
003FC0
007F80
00FF00
01FF00
03FE00
07FC00
0FF800
1FF000
3FFFF8
7FFFF8
7FFFF8
7FFFF8
7FFFF8
7FFFF8
ENDCHAR
STARTCHAR 0033
ENCODING 51
SWIDTH 540 0
DWIDTH 24 0
BBX 21 29 1 0
BITMAP
03FC00
0FFF00
3FFFC0
7FFFE0
7FFFE0
3FFFF0
1E1FF0
080FF0
000FF0
000FF0
000FE0
007FE0
03FFC0
03FF00
03FF00
03FFC0
03FFE0
001FF0
0007F8
0007F8
1007F8
3807F8
3E1FF8
7FFFF0
FFFFF0
FFFFE0
7FFFC0
1FFF80
03FC00
ENDCHAR
STARTCHAR 0034
ENCODING 52
SWIDTH 540 0
DWIDTH 24 0
BBX 22 29 1 0
BITMAP
007FE0
007FE0
00FFE0
01FFE0
01FFE0
03FFE0
03FFE0
07EFE0
07EFE0
0FEFE0
1FCFE0
1FCFE0
3F8FE0
3F8FE0
7F0FE0
7E0FE0
FFFFFC
FFFFFC
FFFFFC
FFFFFC
FFFFFC
FFFFFC
000FE0
000FE0
000FE0
000FE0
000FE0
000FE0
000FE0
ENDCHAR
STARTCHAR 0035
ENCODING 53
SWIDTH 540 0
DWIDTH 24 0
BBX 21 29 1 0
BITMAP
1FFFF0
1FFFF0
1FFFF0
1FFFF0
1FFFF0
1FFFF0
1F8000
1F8000
3F8000
3F8000
3FFE00
3FFF80
3FFFE0
3FFFE0
3FFFF0
0F1FF0
040FF8
0007F8
0007F8
0007F8
1007F8
3807F8
3E1FF0
7FFFF0
FFFFE0
FFFFE0
3FFFC0
1FFF00
03FC00
ENDCHAR
STARTCHAR 0036
ENCODING 54
SWIDTH 540 0
DWIDTH 24 0
BBX 20 29 2 0
BITMAP
00FE00
03FF80
07FFE0
1FFFF0
1FFFE0
3FFFC0
7FC380
7F8080
7F0000
FE0000
FE0000
FE7F00
FEFFC0
FFFFE0
FFFFE0
FFFFF0
FF8FF0
FE07F0
FE07F0
FE03F0
FE07F0
7F07F0
7F87F0
3FFFF0
3FFFE0
1FFFC0
0FFFC0
07FF00
01FC00
ENDCHAR
STARTCHAR 0037
ENCODING 55
SWIDTH 540 0
DWIDTH 24 0
BBX 20 29 2 0
BITMAP
FFFFF0
FFFFF0
FFFFF0
FFFFF0
FFFFF0
FFFFE0
000FE0
001FC0
001F80
003F80
007F00
007F00
00FE00
00FE00
00FC00
01FC00
01FC00
01FC00
03F800
03F800
03F800
03F800
07F800
07F800
07F800
07F800
07F800
07F800
07F000
ENDCHAR
STARTCHAR 0038
ENCODING 56
SWIDTH 540 0
DWIDTH 24 0
BBX 20 29 2 0
BITMAP
01FC00
0FFF00
1FFF80
3FFFC0
3FFFC0
7F9FE0
7F0FE0
7E07E0
7E07E0
7F07E0
7F8FC0
3FEFC0
3FFF80
1FFF00
0FFF80
1FFFC0
3FFFE0
7E3FE0
7E0FF0
FC07F0
FC07F0
FE07F0
FE07F0
FF8FF0
7FFFE0
7FFFE0
3FFFC0
0FFF00
03FC00
ENDCHAR
STARTCHAR 0039
ENCODING 57
SWIDTH 540 0
DWIDTH 24 0
BBX 21 29 1 0
BITMAP
01FC00
07FF00
1FFF80
3FFFC0
3FFFE0
7FFFE0
7F0FF0
7F07F0
7E03F8
FE03F8
FE03F8
7F03F8
7F8FF8
7FFFF8
3FFFF8
3FFFF8
1FFBF8
07F3F8
0003F8
0003F8
0007F0
080FF0
1E1FF0
1FFFE0
3FFFC0
7FFF80
3FFF00
1FFE00
03F800
ENDCHAR
STARTCHAR 003A
ENCODING 58
SWIDTH 315 0
DWIDTH 14 0
BBX 9 22 3 0
BITMAP
3C00
7E00
FF00
FF00
FF80
FF00
FF00
7F00
3E00
0000
0000
0000
0000
3E00
7F00
FF00
FF80
FF80
FF00
FF00
7E00
3C00
ENDCHAR
STARTCHAR 003B
ENCODING 59
SWIDTH 315 0
DWIDTH 14 0
BBX 10 31 2 -10
BITMAP
1E00
3F00
7F80
7F80
7FC0
7F80
7F80
3F80
1F00
0000
0000
0000
0000
0000
3F00
7F80
7FC0
7FC0
7FC0
7FC0
3FC0
1FC0
07C0
07C0
07C0
0F80
3F80
FF00
FE00
7C00
7000
ENDCHAR
STARTCHAR 003C
ENCODING 60
SWIDTH 540 0
DWIDTH 24 0
BBX 20 21 2 4
BITMAP
000010
0000F0
0003F0
001FF0
00FFF0
03FFF0
1FFFE0
FFFF00
FFF800
FFC000
FE0000
FFC000
FFF800
7FFF00
1FFFF0
03FFF0
007FF0
001FF0
0003F0
000070
000010
ENDCHAR
STARTCHAR 003D
ENCODING 61
SWIDTH 540 0
DWIDTH 24 0
BBX 20 16 2 6
BITMAP
FFFFF0
FFFFF0
FFFFF0
FFFFF0
FFFFF0
000000
000000
000000
000000
000000
000000
FFFFF0
FFFFF0
FFFFF0
FFFFF0
FFFFF0
ENDCHAR
STARTCHAR 003E
ENCODING 62
SWIDTH 540 0
DWIDTH 24 0
BBX 20 21 2 4
BITMAP
800000
F00000
FC0000
FF8000
FFF000
FFFC00
7FFF80
0FFFF0
01FFF0
003FF0
0007F0
003FF0
01FFF0
0FFFE0
FFFF80
FFFC00
FFE000
FF8000
FC0000
E00000
800000
ENDCHAR
STARTCHAR 003F
ENCODING 63
SWIDTH 472 0
DWIDTH 21 0
BBX 17 31 2 0
BITMAP
03F000
1FFE00
3FFF00
7FFF00
FFFF80
7FFF80
3C7F80
183F80
003F80
003F80
007F80
00FF00
00FF00
01FE00
03FC00
07F800
07F000
07F000
07E000
07E000
000000
000000
03E000
07F000
0FF000
0FF000
0FF000
0FF000
0FF000
07E000
03C000
ENDCHAR
STARTCHAR 0040
ENCODING 64
SWIDTH 922 0
DWIDTH 41 0
BBX 37 38 2 -8
BITMAP
0000FF8000
0007FFF000
001FFFFC00
007FFFFF00
00FFFFFF80
03FE003F80
07F8000FC0
07E00007E0
0FC00003E0
1F800001F0
1F00F9E1F0
3F03FFE1F0
3E07FFE0F8
7E0FFFE0F8
7C0FFFE0F8
7C1F8FC0F8
7C1F07C0F8
F83F0FC0F8
F83F0FC0F8
F83E0FC0F8
F83E0F81F0
F83E0F81F0
F83F1F83F0
F83FFFC7E0
FC3FFFFFC0
7C1FFFFF80
7C0FF3FF00
7E07C1FE00
3E00006000
3F00000000
1F80000000
1FE0000000
0FF8018000
07FFFF8000
03FFFFC000
00FFFFC000
003FFF8000
0007FC0000
ENDCHAR
STARTCHAR 0041
ENCODING 65
SWIDTH 585 0
DWIDTH 26 0
BBX 26 29 0 0
BITMAP
00FFC000
00FFC000
00FFC000
01FFE000
01FFE000
01FFE000
03FFF000
03F7F000
03F3F000
07F3F000
07F3F800
07F3F800
07E3F800
0FE1FC00
0FE1FC00
0FE1FC00
1FC1FE00
1FFFFE00
1FFFFE00
3FFFFF00
3FFFFF00
3FFFFF00
3FFFFF00
7F807F80
7F007F80
7F007F80
FF003FC0
FF003FC0
FE003FC0
ENDCHAR
STARTCHAR 0042
ENCODING 66
SWIDTH 607 0
DWIDTH 27 0
BBX 23 29 3 0
BITMAP
FFFF00
FFFFC0
FFFFF0
FFFFF8
FFFFF8
FFFFF8
FF07FC
FF03FC
FF03F8
FF03F8
FF07F8
FFFFF0
FFFFE0
FFFFC0
FFFFF0
FFFFF8
FFFFFC
FF03FC
FF01FE
FF01FE
FF01FE
FF01FE
FF03FE
FFFFFC
FFFFFC
FFFFF8
FFFFF0
FFFFE0
FFFF00
ENDCHAR
STARTCHAR 0043
ENCODING 67
SWIDTH 585 0
DWIDTH 26 0
BBX 23 29 2 0
BITMAP
003F80
00FFF0
03FFF8
07FFFE
0FFFFC
1FFFF8
3FFFF8
3FE070
7FC000
7F8000
7F8000
FF0000
FF0000
FF0000
FF0000
FF0000
FF0000
FF0000
FF0000
7F8000
7FC010
7FE070
3FFFF8
3FFFFC
1FFFFE
0FFFFE
07FFF8
01FFF0
003F80
ENDCHAR
STARTCHAR 0044
ENCODING 68
SWIDTH 652 0
DWIDTH 29 0
BBX 24 29 3 0
BITMAP
FFFC00
FFFF80
FFFFC0
FFFFF0
FFFFF8
FFFFF8
FF1FFC
FF07FC
FF03FE
FF01FE
FF01FE
FF00FE
FF00FF
FF00FF
FF00FF
FF00FF
FF00FE
FF01FE
FF01FE
FF01FE
FF03FE
FF07FC
FF1FFC
FFFFF8
FFFFF0
FFFFF0
FFFFC0
FFFF80
FFFC00
ENDCHAR
STARTCHAR 0045
ENCODING 69
SWIDTH 562 0
DWIDTH 25 0
BBX 19 29 3 0
BITMAP
FFFFE0
FFFFE0
FFFFE0
FFFFE0
FFFFE0
FFFFE0
FF0000
FF0000
FF0000
FF0000
FF0000
FFFF80
FFFF80
FFFF80
FFFF80
FFFF80
FFFF80
FF0000
FF0000
FF0000
FF0000
FF0000
FF0000
FFFFE0
FFFFE0
FFFFE0
FFFFE0
FFFFE0
FFFFE0
ENDCHAR
STARTCHAR 0046
ENCODING 70
SWIDTH 540 0
DWIDTH 24 0
BBX 19 29 3 0
BITMAP
FFFFE0
FFFFE0
FFFFE0
FFFFE0
FFFFE0
FFFFE0
FF0000
FF0000
FF0000
FF0000
FF0000
FF0000
FFFF80
FFFF80
FFFF80
FFFF80
FFFF80
FFFF80
FF0000
FF0000
FF0000
FF0000
FF0000
FF0000
FF0000
FF0000
FF0000
FF0000
FF0000
ENDCHAR
STARTCHAR 0047
ENCODING 71
SWIDTH 652 0
DWIDTH 29 0
BBX 24 29 2 0
BITMAP
001FC0
00FFF8
03FFFC
07FFFE
0FFFFE
1FFFFC
3FFFF8
3FE038
7FC000
7F8000
FF8000
FF0000
FF07FF
FF07FF
FF07FF
FF07FF
FF07FF
FF07FF
FF803F
7F803F
7FC03F
7FE03F
3FFFFF
1FFFFF
1FFFFF
0FFFFF
03FFFE
01FFF8
003FC0
ENDCHAR
STARTCHAR 0048
ENCODING 72
SWIDTH 675 0
DWIDTH 30 0
BBX 24 29 3 0
BITMAP
FF00FF
FF00FF
FF00FF
FF00FF
FF00FF
FF00FF
FF00FF
FF00FF
FF00FF
FF00FF
FF00FF
FFFFFF
FFFFFF
FFFFFF
FFFFFF
FFFFFF
FFFFFF
FFFFFF
FF00FF
FF00FF
FF00FF
FF00FF
FF00FF
FF00FF
FF00FF
FF00FF
FF00FF
FF00FF
FF00FF
ENDCHAR
STARTCHAR 0049
ENCODING 73
SWIDTH 315 0
DWIDTH 14 0
BBX 8 29 3 0
BITMAP
FF
FF
FF
FF
FF
FF
FF
FF
FF
FF
FF
FF
FF
FF
FF
FF
FF
FF
FF
FF
FF
FF
FF
FF
FF
FF
FF
FF
FF
ENDCHAR
STARTCHAR 004A
ENCODING 74
SWIDTH 517 0
DWIDTH 23 0
BBX 20 29 0 0
BITMAP
000FF0
000FF0
000FF0
000FF0
000FF0
000FF0
000FF0
000FF0
000FF0
000FF0
000FF0
000FF0
000FF0
000FF0
000FF0
000FF0
000FF0
000FF0
000FF0
000FF0
040FF0
1E0FF0
3FFFF0
FFFFE0
7FFFE0
3FFFC0
1FFF80
0FFF00
03FC00
ENDCHAR
STARTCHAR 004B
ENCODING 75
SWIDTH 630 0
DWIDTH 28 0
BBX 25 29 3 0
BITMAP
FF01FE00
FF03FE00
FF03FC00
FF07F800
FF0FF000
FF0FF000
FF1FE000
FF3FC000
FF3F8000
FF7F8000
FFFF0000
FFFE0000
FFFE0000
FFFF0000
FFFF8000
FFFF8000
FFFFC000
FFFFC000
FFDFE000
FF8FF000
FF8FF000
FF07F800
FF07F800
FF03FC00
FF03FE00
FF01FE00
FF00FF00
FF00FF00
FF007F80
ENDCHAR
STARTCHAR 004C
ENCODING 76
SWIDTH 540 0
DWIDTH 24 0
BBX 19 29 3 0
BITMAP
FF0000
FF0000
FF0000
FF0000
FF0000
FF0000
FF0000
FF0000
FF0000
FF0000
FF0000
FF0000
FF0000
FF0000
FF0000
FF0000
FF0000
FF0000
FF0000
FF0000
FF0000
FF0000
FF0000
FFFFE0
FFFFE0
FFFFE0
FFFFE0
FFFFE0
FFFFE0
ENDCHAR
STARTCHAR 004D
ENCODING 77
SWIDTH 765 0
DWIDTH 34 0
BBX 28 29 3 0
BITMAP
FF800FF0
FF800FF0
FF801FF0
FFC01FF0
FFC01FF0
FFC03FF0
FFE03FF0
FFE07FF0
FFF07FF0
FFF07FF0
FFF0FFF0
FDF8FFF0
FDF8FBF0
FFF9FBF0
FEFDFBF0
FEFDF3F0
FEFDF3F0
FE7FF3F0
FE7FE7F0
FE7FE7F0
FE3FC7F0
FE3FC7F0
FE1FC7F0
FE1F87F0
FE1F87F0
FE0F87F0
FE0F07F0
FE0007F0
FE0007F0
ENDCHAR
STARTCHAR 004E
ENCODING 78
SWIDTH 675 0
DWIDTH 30 0
BBX 24 29 3 0
BITMAP
FF00FF
FF80FF
FF80FF
FFC0FF
FFC0FF
FFE0FF
FFE0FF
FFF0FF
FFF0FF
FFF8FF
FFF8FF
FFFCFF
FEFC7F
FEFE7F
FE7E7F
FE7F7F
FE3F7F
FE3F7F
FE1FFF
FE1FFF
FE0FFF
FE0FFF
FE07FF
FE07FF
FE03FF
FE03FF
FE01FF
FE01FF
FE00FF
ENDCHAR
STARTCHAR 004F
ENCODING 79
SWIDTH 697 0
DWIDTH 31 0
BBX 27 29 2 0
BITMAP
003F8000
01FFF000
07FFFC00
0FFFFE00
1FFFFF00
3FFFFF00
3FFFFF80
7FC0FFC0
7F807FC0
7F803FC0
FF003FC0
FF001FE0
FF001FE0
FF001FE0
FF001FE0
FF001FE0
FF001FE0
FF001FE0
FF003FC0
7F803FC0
7FC07FC0
7FE0FF80
3FFFFF80
3FFFFF00
1FFFFF00
0FFFFE00
07FFF800
01FFF000
007F8000
ENDCHAR
STARTCHAR 0050
ENCODING 80
SWIDTH 607 0
DWIDTH 27 0
BBX 23 29 3 0
BITMAP
FFFE00
FFFFC0
FFFFF0
FFFFF8
FFFFF8
FFFFFC
FF07FC
FF03FC
FF01FC
FF01FE
FF01FE
FF01FC
FF03FC
FF07FC
FFFFF8
FFFFF8
FFFFF0
FFFFE0
FFFFC0
FFFE00
FF0000
FF0000
FF0000
FF0000
FF0000
FF0000
FF0000
FF0000
FF0000
ENDCHAR
STARTCHAR 0051
ENCODING 81
SWIDTH 697 0
DWIDTH 31 0
BBX 29 37 2 -8
BITMAP
003F8000
01FFF000
07FFFC00
0FFFFE00
1FFFFF00
3FFFFF00
3FFFFF80
7FC0FFC0
7F807FC0
7F803FC0
FF003FC0
FF001FE0
FF001FE0
FF001FE0
FF001FE0
FF001FE0
FF001FE0
FF001FE0
FF001FC0
7F803FC0
7F803FC0
7FC07FC0
3FE0FF80
3FFFFF80
1FFFFF00
0FFFFE00
07FFFC00
03FFF000
007FC000
003FE000
001FF800
001FFFF0
000FFFF0
0007FFF0
0001FFF0
0000FFF8
00001FE0
ENDCHAR
STARTCHAR 0052
ENCODING 82
SWIDTH 630 0
DWIDTH 28 0
BBX 24 29 3 0
BITMAP
FFFF00
FFFFE0
FFFFF0
FFFFF8
FFFFFC
FFFFFC
FF07FC
FF01FE
FF01FE
FF01FE
FF01FE
FF01FC
FF07FC
FFFFFC
FFFFF8
FFFFF8
FFFFF0
FFFFC0
FFFFE0
FF1FE0
FF1FF0
FF0FF0
FF0FF8
FF07F8
FF07FC
FF03FC
FF03FE
FF01FE
FF01FF
ENDCHAR
STARTCHAR 0053
ENCODING 83
SWIDTH 562 0
DWIDTH 25 0
BBX 22 29 2 0
BITMAP
00FE00
07FFC0
0FFFE0
1FFFF0
3FFFF0
7FFFE0
7FFFE0
7F81C0
7F0000
7F8000
7FE000
7FF800
7FFF00
3FFFC0
1FFFF0
0FFFF0
03FFF8
007FF8
000FFC
0007FC
1803FC
3E03F8
7FFFF8
7FFFF8
FFFFF0
FFFFE0
3FFFC0
1FFF80
03FC00
ENDCHAR
STARTCHAR 0054
ENCODING 84
SWIDTH 562 0
DWIDTH 25 0
BBX 23 29 1 0
BITMAP
FFFFFE
FFFFFE
FFFFFE
FFFFFE
FFFFFE
FFFFFE
00FE00
00FE00
00FE00
00FE00
00FE00
00FE00
00FE00
00FE00
00FE00
00FE00
00FE00
00FE00
00FE00
00FE00
00FE00
00FE00
00FE00
00FE00
00FE00
00FE00
00FE00
00FE00
00FE00
ENDCHAR
STARTCHAR 0055
ENCODING 85
SWIDTH 675 0
DWIDTH 30 0
BBX 24 29 3 0
BITMAP
FF00FF
FF00FF
FF00FF
FF00FF
FF00FF
FF00FF
FF00FF
FF00FF
FF00FF
FF00FF
FF00FF
FF00FF
FF00FF
FF00FF
FF00FF
FF00FF
FF00FF
FF00FF
FF00FF
FF00FE
7F80FE
7F81FE
7FFFFE
3FFFFC
3FFFFC
1FFFF8
0FFFF0
07FFE0
00FF00
ENDCHAR
STARTCHAR 0056
ENCODING 86
SWIDTH 562 0
DWIDTH 25 0
BBX 26 29 0 0
BITMAP
FF003FC0
FF003F80
FF007F80
7F007F80
7F807F80
7F807F00
7F807F00
3F80FF00
3FC0FE00
3FC0FE00
1FC0FE00
1FC1FC00
1FE1FC00
1FE1FC00
0FE1FC00
0FE1F800
0FF3F800
07F3F800
07F3F000
07F3F000
03FFF000
03FFF000
03FFE000
03FFE000
01FFE000
01FFC000
01FFC000
00FFC000
00FF8000
ENDCHAR
STARTCHAR 0057
ENCODING 87
SWIDTH 832 0
DWIDTH 37 0
BBX 35 29 1 0
BITMAP
FE03F80FE0
FE03F80FE0
FF03F80FE0
FF03FC1FE0
FF07FC1FC0
FF07FC1FC0
7F07FC1FC0
7F07FC1FC0
7F07FE1FC0
7F0FFE1FC0
7F8FFE1F80
7F8FBE3F80
3F8FBE3F80
3F9FBF3F80
3F9FBF3F80
3F9FBF3F80
3F9F3F3F00
3F9F3F3F00
1FDF1FBF00
1FFF1FBF00
1FFF1FFF00
1FFE1FFF00
1FFE1FFE00
0FFE0FFE00
0FFE0FFE00
0FFE0FFE00
0FFC0FFE00
0FFC0FFE00
0FFC07FC00
ENDCHAR
STARTCHAR 0058
ENCODING 88
SWIDTH 585 0
DWIDTH 26 0
BBX 24 29 1 0
BITMAP
FF80FF
7F80FE
7F81FE
3FC1FC
3FC3FC
1FE3F8
1FE3F8
0FF7F0
0FF7F0
07F7E0
07FFE0
03FFC0
03FFC0
01FF80
01FF80
01FF80
03FFC0
07FFE0
07FFE0
0FEFF0
0FEFF0
1FE7F8
1FC7F8
3FC3FC
3F83FC
7F81FE
7F81FE
FF01FF
FF00FF
ENDCHAR
STARTCHAR 0059
ENCODING 89
SWIDTH 540 0
DWIDTH 24 0
BBX 24 29 0 0
BITMAP
FF00FF
FF00FF
7F80FE
7F81FE
3F81FE
3FC1FC
1FC3FC
1FC3F8
1FE3F8
0FE7F0
0FE7F0
07F7E0
07FFE0
03FFC0
03FFC0
01FFC0
01FF80
00FF80
00FF00
00FF00
00FF00
00FF00
00FF00
00FF00
00FF00
00FF00
00FF00
00FF00
00FF00
ENDCHAR
STARTCHAR 005A
ENCODING 90
SWIDTH 540 0
DWIDTH 24 0
BBX 22 29 1 0
BITMAP
3FFFFC
3FFFFC
3FFFFC
3FFFFC
3FFFFC
3FFFF8
000FF0
000FF0
001FE0
003FC0
003FC0
007F80
00FF00
00FF00
01FE00
03FE00
03FC00
07F800
0FF800
0FF000
1FE000
3FE000
3FC000
7FFFFC
FFFFFC
FFFFFC
FFFFFC
FFFFFC
FFFFFC
ENDCHAR
STARTCHAR 005B
ENCODING 91
SWIDTH 360 0
DWIDTH 16 0
BBX 10 39 4 -7
BITMAP
FFC0
FFC0
FFC0
FFC0
F800
F800
F800
F800
F800
F800
F800
F800
F800
F800
F800
F800
F800
F800
F800
F800
F800
F800
F800
F800
F800
F800
F800
F800
F800
F800
F800
F800
F800
F800
F800
FFC0
FFC0
FFC0
FFC0
ENDCHAR
STARTCHAR 005C
ENCODING 92
SWIDTH 337 0
DWIDTH 15 0
BBX 12 39 2 -7
BITMAP
F000
F800
F800
F800
F800
7800
7C00
7C00
7C00
7C00
3C00
3E00
3E00
3E00
3E00
1E00
1F00
1F00
1F00
1F00
0F00
0F80
0F80
0F80
0F80
07C0
07C0
07C0
07C0
07C0
03E0
03E0
03E0
03E0
03E0
01F0
01F0
01F0
01F0
ENDCHAR
STARTCHAR 005D
ENCODING 93
SWIDTH 360 0
DWIDTH 16 0
BBX 10 39 2 -7
BITMAP
FFC0
FFC0
FFC0
FFC0
07C0
07C0
07C0
07C0
07C0
07C0
07C0
07C0
07C0
07C0
07C0
07C0
07C0
07C0
07C0
07C0
07C0
07C0
07C0
07C0
07C0
07C0
07C0
07C0
07C0
07C0
07C0
07C0
07C0
07C0
07C0
FFC0
FFC0
FFC0
FFC0
ENDCHAR
STARTCHAR 005E
ENCODING 94
SWIDTH 540 0
DWIDTH 24 0
BBX 20 18 2 12
BITMAP
01F800
03FC00
03FC00
03FC00
07FE00
07FE00
07FE00
0FFF00
0F9F00
1F9F80
1F9F80
1F0F80
3F0FC0
3F0FC0
7E07E0
7E07E0
7E07E0
FC03F0
ENDCHAR
STARTCHAR 005F
ENCODING 95
SWIDTH 495 0
DWIDTH 22 0
BBX 21 4 1 -6
BITMAP
FFFFF8
FFFFF8
FFFFF8
FFFFF8
ENDCHAR
STARTCHAR 0060
ENCODING 96
SWIDTH 562 0
DWIDTH 25 0
BBX 11 12 4 25
BITMAP
0800
1C00
3C00
7E00
FF00
FF80
7FC0
3FE0
1FE0
07C0
0380
0100
ENDCHAR
STARTCHAR 0061
ENCODING 97
SWIDTH 540 0
DWIDTH 24 0
BBX 19 22 2 0
BITMAP
03FC00
1FFF00
7FFF80
7FFFC0
7FFFC0
3FFFE0
3C1FE0
100FE0
003FE0
07FFE0
1FFFE0
3FFFE0
7FCFE0
FF0FE0
FE0FE0
FE1FE0
FFFFE0
FFFFE0
FFFFE0
7FFFE0
3FE7E0
0F87E0
ENDCHAR
STARTCHAR 0062
ENCODING 98
SWIDTH 585 0
DWIDTH 26 0
BBX 21 32 3 0
BITMAP
FE0000
FE0000
FE0000
FE0000
FE0000
FE0000
FE0000
FE0000
FE0000
FE0000
FE3E00
FEFF80
FFFFC0
FFFFE0
FFFFF0
FFFFF0
FF8FF8
FE07F8
FE07F8
FE07F8
FE07F8
FE07F8
FE07F8
FE07F8
FE07F8
FF1FF0
FFFFF0
FFFFF0
FFFFE0
FDFFC0
FCFF80
FC7E00
ENDCHAR
STARTCHAR 0063
ENCODING 99
SWIDTH 472 0
DWIDTH 21 0
BBX 19 22 1 0
BITMAP
007F00
03FFC0
07FFE0
0FFFC0
1FFF80
3FFF00
7FE300
7F8000
7F8000
7F0000
FF0000
FF0000
7F0000
7F8000
7F8000
7FE380
3FFF80
3FFFC0
1FFFC0
0FFFE0
03FF80
00FE00
ENDCHAR
STARTCHAR 0064
ENCODING 100
SWIDTH 585 0
DWIDTH 26 0
BBX 21 32 2 0
BITMAP
0003F8
0003F8
0003F8
0003F8
0003F8
0003F8
0003F8
0003F8
0003F8
0003F8
03E3F8
0FFBF8
1FFFF8
3FFFF8
7FFFF8
7FFFF8
FF8FF8
FF03F8
FF03F8
FF03F8
FE03F8
FE03F8
FF03F8
FF03F8
FF07F8
FF8FF8
7FFFF8
7FFFF8
3FFFF8
3FFFF8
0FF9F8
03E1F8
ENDCHAR
STARTCHAR 0065
ENCODING 101
SWIDTH 517 0
DWIDTH 23 0
BBX 21 22 1 0
BITMAP
00FE00
03FF80
0FFFC0
1FFFE0
3FFFE0
3FFFF0
7F83F0
7F03F8
7FFFF8
7FFFF8
FFFFF8
FFFFF8
7FFFF8
7F0000
7F8000
7FC0C0
3FFFC0
3FFFE0
1FFFE0
0FFFF0
03FFC0
00FE00
ENDCHAR
STARTCHAR 0066
ENCODING 102
SWIDTH 360 0
DWIDTH 16 0
BBX 16 32 1 0
BITMAP
00FE
03FF
07FF
0FFF
0FFF
1FFE
1FE0
1FE0
1FE0
1FE0
FFFC
FFFC
FFFC
FFFC
FFFC
FFFC
1FE0
1FE0
1FE0
1FE0
1FE0
1FE0
1FE0
1FE0
1FE0
1FE0
1FE0
1FE0
1FE0
1FE0
1FE0
1FE0
ENDCHAR
STARTCHAR 0067
ENCODING 103
SWIDTH 540 0
DWIDTH 24 0
BBX 23 31 1 -9
BITMAP
01FFFC
07FFFC
1FFFFC
3FFFFC
3FFFFC
7F8FFC
7F07E0
7F07E0
7F07E0
7F0FE0
3FFFE0
3FFFC0
1FFFC0
0FFF00
1FFC00
3E0000
3F0000
7FFF80
3FFFF0
3FFFF8
1FFFFC
1FFFFC
3FFFFE
7E01FE
7E01FC
FE01FC
FFFFF8
7FFFF8
7FFFE0
1FFFC0
07FC00
ENDCHAR
STARTCHAR 0068
ENCODING 104
SWIDTH 585 0
DWIDTH 26 0
BBX 20 32 3 0
BITMAP
FE0000
FE0000
FE0000
FE0000
FE0000
FE0000
FE0000
FE0000
FE0000
FE0000
FE1F00
FE7FC0
FFFFE0
FFFFE0
FFFFF0
FFFFF0
FFFFF0
FF0FF0
FE07F0
FE07F0
FE07F0
FE07F0
FE07F0
FE07F0
FE07F0
FE07F0
FE07F0
FE07F0
FE07F0
FE07F0
FE07F0
FE07F0
ENDCHAR
STARTCHAR 0069
ENCODING 105
SWIDTH 292 0
DWIDTH 13 0
BBX 9 33 2 0
BITMAP
0800
7F00
7F00
FF80
FF80
FF00
7F00
3E00
0000
0000
0000
7F00
7F00
7F00
7F00
7F00
7F00
7F00
7F00
7F00
7F00
7F00
7F00
7F00
7F00
7F00
7F00
7F00
7F00
7F00
7F00
7F00
7F00
ENDCHAR
STARTCHAR 006A
ENCODING 106
SWIDTH 292 0
DWIDTH 13 0
BBX 13 41 -2 -8
BITMAP
0080
07F0
07F0
0FF8
0FF8
0FF8
07F0
03E0
0000
0000
0000
07F0
07F0
07F0
07F0
07F0
07F0
07F0
07F0
07F0
07F0
07F0
07F0
07F0
07F0
07F0
07F0
07F0
07F0
07F0
07F0
07F0
07F0
07F0
0FF0
7FF0
FFE0
FFE0
FFC0
FF80
FE00
ENDCHAR
STARTCHAR 006B
ENCODING 107
SWIDTH 562 0
DWIDTH 25 0
BBX 22 32 3 0
BITMAP
FE0000
FE0000
FE0000
FE0000
FE0000
FE0000
FE0000
FE0000
FE0000
FE0000
FE07F8
FE0FF0
FE1FE0
FE1FE0
FE3FC0
FE7F80
FEFF00
FFFE00
FFFC00
FFFC00
FFFE00
FFFE00
FFFF00
FFFF80
FFBF80
FF3FC0
FE1FC0
FE1FE0
FE0FF0
FE0FF0
FE07F8
FE07FC
ENDCHAR
STARTCHAR 006C
ENCODING 108
SWIDTH 292 0
DWIDTH 13 0
BBX 10 32 3 0
BITMAP
FE00
FE00
FE00
FE00
FE00
FE00
FE00
FE00
FE00
FE00
FE00
FE00
FE00
FE00
FE00
FE00
FE00
FE00
FE00
FE00
FE00
FE00
FE00
FE00
FE00
FF00
FF80
FFC0
FFC0
7FC0
3FC0
1FC0
ENDCHAR
STARTCHAR 006D
ENCODING 109
SWIDTH 877 0
DWIDTH 39 0
BBX 33 22 3 0
BITMAP
FC1F00F800
FC7FC3FE00
FDFFEFFF00
FFFFFFFF00
FFFFFFFF80
FFFFFFFF80
FFFFFFFF80
FF0FF87F80
FE0FF07F80
FE07F03F80
FE07F03F80
FE07F03F80
FE07F03F80
FE07F03F80
FE07F03F80
FE07F03F80
FE07F03F80
FE07F03F80
FE07F03F80
FE07F03F80
FE07F03F80
FE07F03F80
ENDCHAR
STARTCHAR 006E
ENCODING 110
SWIDTH 585 0
DWIDTH 26 0
BBX 20 22 3 0
BITMAP
FC1F00
FC7FC0
FDFFE0
FFFFE0
FFFFF0
FFFFF0
FFFFF0
FF0FF0
FE07F0
FE07F0
FE07F0
FE07F0
FE07F0
FE07F0
FE07F0
FE07F0
FE07F0
FE07F0
FE07F0
FE07F0
FE07F0
FE07F0
ENDCHAR
STARTCHAR 006F
ENCODING 111
SWIDTH 562 0
DWIDTH 25 0
BBX 22 22 1 0
BITMAP
00FE00
03FF80
0FFFE0
1FFFF0
1FFFF0
3FFFF8
7FC7FC
7F83FC
7F83FC
7F01FC
FF01FC
FF01FC
7F01FC
7F83FC
7F83FC
7FC7FC
3FFFF8
3FFFF0
1FFFF0
0FFFE0
03FF80
00FE00
ENDCHAR
STARTCHAR 0070
ENCODING 112
SWIDTH 585 0
DWIDTH 26 0
BBX 21 30 3 -8
BITMAP
FC3F00
FCFF80
FDFFC0
FFFFE0
FFFFF0
FFFFF0
FF8FF8
FE07F8
FE07F8
FE07F8
FE07F8
FE07F8
FE07F8
FE07F8
FE07F8
FF9FF0
FFFFF0
FFFFE0
FFFFE0
FFFFC0
FEFF80
FE7E00
FE0000
FE0000
FE0000
FE0000
FE0000
FE0000
FE0000
FE0000
ENDCHAR
STARTCHAR 0071
ENCODING 113
SWIDTH 585 0
DWIDTH 26 0
BBX 21 30 2 -8
BITMAP
03F1F8
0FF9F8
1FFDF8
3FFFF8
7FFFF8
7FFFF8
FF8FF8
FF03F8
FF03F8
FF03F8
FE03F8
FE03F8
FF03F8
FF03F8
FF07F8
FF8FF8
7FFFF8
7FFFF8
3FFFF8
1FFFF8
0FFBF8
03E3F8
0003F8
0003F8
0003F8
0003F8
0003F8
0003F8
0003F8
0003F8
ENDCHAR
STARTCHAR 0072
ENCODING 114
SWIDTH 427 0
DWIDTH 19 0
BBX 15 22 3 0
BITMAP
FC1E
FC7E
FCFE
FDFE
FFFE
FFFE
FFFC
FF80
FF00
FF00
FE00
FE00
FE00
FE00
FE00
FE00
FE00
FE00
FE00
FE00
FE00
FE00
ENDCHAR
STARTCHAR 0073
ENCODING 115
SWIDTH 450 0
DWIDTH 20 0
BBX 18 22 1 0
BITMAP
03F800
0FFF00
1FFF80
3FFF80
7FFF80
7FFF00
7F0600
7F8000
7FE000
3FFC00
3FFF00
0FFF80
07FF80
00FFC0
003FC0
381FC0
3FFFC0
7FFF80
FFFF80
7FFF00
3FFE00
07F000
ENDCHAR
STARTCHAR 0074
ENCODING 116
SWIDTH 405 0
DWIDTH 18 0
BBX 16 28 1 0
BITMAP
0FC0
0FC0
0FC0
1FC0
1FC0
1FC0
FFFE
FFFE
FFFE
FFFE
FFFE
FFFE
1FC0
1FC0
1FC0
1FC0
1FC0
1FC0
1FC0
1FC0
1FC0
1FE0
1FFE
1FFE
0FFE
0FFF
07FF
01FE
ENDCHAR
STARTCHAR 0075
ENCODING 117
SWIDTH 585 0
DWIDTH 26 0
BBX 21 22 2 0
BITMAP
FF07F8
FF07F8
FF07F8
FF07F8
FF07F8
FF07F8
FF07F8
FF07F8
FF07F8
FF07F8
FF07F8
FF07F8
FF07F8
FF07F8
FF07F8
7FFFF8
7FFFF8
7FFFF8
7FFFF8
3FFBF8
1FF1F8
07C1F8
ENDCHAR
STARTCHAR 0076
ENCODING 118
SWIDTH 540 0
DWIDTH 24 0
BBX 22 22 1 0
BITMAP
FE01FC
FF01FC
FF01FC
7F03FC
7F03F8
7F83F8
3F83F8
3F87F0
3F87F0
1FC7F0
1FC7E0
1FC7E0
0FCFE0
0FEFC0
0FEFC0
07EFC0
07FF80
07FF80
03FF80
03FF00
03FF00
01FF00
ENDCHAR
STARTCHAR 0077
ENCODING 119
SWIDTH 787 0
DWIDTH 35 0
BBX 33 22 1 0
BITMAP
FF03F03F80
FF07F03F80
7F07F83F80
7F07F83F80
7F07F83F00
7F8FF87F00
3F8FFC7F00
3F8FFC7F00
3F8FFC7E00
3F8F7C7E00
1FDF7E7E00
1FDF7EFE00
1FDF3EFC00
1FDF3EFC00
0FDF3EFC00
0FFE3FFC00
0FFE3FFC00
0FFE3FF800
07FE1FF800
07FE1FF800
07FC1FF800
07FC1FF000
ENDCHAR
STARTCHAR 0078
ENCODING 120
SWIDTH 540 0
DWIDTH 24 0
BBX 22 22 1 0
BITMAP
FF03FC
7F83F8
7F87F8
3FC7F0
1FC7F0
1FEFE0
0FEFC0
0FFFC0
07FF80
03FF80
03FF00
03FF00
07FF00
07FF80
0FFFC0
1FDFC0
1FDFE0
3F8FF0
3F8FF0
7F87F8
FF07F8
FF03FC
ENDCHAR
STARTCHAR 0079
ENCODING 121
SWIDTH 540 0
DWIDTH 24 0
BBX 22 30 1 -8
BITMAP
FE01FC
FF01FC
7F01FC
7F03F8
7F83F8
3F83F8
3F83F0
1FC7F0
1FC7F0
1FC7E0
0FC7E0
0FEFE0
07EFC0
07EFC0
07EF80
03FF80
03FF80
01FF00
01FF00
01FF00
00FE00
00FE00
01FE00
01FC00
1FFC00
3FF800
3FF000
3FF000
3FC000
3F0000
ENDCHAR
STARTCHAR 007A
ENCODING 122
SWIDTH 472 0
DWIDTH 21 0
BBX 18 22 2 0
BITMAP
7FFFC0
7FFFC0
7FFFC0
7FFFC0
7FFF80
7FFF80
00FF00
01FE00
03FE00
03FC00
07F800
0FF000
0FF000
1FE000
3FC000
7FC000
7FFFC0
FFFFC0
FFFFC0
FFFFC0
FFFFC0
FFFFC0
ENDCHAR
STARTCHAR 007B
ENCODING 123
SWIDTH 360 0
DWIDTH 16 0
BBX 13 39 1 -7
BITMAP
01F8
07F8
0FF8
0FF8
0FC0
0FC0
0FC0
0FC0
0FC0
0FC0
0FC0
0FC0
0FC0
0FC0
0FC0
0FC0
1FC0
FF80
FF00
FE00
FF80
7FC0
1FC0
0FC0
0FC0
0FC0
0FC0
0FC0
0FC0
0FC0
0FC0
0FC0
0FC0
0FC0
0FC0
0FF8
0FF8
07F8
03F8
ENDCHAR
STARTCHAR 007C
ENCODING 124
SWIDTH 270 0
DWIDTH 12 0
BBX 5 44 4 -11
BITMAP
F8
F8
F8
F8
F8
F8
F8
F8
F8
F8
F8
F8
F8
F8
F8
F8
F8
F8
F8
F8
F8
F8
F8
F8
F8
F8
F8
F8
F8
F8
F8
F8
F8
F8
F8
F8
F8
F8
F8
F8
F8
F8
F8
F8
ENDCHAR
STARTCHAR 007D
ENCODING 125
SWIDTH 360 0
DWIDTH 16 0
BBX 13 39 2 -7
BITMAP
FE00
FF00
FF80
FF80
1F80
1F80
1F80
1F80
1F80
1F80
1F80
1F80
1F80
1F80
1F80
1F80
1FE0
0FF8
07F8
03F8
0FF8
0FF0
1FC0
1F80
1F80
1F80
1F80
1F80
1F80
1F80
1F80
1F80
1F80
1F80
1F80
FF80
FF80
FF00
FC00
ENDCHAR
STARTCHAR 007E
ENCODING 126
SWIDTH 540 0
DWIDTH 24 0
BBX 22 8 1 11
BITMAP
07C000
1FE060
3FF8F0
7FFFFC
FFFFF8
7CFFF0
383FE0
000FC0
ENDCHAR
STARTCHAR 00A0
ENCODING 160
SWIDTH 202 0
DWIDTH 9 0
BBX 0 0 0 0
BITMAP
ENDCHAR
STARTCHAR 00A1
ENCODING 161
SWIDTH 360 0
DWIDTH 16 0
BBX 8 30 4 -8
BITMAP
3C
7E
FF
FF
FF
FF
FF
FF
7C
00
00
7E
7E
7E
7E
7E
7E
7E
7E
7E
7E
7E
7E
FF
FF
FF
FF
FF
FF
FF
ENDCHAR
STARTCHAR 00A2
ENCODING 162
SWIDTH 540 0
DWIDTH 24 0
BBX 19 31 3 -2
BITMAP
007C00
007C00
007C00
007C00
00FF00
03FFC0
0FFFE0
1FFFC0
3FFF80
7FFF80
7FFD00
FFFC00
FF7C00
FE7C00
FE7C00
FE7C00
FE7C00
FE7C00
FF7C00
FF7C00
7FFD80
7FFF80
3FFFC0
3FFFE0
1FFFE0
07FFC0
01FF00
007C00
007C00
007C00
007C00
ENDCHAR
STARTCHAR 00A3
ENCODING 163
SWIDTH 540 0
DWIDTH 24 0
BBX 21 29 2 0
BITMAP
003F00
01FFC0
03FFF0
07FFF8
0FFFF0
0FFFE0
1FF1C0
1FE080
1FC000
1FC000
1FC000
1FC000
3FFF80
FFFF80
FFFF80
FFFF80
FFFF80
07E000
07E000
07E000
0FE000
0FC000
1FC000
3FFFF8
FFFFF8
FFFFF8
FFFFF8
FFFFF8
FFFFF8
ENDCHAR
STARTCHAR 00A4
ENCODING 164
SWIDTH 540 0
DWIDTH 24 0
BBX 22 22 1 3
BITMAP
100020
380070
7CFCF8
FFFFFC
7FFFF8
3FFFF0
3FFFF0
3FCFF0
7F87F8
7F03F8
7F03F8
7F03F8
7F03F8
7F87F8
3FCFF0
3FFFF0
3FFFF0
7FFFF8
FFFFFC
7CFCF8
380070
100020
ENDCHAR
STARTCHAR 00A5
ENCODING 165
SWIDTH 540 0
DWIDTH 24 0
BBX 22 29 1 0
BITMAP
FE01FC
FF01FC
7F03F8
7F03F8
7F83F0
3F87F0
3F87F0
1FC7E0
1FCFE0
0FCFC0
0FEFC0
07FF80
07FF80
FFFFF8
FFFFF8
FFFFF8
FFFFF8
01FE00
01FE00
FFFFF8
FFFFF8
FFFFF8
FFFFF8
01FE00
01FE00
01FE00
01FE00
01FE00
01FE00
ENDCHAR
STARTCHAR 00A6
ENCODING 166
SWIDTH 270 0
DWIDTH 12 0
BBX 5 44 4 -11
BITMAP
F8
F8
F8
F8
F8
F8
F8
F8
F8
F8
F8
F8
F8
F8
F8
F8
F8
F8
F8
00
00
00
00
00
F8
F8
F8
F8
F8
F8
F8
F8
F8
F8
F8
F8
F8
F8
F8
F8
F8
F8
F8
F8
ENDCHAR
STARTCHAR 00A7
ENCODING 167
SWIDTH 540 0
DWIDTH 24 0
BBX 20 35 2 -4
BITMAP
006000
07FE00
0FFF80
1FFFC0
3FFFC0
3FFF80
3F8F00
3F8300
3FC000
3FF000
3FFC00
1FFF00
7FFF80
7FFFC0
FEFFE0
FC3FF0
FC0FF0
FC07F0
FE03F0
FF83F0
FFF3F0
7FFFF0
3FFFE0
1FFFC0
07FF80
01FF80
003FC0
001FC0
1C1FC0
7FFFC0
FFFF80
FFFF80
7FFF00
1FFE00
07F000
ENDCHAR
STARTCHAR 00A8
ENCODING 168
SWIDTH 562 0
DWIDTH 25 0
BBX 17 7 4 25
BITMAP
781F00
FC1F80
FE3F80
FE3F80
FE3F80
FC1F00
780E00
ENDCHAR
STARTCHAR 00A9
ENCODING 169
SWIDTH 742 0
DWIDTH 33 0
BBX 29 29 2 0
BITMAP
001FE000
00FFFC00
03FFFE00
07E03F80
0F8007C0
1E0003E0
3C0FC1E0
383FF0F0
787FF870
70FFF878
F0FEF078
F1F82038
E1F00038
E1F00038
E1F00038
E1F00038
F1F00038
F1F80038
F1FEF078
70FFF078
787FF870
3C3FF0F0
3C0FC1E0
1E0003E0
0F8007C0
07E03F80
03FFFE00
00FFF800
001FE000
ENDCHAR
STARTCHAR 00AA
ENCODING 170
SWIDTH 360 0
DWIDTH 16 0
BBX 14 16 1 16
BITMAP
0FC0
3FF0
7FF8
7FF8
39F8
20F8
07FC
3FFC
7FFC
7CFC
F8FC
F8FC
FFFC
7FFC
7F7C
1E7C
ENDCHAR
STARTCHAR 00AB
ENCODING 171
SWIDTH 495 0
DWIDTH 22 0
BBX 18 18 2 2
BITMAP
020100
070380
0F87C0
1F0F80
3E1F00
7E3E00
FC7E00
F87C00
F07800
F87800
F87C00
FC7E00
7E3F00
3E1F00
1F0F80
0F87C0
070380
020000
ENDCHAR
STARTCHAR 00AC
ENCODING 172
SWIDTH 540 0
DWIDTH 24 0
BBX 20 13 2 4
BITMAP
FFFFF0
FFFFF0
FFFFF0
FFFFF0
FFFFF0
0001F0
0001F0
0001F0
0001F0
0001F0
0001F0
0001F0
0001F0
ENDCHAR
STARTCHAR 00AD
ENCODING 173
SWIDTH 337 0
DWIDTH 15 0
BBX 11 5 2 9
BITMAP
FFE0
FFE0
FFE0
FFE0
FFE0
ENDCHAR
STARTCHAR 00AE
ENCODING 174
SWIDTH 472 0
DWIDTH 21 0
BBX 18 18 2 14
BITMAP
03F000
0FFC00
3F7E00
380F00
700700
E7E380
E7F380
C77980
C739C0
C7F1C0
C7E180
E77180
E77380
773B80
700700
3C1E00
1FFC00
07F800
ENDCHAR
STARTCHAR 00AF
ENCODING 175
SWIDTH 562 0
DWIDTH 25 0
BBX 13 5 6 27
BITMAP
FFF8
FFF8
FFF8
FFF8
FFF8
ENDCHAR
STARTCHAR 00B0
ENCODING 176
SWIDTH 382 0
DWIDTH 17 0
BBX 13 14 2 17
BITMAP
0200
1FC0
3FE0
7FF0
F8F8
F078
F078
F078
F078
F078
FFF0
7FF0
3FE0
0F80
ENDCHAR
STARTCHAR 00B1
ENCODING 177
SWIDTH 540 0
DWIDTH 24 0
BBX 20 25 2 0
BITMAP
01F800
01F800
01F800
01F800
01F800
01F800
01F800
FFFFF0
FFFFF0
FFFFF0
FFFFF0
FFFFF0
01F800
01F800
01F800
01F800
01F800
000000
000000
000000
FFFFF0
FFFFF0
FFFFF0
FFFFF0
FFFFF0
ENDCHAR
STARTCHAR 00B2
ENCODING 178
SWIDTH 382 0
DWIDTH 17 0
BBX 14 18 1 16
BITMAP
0FC0
3FF0
7FF8
FFF8
7FF8
30FC
00FC
00F8
00F8
01F0
03F0
07E0
0FC0
3FFC
7FFC
7FFC
7FFC
7FFC
ENDCHAR
STARTCHAR 00B3
ENCODING 179
SWIDTH 382 0
DWIDTH 17 0
BBX 14 18 1 16
BITMAP
0FE0
3FF0
7FF8
3FFC
18FC
00FC
00F8
07F0
07F0
07F8
00FC
007C
107C
78FC
FFFC
7FF8
3FF0
0FE0
ENDCHAR
STARTCHAR 00B4
ENCODING 180
SWIDTH 562 0
DWIDTH 25 0
BBX 11 12 10 25
BITMAP
0200
0700
0F80
0FC0
1FE0
3FE0
7FC0
FF80
FF00
7C00
3800
1000
ENDCHAR
STARTCHAR 00B5
ENCODING 181
SWIDTH 607 0
DWIDTH 27 0
BBX 24 31 3 -8
BITMAP
000FF0
FE0FF0
FE0FF0
FE0FF0
FE0FF0
FE0FF0
FE0FF0
FE0FF0
FE0FF0
FE0FF0
FE0FF0
FE0FF0
FE0FF0
FE0FF0
FE0FF0
FF0FF0
FF1FF0
FFFFFE
FFFFFF
FFFFFF
FFFBFF
FFF1FF
FFE0FE
FE0000
FE0000
FE0000
FE0000
FE0000
FE0000
FE0000
FE0000
ENDCHAR
STARTCHAR 00B6
ENCODING 182
SWIDTH 675 0
DWIDTH 30 0
BBX 23 32 2 -3
BITMAP
01F8FE
0FF8FE
1FF8FE
3FF8FE
7FF8FE
7FF8FE
FFF8FE
FFF8FE
FFF8FE
FFF8FE
FFF8FE
FFF8FE
FFF8FE
FFF8FE
7FF8FE
7FF8FE
3FF8FE
1FF8FE
0FF8FE
03F8FE
0078FE
0000FE
0000FE
0000FE
0000FE
0000FE
0000FE
0000FE
0000FE
0000FE
0000FE
0000FE
ENDCHAR
STARTCHAR 00B7
ENCODING 183
SWIDTH 315 0
DWIDTH 14 0
BBX 9 9 3 10
BITMAP
3C00
7E00
FF00
FF00
FF80
FF00
FF00
7F00
3E00
ENDCHAR
STARTCHAR 00B8
ENCODING 184
SWIDTH 562 0
DWIDTH 25 0
BBX 10 11 7 -11
BITMAP
1F00
1E00
3E00
3F00
3FC0
0FC0
07C0
0FC0
FF80
FF00
7800
ENDCHAR
STARTCHAR 00B9
ENCODING 185
SWIDTH 382 0
DWIDTH 17 0
BBX 10 17 3 17
BITMAP
07C0
3FC0
FFC0
FFC0
FFC0
0FC0
0FC0
0FC0
0FC0
0FC0
0FC0
0FC0
0FC0
0FC0
0FC0
0FC0
0FC0
ENDCHAR
STARTCHAR 00BA
ENCODING 186
SWIDTH 382 0
DWIDTH 17 0
BBX 15 16 1 16
BITMAP
07C0
1FF0
3FF8
7FFC
7CFC
FC7C
F87E
F87E
F87E
FC7E
FC7C
7CFC
7FFC
3FF8
1FF0
07C0
ENDCHAR
STARTCHAR 00BB
ENCODING 187
SWIDTH 495 0
DWIDTH 22 0
BBX 18 17 2 2
BITMAP
101800
783800
7C7C00
7C3E00
3E1F00
1F0F80
1F8FC0
0F87C0
0783C0
0783C0
0F87C0
1F8FC0
1F1F80
3E1F00
7C3E00
F87C00
303800
ENDCHAR
STARTCHAR 00BC
ENCODING 188
SWIDTH 810 0
DWIDTH 36 0
BBX 34 30 2 0
BITMAP
000003C000
0F8007C000
3F80078000
FF800F0000
FF800F0000
FF801E0000
0F801E0000
0F803C0000
0F803C0000
0F80780000
0F80780000
0F80F00000
0F80F07F00
0F81E0FF00
0F83E0FF00
0F83C1FF00
0F87C1FF00
0F8783DF00
000F83DF00
000F079F00
001F079F00
001E0F9F00
003E0F1F00
003C1FFFC0
00781FFFC0
00781FFFC0
00F01FFFC0
00F0001F00
01E0001F00
01E0001F00
ENDCHAR
STARTCHAR 00BD
ENCODING 189
SWIDTH 855 0
DWIDTH 38 0
BBX 34 30 2 0
BITMAP
0000078000
0F80078000
3F800F0000
FF800F0000
FF801E0000
FF801E0000
0F803C0000
0F803C0000
0F80780000
0F80F80000
0F80F00000
0F81F00000
0F81E0FC00
0F83E1FF00
0F83C7FF80
0F87CFFF80
0F8787FFC0
0F8F830FC0
000F0007C0
001E0007C0
001E000F80
003C001F80
003C001F00
0078003F00
007800FE00
00F001FFC0
00F003FFC0
01E007FFC0
01E007FFC0
03C007FFC0
ENDCHAR
STARTCHAR 00BE
ENCODING 190
SWIDTH 832 0
DWIDTH 37 0
BBX 36 29 1 0
BITMAP
0FC001F000
3FF001E000
7FF803C000
7FF803C000
39F8078000
00F8078000
01F80F0000
07F00F0000
07F01E0000
07F83E0000
01FC3C0000
007C7C0000
307C783F80
78FCF87F80
FFFCF07F80
7FF9F0FF80
3FF1E0FF80
1FC3C1EF80
0003C1EF80
000783CF80
000787CF80
000F078F80
000F0FFFF0
001E0FFFF0
003E0FFFF0
003C0FFFF0
007C000F80
0078000F80
00F8000F80
ENDCHAR
STARTCHAR 00BF
ENCODING 191
SWIDTH 472 0
DWIDTH 21 0
BBX 17 30 2 -8
BITMAP
01E000
03F800
07F800
07FC00
07FC00
07FC00
07F800
03F800
01F000
000000
000000
03F800
03F800
07F000
07F000
0FF000
1FE000
3FC000
7F8000
7F0000
FE0000
FE0000
FE0400
FF1E00
FFFF00
FFFF80
7FFF80
3FFF00
1FFC00
07F000
ENDCHAR
STARTCHAR 00C0
ENCODING 192
SWIDTH 585 0
DWIDTH 26 0
BBX 26 40 0 0
BITMAP
00800000
01E00000
03F00000
07F80000
07FC0000
03FF0000
00FF0000
007E0000
001C0000
000C0000
00000000
00FFC000
00FFC000
00FFC000
01FFE000
01FFE000
01FFE000
03FFF000
03F7F000
03F3F000
07F3F000
07F3F800
07F3F800
07E3F800
0FE1FC00
0FE1FC00
0FE1FC00
1FC1FE00
1FFFFE00
1FFFFE00
3FFFFF00
3FFFFF00
3FFFFF00
3FFFFF00
7F807F80
7F007F80
7F007F80
FF003FC0
FF003FC0
FE003FC0
ENDCHAR
STARTCHAR 00C1
ENCODING 193
SWIDTH 585 0
DWIDTH 26 0
BBX 26 40 0 0
BITMAP
0000C000
0001E000
0003E000
000FF000
001FF800
003FF000
007FC000
003F0000
001E0000
00080000
00000000
00FFC000
00FFC000
00FFC000
01FFE000
01FFE000
01FFE000
03FFF000
03F7F000
03F3F000
07F3F000
07F3F800
07F3F800
07E3F800
0FE1FC00
0FE1FC00
0FE1FC00
1FC1FE00
1FFFFE00
1FFFFE00
3FFFFF00
3FFFFF00
3FFFFF00
3FFFFF00
7F807F80
7F007F80
7F007F80
FF003FC0
FF003FC0
FE003FC0
ENDCHAR
STARTCHAR 00C2
ENCODING 194
SWIDTH 585 0
DWIDTH 26 0
BBX 26 37 0 0
BITMAP
00FFC000
01FFC000
03FFE000
03F7F000
07E1F800
03C0E000
00004000
00000000
00FFC000
00FFC000
00FFC000
01FFE000
01FFE000
01FFE000
03FFF000
03F7F000
03F3F000
07F3F000
07F3F800
07F3F800
07E3F800
0FE1FC00
0FE1FC00
0FE1FC00
1FC1FE00
1FFFFE00
1FFFFE00
3FFFFF00
3FFFFF00
3FFFFF00
3FFFFF00
7F807F80
7F007F80
7F007F80
FF003FC0
FF003FC0
FE003FC0
ENDCHAR
STARTCHAR 00C3
ENCODING 195
SWIDTH 585 0
DWIDTH 26 0
BBX 26 38 0 0
BITMAP
01F87C00
07FC7C00
07FFFC00
0FFFF800
0FFFF800
0F9FF000
0F87E000
00000000
00000000
00FFC000
00FFC000
00FFC000
01FFE000
01FFE000
01FFE000
03FFF000
03F7F000
03F3F000
07F3F000
07F3F800
07F3F800
07E3F800
0FE1FC00
0FE1FC00
0FE1FC00
1FC1FE00
1FFFFE00
1FFFFE00
3FFFFF00
3FFFFF00
3FFFFF00
3FFFFF00
7F807F80
7F007F80
7F007F80
FF003FC0
FF003FC0
FE003FC0
ENDCHAR
STARTCHAR 00C4
ENCODING 196
SWIDTH 585 0
DWIDTH 26 0
BBX 26 38 0 0
BITMAP
0380F000
07E1F800
0FE1F800
0FE3F800
0FE1F800
07E1F800
03C0F000
00000000
00000000
00FFC000
00FFC000
00FFC000
01FFE000
01FFE000
01FFE000
03FFF000
03F7F000
03F3F000
07F3F000
07F3F800
07F3F800
07E3F800
0FE1FC00
0FE1FC00
0FE1FC00
1FC1FE00
1FFFFE00
1FFFFE00
3FFFFF00
3FFFFF00
3FFFFF00
3FFFFF00
7F807F80
7F007F80
7F007F80
FF003FC0
FF003FC0
FE003FC0
ENDCHAR
STARTCHAR 00C5
ENCODING 197
SWIDTH 585 0
DWIDTH 26 0
BBX 26 40 0 0
BITMAP
003E0000
007F8000
00FFC000
00E3C000
01E3C000
00E3C000
00FFC000
007F8000
003E0000
00000000
00000000
00FFC000
00FFC000
00FFC000
01FFE000
01FFE000
01FFE000
03FFF000
03F7F000
03F3F000
07F3F000
07F3F800
07F3F800
07E3F800
0FE1FC00
0FE1FC00
0FE1FC00
1FC1FE00
1FFFFE00
1FFFFE00
3FFFFF00
3FFFFF00
3FFFFF00
3FFFFF00
7F807F80
7F007F80
7F007F80
FF003FC0
FF003FC0
FE003FC0
ENDCHAR
STARTCHAR 00C6
ENCODING 198
SWIDTH 855 0
DWIDTH 38 0
BBX 37 29 -1 0
BITMAP
0007FFFFF0
000FFFFFF0
000FFFFFF0
000FFFFFF0
001FFFFFF0
001FFFFFF0
003FBFC000
003FBFC000
007FBFC000
007F3FC000
00FF3FC000
00FE3FFFE0
01FE3FFFE0
01FE3FFFE0
01FC3FFFE0
03FC3FFFE0
03F83FFFE0
07FFFFC000
07FFFFC000
0FFFFFC000
0FFFFFC000
1FFFFFC000
1FFFFFC000
1FC03FFFF8
3FC03FFFF8
3FC03FFFF8
7F803FFFF8
7F803FFFF8
FF003FFFF8
ENDCHAR
STARTCHAR 00C7
ENCODING 199
SWIDTH 585 0
DWIDTH 26 0
BBX 23 40 2 -11
BITMAP
003F80
00FFF0
03FFF8
07FFFE
0FFFFC
1FFFF8
3FFFF8
3FE070
7FC000
7F8000
7F8000
FF0000
FF0000
FF0000
FF0000
FF0000
FF0000
FF0000
FF0000
7F8000
7F8000
7FC030
3FF0F8
3FFFFC
1FFFFE
0FFFFE
07FFFC
01FFF0
007FC0
001E00
001E00
003E00
003F80
001FC0
0007C0
0007C0
000FC0
00FF80
007F00
007800
ENDCHAR
STARTCHAR 00C8
ENCODING 200
SWIDTH 562 0
DWIDTH 25 0
BBX 19 40 3 0
BITMAP
060000
0F0000
1F8000
3FC000
3FF000
1FF800
07F800
03F000
00F000
002000
000000
FFFFE0
FFFFE0
FFFFE0
FFFFE0
FFFFE0
FFFFE0
FF0000
FF0000
FF0000
FF0000
FF0000
FFFF80
FFFF80
FFFF80
FFFF80
FFFF80
FFFF80
FF0000
FF0000
FF0000
FF0000
FF0000
FF0000
FFFFE0
FFFFE0
FFFFE0
FFFFE0
FFFFE0
FFFFE0
ENDCHAR
STARTCHAR 00C9
ENCODING 201
SWIDTH 562 0
DWIDTH 25 0
BBX 19 40 3 0
BITMAP
000600
000F00
001F80
007F80
00FFC0
01FF80
03FE00
01FC00
00F000
004000
000000
FFFFE0
FFFFE0
FFFFE0
FFFFE0
FFFFE0
FFFFE0
FF0000
FF0000
FF0000
FF0000
FF0000
FFFF80
FFFF80
FFFF80
FFFF80
FFFF80
FFFF80
FF0000
FF0000
FF0000
FF0000
FF0000
FF0000
FFFFE0
FFFFE0
FFFFE0
FFFFE0
FFFFE0
FFFFE0
ENDCHAR
STARTCHAR 00CA
ENCODING 202
SWIDTH 562 0
DWIDTH 25 0
BBX 19 37 3 0
BITMAP
07FE00
0FFE00
0FFF00
1F9F80
3F0FC0
1E0700
000200
000000
FFFFE0
FFFFE0
FFFFE0
FFFFE0
FFFFE0
FFFFE0
FF0000
FF0000
FF0000
FF0000
FF0000
FFFF80
FFFF80
FFFF80
FFFF80
FFFF80
FFFF80
FF0000
FF0000
FF0000
FF0000
FF0000
FF0000
FFFFE0
FFFFE0
FFFFE0
FFFFE0
FFFFE0
FFFFE0
ENDCHAR
STARTCHAR 00CB
ENCODING 203
SWIDTH 562 0
DWIDTH 25 0
BBX 19 38 3 0
BITMAP
1E0780
3F0FC0
3F0FC0
7F1FC0
7F0FC0
3F0FC0
1E0780
000000
000000
FFFFE0
FFFFE0
FFFFE0
FFFFE0
FFFFE0
FFFFE0
FF0000
FF0000
FF0000
FF0000
FF0000
FFFF80
FFFF80
FFFF80
FFFF80
FFFF80
FFFF80
FF0000
FF0000
FF0000
FF0000
FF0000
FF0000
FFFFE0
FFFFE0
FFFFE0
FFFFE0
FFFFE0
FFFFE0
ENDCHAR
STARTCHAR 00CC
ENCODING 204
SWIDTH 315 0
DWIDTH 14 0
BBX 12 40 -1 0
BITMAP
1800
3C00
7E00
7F00
FFC0
7FE0
1FE0
0FE0
03C0
0080
0000
0FF0
0FF0
0FF0
0FF0
0FF0
0FF0
0FF0
0FF0
0FF0
0FF0
0FF0
0FF0
0FF0
0FF0
0FF0
0FF0
0FF0
0FF0
0FF0
0FF0
0FF0
0FF0
0FF0
0FF0
0FF0
0FF0
0FF0
0FF0
0FF0
ENDCHAR
STARTCHAR 00CD
ENCODING 205
SWIDTH 315 0
DWIDTH 14 0
BBX 12 40 3 0
BITMAP
0180
03C0
07E0
0FE0
3FF0
7FE0
7F80
7F00
3C00
1000
0000
FF00
FF00
FF00
FF00
FF00
FF00
FF00
FF00
FF00
FF00
FF00
FF00
FF00
FF00
FF00
FF00
FF00
FF00
FF00
FF00
FF00
FF00
FF00
FF00
FF00
FF00
FF00
FF00
FF00
ENDCHAR
STARTCHAR 00CE
ENCODING 206
SWIDTH 315 0
DWIDTH 14 0
BBX 16 37 -1 0
BITMAP
1FF8
3FFC
3FFC
7E7E
FC3F
381E
1008
0000
0FF0
0FF0
0FF0
0FF0
0FF0
0FF0
0FF0
0FF0
0FF0
0FF0
0FF0
0FF0
0FF0
0FF0
0FF0
0FF0
0FF0
0FF0
0FF0
0FF0
0FF0
0FF0
0FF0
0FF0
0FF0
0FF0
0FF0
0FF0
0FF0
ENDCHAR
STARTCHAR 00CF
ENCODING 207
SWIDTH 315 0
DWIDTH 14 0
BBX 18 38 -2 0
BITMAP
3C0F00
7E1F80
7E1F80
FE1FC0
7E1F80
7E1F80
3C0F00
000000
000000
07F800
07F800
07F800
07F800
07F800
07F800
07F800
07F800
07F800
07F800
07F800
07F800
07F800
07F800
07F800
07F800
07F800
07F800
07F800
07F800
07F800
07F800
07F800
07F800
07F800
07F800
07F800
07F800
07F800
ENDCHAR
STARTCHAR 00D0
ENCODING 208
SWIDTH 675 0
DWIDTH 30 0
BBX 27 29 1 0
BITMAP
1FFF8000
1FFFF000
1FFFFC00
1FFFFE00
1FFFFF00
1FFFFF80
1FE3FF80
1FE0FFC0
1FE07FC0
1FE03FC0
1FE03FC0
1FE01FE0
1FFF1FE0
FFFF1FE0
FFFF1FE0
FFFF1FE0
1FE01FE0
1FE01FE0
1FE03FC0
1FE03FC0
1FE07FC0
1FE0FF80
1FE3FF80
1FFFFF00
1FFFFF00
1FFFFE00
1FFFF800
1FFFF000
1FFF8000
ENDCHAR
STARTCHAR 00D1
ENCODING 209
SWIDTH 675 0
DWIDTH 30 0
BBX 24 38 3 0
BITMAP
03F0F8
07FCF8
0FFFF8
1FFFF8
1FFFF0
1F3FE0
1F0FC0
000000
000000
FF00FF
FF80FF
FF80FF
FFC0FF
FFC0FF
FFE0FF
FFE0FF
FFF0FF
FFF0FF
FFF8FF
FFF8FF
FFFCFF
FEFC7F
FEFE7F
FE7E7F
FE7F7F
FE3F7F
FE3F7F
FE1FFF
FE1FFF
FE0FFF
FE0FFF
FE07FF
FE07FF
FE03FF
FE03FF
FE01FF
FE01FF
FE00FF
ENDCHAR
STARTCHAR 00D2
ENCODING 210
SWIDTH 697 0
DWIDTH 31 0
BBX 27 39 2 1
BITMAP
00E00000
01F00000
03F80000
03FC0000
03FF0000
01FF8000
007F0000
003E0000
000E0000
00000000
003F8000
01FFF000
07FFFC00
0FFFFE00
1FFFFF00
3FFFFF00
3FFFFF80
7FC0FFC0
7F807FC0
7F803FC0
FF003FC0
FF001FE0
FF001FE0
FF001FE0
FF001FE0
FF001FE0
FF001FE0
FF001FE0
FF003FC0
7F803FC0
7FC07FC0
7FE0FF80
3FFFFF80
3FFFFF00
1FFFFF00
0FFFFE00
07FFF800
01FFF000
007F8000
ENDCHAR
STARTCHAR 00D3
ENCODING 211
SWIDTH 697 0
DWIDTH 31 0
BBX 27 40 2 0
BITMAP
00004000
0000E000
0001F000
0003F000
000FF800
001FF800
003FE000
003FC000
001F0000
000E0000
00000000
003F8000
01FFF000
07FFFC00
0FFFFE00
1FFFFF00
3FFFFF00
3FFFFF80
7FC0FFC0
7F807FC0
7F803FC0
FF003FC0
FF001FE0
FF001FE0
FF001FE0
FF001FE0
FF001FE0
FF001FE0
FF001FE0
FF003FC0
7F803FC0
7FC07FC0
7FE0FF80
3FFFFF80
3FFFFF00
1FFFFF00
0FFFFE00
07FFF800
01FFF000
007F8000
ENDCHAR
STARTCHAR 00D4
ENCODING 212
SWIDTH 697 0
DWIDTH 31 0
BBX 27 36 2 0
BITMAP
007FC000
00FFE000
01FFF000
03FBF800
07E0F800
01C06000
00000000
003F8000
01FFF000
07FFFC00
0FFFFE00
1FFFFF00
3FFFFF00
3FFFFF80
7FC0FFC0
7F807FC0
7F803FC0
FF003FC0
FF001FE0
FF001FE0
FF001FE0
FF001FE0
FF001FE0
FF001FE0
FF001FE0
FF003FC0
7F803FC0
7FC07FC0
7FE0FF80
3FFFFF80
3FFFFF00
1FFFFF00
0FFFFE00
07FFF800
01FFF000
007F8000
ENDCHAR
STARTCHAR 00D5
ENCODING 213
SWIDTH 697 0
DWIDTH 31 0
BBX 27 37 2 0
BITMAP
01F83E00
03FE7C00
07FFFC00
07FFFC00
07FFF800
0F8FF800
0183E000
00000000
003F8000
01FFF000
07FFFC00
0FFFFE00
1FFFFF00
3FFFFF00
3FFFFF80
7FC0FFC0
7F807FC0
7F803FC0
FF003FC0
FF001FE0
FF001FE0
FF001FE0
FF001FE0
FF001FE0
FF001FE0
FF001FE0
FF003FC0
7F803FC0
7FC07FC0
7FE0FF80
3FFFFF80
3FFFFF00
1FFFFF00
0FFFFE00
07FFF800
01FFF000
007F8000
ENDCHAR
STARTCHAR 00D6
ENCODING 214
SWIDTH 697 0
DWIDTH 31 0
BBX 27 37 2 0
BITMAP
01C07000
07E0F800
07F1FC00
07F1FC00
07F1FC00
07E0F800
01C07000
00000000
003F8000
01FFF000
07FFFC00
0FFFFE00
1FFFFF00
3FFFFF00
3FFFFF80
7FC0FFC0
7F807FC0
7F803FC0
FF003FC0
FF001FE0
FF001FE0
FF001FE0
FF001FE0
FF001FE0
FF001FE0
FF001FE0
FF003FC0
7F803FC0
7FC07FC0
7FE0FF80
3FFFFF80
3FFFFF00
1FFFFF00
0FFFFE00
07FFF800
01FFF000
007F8000
ENDCHAR
STARTCHAR 00D7
ENCODING 215
SWIDTH 540 0
DWIDTH 24 0
BBX 20 19 2 6
BITMAP
180180
3C03C0
7E07E0
7F0FE0
3F9FC0
1FFF80
0FFF00
07FE00
03FC00
03FC00
07FE00
0FFF00
1FFF80
3F9FC0
7F0FE0
FE07F0
7C03E0
3801C0
100080
ENDCHAR
STARTCHAR 00D8
ENCODING 216
SWIDTH 697 0
DWIDTH 31 0
BBX 28 32 2 -1
BITMAP
00000180
003F83E0
01FFF3F0
07FFFFE0
0FFFFFC0
1FFFFFC0
3FFFFF80
3FFFFF80
7FC0FF80
7F80FFC0
7F81FFC0
FF03FFC0
FF07FFE0
FF0FFFE0
FF1FDFE0
FF1F9FE0
FF3F1FE0
FF7E1FE0
FFFC1FE0
FFFC3FC0
7FF83FC0
7FF07FC0
7FE0FF80
3FFFFF80
3FFFFF00
3FFFFF00
7FFFFE00
FFFFF800
FDFFF000
787F8000
30000000
10000000
ENDCHAR
STARTCHAR 00D9
ENCODING 217
SWIDTH 675 0
DWIDTH 30 0
BBX 24 40 3 0
BITMAP
018000
03C000
07E000
0FF000
0FFC00
07FE00
01FE00
00FC00
003C00
000800
000000
FF00FF
FF00FF
FF00FF
FF00FF
FF00FF
FF00FF
FF00FF
FF00FF
FF00FF
FF00FF
FF00FF
FF00FF
FF00FF
FF00FF
FF00FF
FF00FF
FF00FF
FF00FF
FF00FF
FF00FE
7F80FE
7F81FE
7FFFFE
3FFFFC
3FFFFC
1FFFF8
0FFFF0
07FFE0
00FF00
ENDCHAR
STARTCHAR 00DA
ENCODING 218
SWIDTH 675 0
DWIDTH 30 0
BBX 24 40 3 0
BITMAP
000180
0003C0
0007E0
000FE0
003FF0
007FE0
007F80
007F00
003C00
001000
000000
FF00FF
FF00FF
FF00FF
FF00FF
FF00FF
FF00FF
FF00FF
FF00FF
FF00FF
FF00FF
FF00FF
FF00FF
FF00FF
FF00FF
FF00FF
FF00FF
FF00FF
FF00FF
FF00FF
FF00FE
7F80FE
7F81FE
7FFFFE
3FFFFC
3FFFFC
1FFFF8
0FFFF0
07FFE0
00FF00
ENDCHAR
STARTCHAR 00DB
ENCODING 219
SWIDTH 675 0
DWIDTH 30 0
BBX 24 37 3 0
BITMAP
01FF80
03FF80
03FFC0
07E7E0
0FC3F0
0781C0
000080
000000
FF00FF
FF00FF
FF00FF
FF00FF
FF00FF
FF00FF
FF00FF
FF00FF
FF00FF
FF00FF
FF00FF
FF00FF
FF00FF
FF00FF
FF00FF
FF00FF
FF00FF
FF00FF
FF00FF
FF00FE
7F80FE
7F81FE
7FFFFE
3FFFFC
3FFFFC
1FFFF8
0FFFF0
07FFE0
00FF00
ENDCHAR
STARTCHAR 00DC
ENCODING 220
SWIDTH 675 0
DWIDTH 30 0
BBX 24 38 3 0
BITMAP
0781E0
0FC3F0
0FC3F0
1FC3F0
0FC3F0
0FC3F0
0781E0
000000
000000
FF00FF
FF00FF
FF00FF
FF00FF
FF00FF
FF00FF
FF00FF
FF00FF
FF00FF
FF00FF
FF00FF
FF00FF
FF00FF
FF00FF
FF00FF
FF00FF
FF00FF
FF00FF
FF00FF
FF00FE
7F80FE
7F81FE
7FFFFE
3FFFFC
3FFFFC
1FFFF8
0FFFF0
07FFE0
00FF00
ENDCHAR
STARTCHAR 00DD
ENCODING 221
SWIDTH 540 0
DWIDTH 24 0
BBX 24 40 0 0
BITMAP
000180
0003C0
0007E0
000FF0
003FF0
007FE0
007F80
003F00
003C00
001000
000000
FF00FF
FF00FF
7F80FE
7F81FE
3F81FE
3FC1FC
1FC3FC
1FC3F8
1FE3F8
0FE7F0
0FE7F0
07F7E0
07FFE0
03FFC0
03FFC0
01FFC0
01FF80
00FF80
00FF00
00FF00
00FF00
00FF00
00FF00
00FF00
00FF00
00FF00
00FF00
00FF00
00FF00
ENDCHAR
STARTCHAR 00DE
ENCODING 222
SWIDTH 630 0
DWIDTH 28 0
BBX 23 29 3 0
BITMAP
FF0000
FF0000
FF0000
FF0000
FFFF00
FFFFE0
FFFFF0
FFFFF8
FFFFFC
FFFFFC
FF03FE
FF01FE
FF01FE
FF01FE
FF01FE
FF01FE
FF01FE
FF07FC
FFFFFC
FFFFF8
FFFFF8
FFFFF0
FFFFC0
FFFE00
FF0000
FF0000
FF0000
FF0000
FF0000
ENDCHAR
STARTCHAR 00DF
ENCODING 223
SWIDTH 652 0
DWIDTH 29 0
BBX 25 32 3 0
BITMAP
01FE0000
0FFF8000
1FFFC000
3FFFE000
7FFFF000
7FFFF000
FF8FF800
FF07F800
FF07F800
FE07F000
FE07F000
FE07F000
FE0FE000
FE1FC000
FE1FC000
FE1F8000
FE1FC000
FE1FF000
FE1FF800
FE0FFE00
FE07FF00
FE03FF00
FE00FF80
FE007F80
FE003F80
FE083F80
FE1FFF80
FE1FFF00
FE3FFF00
FE3FFE00
FE7FFC00
FE0FF000
ENDCHAR
STARTCHAR 00E0
ENCODING 224
SWIDTH 540 0
DWIDTH 24 0
BBX 19 37 2 0
BITMAP
020000
060000
0F0000
1F8000
3FC000
7FE000
1FF000
0FF000
07F800
03F000
01E000
004000
000000
000000
000000
03FC00
1FFF00
7FFF80
7FFFC0
7FFFC0
3FFFE0
3C1FE0
100FE0
003FE0
07FFE0
1FFFE0
3FFFE0
7FCFE0
FF0FE0
FE0FE0
FE1FE0
FFFFE0
FFFFE0
FFFFE0
7FFFE0
3FE7E0
0F87E0
ENDCHAR
STARTCHAR 00E1
ENCODING 225
SWIDTH 540 0
DWIDTH 24 0
BBX 20 37 2 0
BITMAP
000200
000300
000780
000FC0
001FE0
003FF0
007FC0
007F80
00FF00
007E00
003C00
001000
000000
000000
000000
03FC00
1FFF00
7FFF80
7FFFC0
7FFFC0
3FFFE0
3C1FE0
100FE0
003FE0
07FFE0
1FFFE0
3FFFE0
7FCFE0
FF0FE0
FE0FE0
FE1FE0
FFFFE0
FFFFE0
FFFFE0
7FFFE0
3FE7E0
0F87E0
ENDCHAR
STARTCHAR 00E2
ENCODING 226
SWIDTH 540 0
DWIDTH 24 0
BBX 19 33 2 0
BITMAP
03FC00
03FE00
07FF00
0FFF80
1FFFC0
3FDFE0
3F07E0
1E03C0
080080
000000
000000
03FC00
1FFF00
7FFF80
7FFFC0
7FFFC0
3FFFE0
3C1FE0
100FE0
003FE0
07FFE0
1FFFE0
3FFFE0
7FCFE0
FF0FE0
FE0FE0
FE1FE0
FFFFE0
FFFFE0
FFFFE0
7FFFE0
3FE7E0
0F87E0
ENDCHAR
STARTCHAR 00E3
ENCODING 227
SWIDTH 540 0
DWIDTH 24 0
BBX 19 32 2 0
BITMAP
07C3E0
1FF3E0
1FFFE0
3FFFE0
3FFFC0
3E7FC0
3E1F00
000000
000000
000000
03FC00
1FFF00
7FFF80
7FFFC0
7FFFC0
3FFFE0
3C1FE0
100FE0
003FE0
07FFE0
1FFFE0
3FFFE0
7FCFE0
FF0FE0
FE0FE0
FE1FE0
FFFFE0
FFFFE0
FFFFE0
7FFFE0
3FE7E0
0F87E0
ENDCHAR
STARTCHAR 00E4
ENCODING 228
SWIDTH 540 0
DWIDTH 24 0
BBX 19 31 2 0
BITMAP
1F03C0
3F07E0
3F8FE0
3F8FE0
3F8FE0
3F07C0
0E0380
000000
000000
03FC00
1FFF00
7FFF80
7FFFC0
7FFFC0
3FFFE0
3C1FE0
100FE0
003FE0
07FFE0
1FFFE0
3FFFE0
7FCFE0
FF0FE0
FE0FE0
FE1FE0
FFFFE0
FFFFE0
FFFFE0
7FFFE0
3FE7E0
0F87E0
ENDCHAR
STARTCHAR 00E5
ENCODING 229
SWIDTH 540 0
DWIDTH 24 0
BBX 19 34 2 0
BITMAP
00FC00
03FE00
07FF00
0F8F80
0F8F80
0F8F80
078F00
07FF00
03FE00
00F000
000000
000000
03FC00
1FFF00
7FFF80
7FFFC0
7FFFC0
3FFFE0
3C1FE0
100FE0
003FE0
07FFE0
1FFFE0
3FFFE0
7FCFE0
FF0FE0
FE0FE0
FE1FE0
FFFFE0
FFFFE0
FFFFE0
7FFFE0
3FE7E0
0F87E0
ENDCHAR
STARTCHAR 00E6
ENCODING 230
SWIDTH 787 0
DWIDTH 35 0
BBX 31 22 2 0
BITMAP
03F80FC0
1FFE3FE0
7FFFFFF8
7FFFFFF8
7FFFFFFC
3FFFFFFC
1C1FF0FE
100FE07E
007FE07E
07FFFFFE
1FFFFFFE
3FFFFFFE
7FFFFFFE
FF0FFFFE
FE0FE000
FE0FF810
FFFFFFF8
FFFFFFF8
7FFFFFFC
7FFCFFFC
3FF07FF8
0FC01FC0
ENDCHAR
STARTCHAR 00E7
ENCODING 231
SWIDTH 472 0
DWIDTH 21 0
BBX 19 33 1 -11
BITMAP
007F00
03FFC0
07FFE0
0FFFC0
1FFF80
3FFF00
7FE300
7F8000
7F8000
7F0000
FF0000
FF0000
FF0000
7F8000
7F8000
7FC100
3FFF80
3FFFC0
1FFFC0
0FFFE0
07FFC0
01FF00
007C00
007800
00F800
00FE00
007F00
001F00
001F00
003F00
03FE00
01FC00
01E000
ENDCHAR
STARTCHAR 00E8
ENCODING 232
SWIDTH 517 0
DWIDTH 23 0
BBX 21 36 1 1
BITMAP
030000
078000
0FC000
1FC000
3FE000
1FF000
0FF800
03FC00
01F800
00F000
006000
000000
000000
000000
00FE00
03FF80
0FFFC0
1FFFE0
3FFFE0
3FFFF0
7F83F0
7F03F8
7FFFF8
7FFFF8
FFFFF8
FFFFF8
7FFFF8
7F0000
7F8000
7FC0C0
3FFFC0
3FFFE0
1FFFE0
0FFFF0
03FFC0
00FE00
ENDCHAR
STARTCHAR 00E9
ENCODING 233
SWIDTH 517 0
DWIDTH 23 0
BBX 21 37 1 0
BITMAP
000100
000380
0007C0
0007E0
000FF0
001FF0
003FE0
007FC0
00FF80
007E00
003C00
001800
000000
000000
000000
00FE00
03FF80
0FFFC0
1FFFE0
3FFFE0
3FFFF0
7F83F0
7F03F8
7FFFF8
7FFFF8
FFFFF8
FFFFF8
7FFFF8
7F0000
7F8000
7FC0C0
3FFFC0
3FFFE0
1FFFE0
0FFFF0
03FFC0
00FE00
ENDCHAR
STARTCHAR 00EA
ENCODING 234
SWIDTH 517 0
DWIDTH 23 0
BBX 21 33 1 0
BITMAP
01FE00
03FF00
07FF80
07FFC0
0FFFC0
1FCFE0
1F87E0
0E01C0
040080
000000
000000
00FE00
03FF80
0FFFC0
1FFFE0
3FFFE0
3FFFF0
7F83F0
7F03F8
7FFFF8
7FFFF8
FFFFF8
FFFFF8
7FFFF8
7F0000
7F8000
7FC0C0
3FFFC0
3FFFE0
1FFFE0
0FFFF0
03FFC0
00FE00
ENDCHAR
STARTCHAR 00EB
ENCODING 235
SWIDTH 517 0
DWIDTH 23 0
BBX 21 31 1 0
BITMAP
0F03C0
1F87E0
1F87F0
3FC7F0
1F87F0
1F87E0
0F03C0
000000
000000
00FE00
03FF80
0FFFC0
1FFFE0
3FFFE0
3FFFF0
7F83F0
7F03F8
7FFFF8
7FFFF8
FFFFF8
FFFFF8
7FFFF8
7F0000
7F8000
7FC0C0
3FFFC0
3FFFE0
1FFFE0
0FFFF0
03FFC0
00FE00
ENDCHAR
STARTCHAR 00EC
ENCODING 236
SWIDTH 292 0
DWIDTH 13 0
BBX 13 37 -3 0
BITMAP
0C00
1E00
3F00
7F00
FF80
7FC0
3FE0
1FF0
07F0
03E0
01C0
0080
0000
0000
0000
03F8
03F8
03F8
03F8
03F8
03F8
03F8
03F8
03F8
03F8
03F8
03F8
03F8
03F8
03F8
03F8
03F8
03F8
03F8
03F8
03F8
03F8
ENDCHAR
STARTCHAR 00ED
ENCODING 237
SWIDTH 292 0
DWIDTH 13 0
BBX 12 37 3 0
BITMAP
0100
0380
07C0
0FE0
0FF0
1FF0
3FE0
7F80
7F00
3E00
1C00
0800
0000
0000
0000
FE00
FE00
FE00
FE00
FE00
FE00
FE00
FE00
FE00
FE00
FE00
FE00
FE00
FE00
FE00
FE00
FE00
FE00
FE00
FE00
FE00
FE00
ENDCHAR
STARTCHAR 00EE
ENCODING 238
SWIDTH 292 0
DWIDTH 13 0
BBX 17 33 -2 0
BITMAP
0FF800
1FFC00
3FFC00
3FFE00
7FFF00
FE3F80
781F00
300600
000000
000000
000000
07F000
07F000
07F000
07F000
07F000
07F000
07F000
07F000
07F000
07F000
07F000
07F000
07F000
07F000
07F000
07F000
07F000
07F000
07F000
07F000
07F000
07F000
ENDCHAR
STARTCHAR 00EF
ENCODING 239
SWIDTH 292 0
DWIDTH 13 0
BBX 17 32 -2 0
BITMAP
380E00
FC1F00
FE3F80
FE3F80
FE3F80
FC3F00
781E00
000000
000000
000000
07F000
07F000
07F000
07F000
07F000
07F000
07F000
07F000
07F000
07F000
07F000
07F000
07F000
07F000
07F000
07F000
07F000
07F000
07F000
07F000
07F000
07F000
ENDCHAR
STARTCHAR 00F0
ENCODING 240
SWIDTH 562 0
DWIDTH 25 0
BBX 21 33 2 1
BITMAP
070060
0FC1E0
0FE7F0
1FFFF0
0FFFC0
07FF00
07FF00
1FFF80
7FFFC0
3F3FC0
3C1FE0
100FE0
03EFF0
0FFFF0
1FFFF0
3FFFF8
7FFFF8
7FFFF8
FF07F8
FE03F8
FE03F8
FE03F8
FE03F8
FE03F8
FE07F8
FF07F0
FF8FF0
7FFFE0
7FFFE0
3FFFC0
1FFF80
07FF00
01F800
ENDCHAR
STARTCHAR 00F1
ENCODING 241
SWIDTH 585 0
DWIDTH 26 0
BBX 20 32 3 0
BITMAP
07E1F0
0FF1F0
1FFFE0
1FFFE0
3FFFE0
3E3FC0
3E1F80
000000
000000
000000
FC1F00
FC7FC0
FDFFE0
FFFFE0
FFFFF0
FFFFF0
FFFFF0
FF0FF0
FE07F0
FE07F0
FE07F0
FE07F0
FE07F0
FE07F0
FE07F0
FE07F0
FE07F0
FE07F0
FE07F0
FE07F0
FE07F0
FE07F0
ENDCHAR
STARTCHAR 00F2
ENCODING 242
SWIDTH 562 0
DWIDTH 25 0
BBX 22 36 1 1
BITMAP
030000
078000
0FC000
1FE000
3FF000
1FF800
07F800
03FC00
01F800
00F000
002000
000000
000000
000000
00FE00
03FF80
0FFFE0
1FFFF0
1FFFF0
3FFFF8
7FC7FC
7F83FC
7F83FC
7F01FC
FF01FC
FF01FC
7F01FC
7F83FC
7F83FC
7FC7FC
3FFFF8
3FFFF0
1FFFF0
0FFFE0
03FF80
00FE00
ENDCHAR
STARTCHAR 00F3
ENCODING 243
SWIDTH 562 0
DWIDTH 25 0
BBX 22 37 1 0
BITMAP
000100
000180
0003C0
0007E0
000FF0
001FF8
003FE0
003FC0
007F80
007F00
003E00
001800
000000
000000
000000
00FE00
03FF80
0FFFE0
1FFFF0
1FFFF0
3FFFF8
7FC7FC
7F83FC
7F83FC
7F01FC
FF01FC
FF01FC
7F01FC
7F83FC
7F83FC
7FC7FC
3FFFF8
3FFFF0
1FFFF0
0FFFE0
03FF80
00FE00
ENDCHAR
STARTCHAR 00F4
ENCODING 244
SWIDTH 562 0
DWIDTH 25 0
BBX 22 33 1 0
BITMAP
01FE00
01FF00
03FF80
07FFC0
0FFFE0
1FEFF0
1F83F0
0F01E0
040040
000000
000000
00FE00
03FF80
0FFFE0
1FFFF0
1FFFF0
3FFFF8
7FC7FC
7F83FC
7F83FC
7F01FC
FF01FC
FF01FC
7F01FC
7F83FC
7F83FC
7FC7FC
3FFFF8
3FFFF0
1FFFF0
0FFFE0
03FF80
00FE00
ENDCHAR
STARTCHAR 00F5
ENCODING 245
SWIDTH 562 0
DWIDTH 25 0
BBX 22 32 1 0
BITMAP
03E1F0
0FF9F0
0FFFF0
1FFFF0
1FFFE0
1F3FE0
1F0F80
000000
000000
000000
00FE00
03FF80
0FFFE0
1FFFF0
1FFFF0
3FFFF8
7FC7FC
7F83FC
7F83FC
7F01FC
FF01FC
FF01FC
7F01FC
7F83FC
7F83FC
7FC7FC
3FFFF8
3FFFF0
1FFFF0
0FFFE0
03FF80
00FE00
ENDCHAR
STARTCHAR 00F6
ENCODING 246
SWIDTH 562 0
DWIDTH 25 0
BBX 22 31 1 0
BITMAP
0F03E0
1F83F0
1FC7F0
1FC7F0
1FC7F0
1F83E0
0F01C0
000000
000000
00FE00
03FF80
0FFFE0
1FFFF0
1FFFF0
3FFFF8
7FC7FC
7F83FC
7F83FC
7F01FC
FF01FC
FF01FC
7F01FC
7F83FC
7F83FC
7FC7FC
3FFFF8
3FFFF0
1FFFF0
0FFFE0
03FF80
00FE00
ENDCHAR
STARTCHAR 00F7
ENCODING 247
SWIDTH 540 0
DWIDTH 24 0
BBX 20 23 2 3
BITMAP
01F800
03FC00
03FC00
03FC00
03FC00
01F800
00F000
000000
000000
FFFFF0
FFFFF0
FFFFF0
FFFFF0
FFFFF0
000000
000000
01F800
03FC00
03FC00
03FC00
03FC00
01F800
00F000
ENDCHAR
STARTCHAR 00F8
ENCODING 248
SWIDTH 562 0
DWIDTH 25 0
BBX 22 22 1 0
BITMAP
00FE38
03FFFC
0FFFF8
1FFFF0
1FFFF0
3FFFF8
7F87FC
7F8FFC
7F1FFC
7F1FFC
FF3DFC
FF79FC
7FF1FC
7FE1FC
7FC3FC
7FC7FC
3FFFF8
1FFFF0
1FFFF0
3FFFE0
7BFF80
38FE00
ENDCHAR
STARTCHAR 00F9
ENCODING 249
SWIDTH 585 0
DWIDTH 26 0
BBX 21 37 2 0
BITMAP
020000
070000
0F8000
1FC000
3FE000
3FF000
0FF000
07F800
03F800
01F000
00E000
000000
000000
000000
000000
FF07F8
FF07F8
FF07F8
FF07F8
FF07F8
FF07F8
FF07F8
FF07F8
FF07F8
FF07F8
FF07F8
FF07F8
FF07F8
FF07F8
FF07F8
7FFFF8
7FFFF8
7FFFF8
7FFFF8
3FFBF8
1FF1F8
07C1F8
ENDCHAR
STARTCHAR 00FA
ENCODING 250
SWIDTH 585 0
DWIDTH 26 0
BBX 21 37 2 0
BITMAP
000300
000380
0007C0
000FE0
001FF0
003FE0
007FC0
007F80
00FF00
007E00
003800
001000
000000
000000
000000
FF07F8
FF07F8
FF07F8
FF07F8
FF07F8
FF07F8
FF07F8
FF07F8
FF07F8
FF07F8
FF07F8
FF07F8
FF07F8
FF07F8
FF07F8
7FFFF8
7FFFF8
7FFFF8
7FFFF8
3FFBF8
1FF1F8
07C1F8
ENDCHAR
STARTCHAR 00FB
ENCODING 251
SWIDTH 585 0
DWIDTH 26 0
BBX 21 33 2 0
BITMAP
01FE00
03FF00
07FF80
0FFFC0
1FFFE0
3F8FE0
1F03E0
0C01C0
000000
000000
000000
FF07F8
FF07F8
FF07F8
FF07F8
FF07F8
FF07F8
FF07F8
FF07F8
FF07F8
FF07F8
FF07F8
FF07F8
FF07F8
FF07F8
FF07F8
7FFFF8
7FFFF8
7FFFF8
7FFFF8
3FFBF8
1FF1F8
07C1F8
ENDCHAR
STARTCHAR 00FC
ENCODING 252
SWIDTH 585 0
DWIDTH 26 0
BBX 21 32 2 0
BITMAP
0F03C0
1F87E0
3F87E0
3F8FF0
3F87E0
1F87E0
0F03C0
000000
000000
000000
FF07F8
FF07F8
FF07F8
FF07F8
FF07F8
FF07F8
FF07F8
FF07F8
FF07F8
FF07F8
FF07F8
FF07F8
FF07F8
FF07F8
FF07F8
7FFFF8
7FFFF8
7FFFF8
7FFFF8
3FFBF8
1FF1F8
07C1F8
ENDCHAR
STARTCHAR 00FD
ENCODING 253
SWIDTH 540 0
DWIDTH 24 0
BBX 22 45 1 -8
BITMAP
000100
000380
0007C0
000FE0
001FF0
001FF0
003FE0
007F80
007F00
003E00
001C00
000800
000000
000000
000000
FE01FC
FF01FC
7F01FC
7F03F8
7F83F8
3F83F8
3F83F0
1FC7F0
1FC7F0
1FC7E0
0FC7E0
0FEFE0
07EFC0
07EFC0
07EF80
03FF80
03FF80
01FF00
01FF00
01FF00
00FE00
00FE00
01FE00
01FC00
1FFC00
3FF800
3FF000
3FF000
3FC000
3F0000
ENDCHAR
STARTCHAR 00FE
ENCODING 254
SWIDTH 585 0
DWIDTH 26 0
BBX 21 40 3 -8
BITMAP
FE0000
FE0000
FE0000
FE0000
FE0000
FE0000
FE0000
FE0000
FE0000
FE0000
FE7E00
FEFF80
FFFFC0
FFFFE0
FFFFF0
FFFFF0
FF8FF8
FE07F8
FE07F8
FE07F8
FE07F8
FE07F8
FE07F8
FE07F8
FE07F8
FF1FF0
FFFFF0
FFFFF0
FFFFE0
FFFFC0
FFFF80
FE7E00
FE0000
FE0000
FE0000
FE0000
FE0000
FE0000
FE0000
FE0000
ENDCHAR
STARTCHAR 00FF
ENCODING 255
SWIDTH 540 0
DWIDTH 24 0
BBX 22 40 1 -8
BITMAP
0F01C0
1F87E0
1FC7F0
1FC7F0
1FC7F0
1F87E0
0F03C0
000000
000000
000000
FE01FC
FF01FC
7F01FC
7F03F8
7F83F8
3F83F8
3F83F0
1FC7F0
1FC7F0
1FC7E0
0FC7E0
0FEFE0
07EFC0
07EFC0
07EF80
03FF80
03FF80
01FF00
01FF00
01FF00
00FE00
00FE00
01FE00
01FC00
1FFC00
3FF800
3FF000
3FF000
3FC000
3F0000
ENDCHAR
STARTCHAR 0100
ENCODING 256
SWIDTH 585 0
DWIDTH 26 0
BBX 26 37 0 0
BITMAP
03FFF000
03FFF000
03FFF000
03FFF000
03FFF000
00000000
00000000
00000000
00FFC000
00FFC000
00FFC000
01FFE000
01FFE000
01FFE000
03FFF000
03F7F000
03F3F000
07F3F000
07F3F800
07F3F800
07E3F800
0FE1FC00
0FE1FC00
0FE1FC00
1FC1FE00
1FFFFE00
1FFFFE00
3FFFFF00
3FFFFF00
3FFFFF00
3FFFFF00
7F807F80
7F007F80
7F007F80
FF003FC0
FF003FC0
FE003FC0
ENDCHAR
STARTCHAR 0101
ENCODING 257
SWIDTH 540 0
DWIDTH 24 0
BBX 19 32 2 0
BITMAP
0FFF80
0FFF80
0FFF80
0FFF80
0FFF80
000000
000000
000000
000000
000000
03FC00
1FFF00
7FFF80
7FFFC0
7FFFC0
3FFFE0
3C1FE0
100FE0
003FE0
07FFE0
1FFFE0
3FFFE0
7FCFE0
FF0FE0
FE0FE0
FE1FE0
FFFFE0
FFFFE0
FFFFE0
7FFFE0
3FE7E0
0F87E0
ENDCHAR
STARTCHAR 0102
ENCODING 258
SWIDTH 585 0
DWIDTH 26 0
BBX 26 38 0 0
BITMAP
0180E000
07C0F000
03F3F000
03FFF000
01FFE000
01FFC000
007F0000
00000000
00000000
00FFC000
00FFC000
00FFC000
01FFE000
01FFE000
01FFE000
03FFF000
03F7F000
03F3F000
07F3F000
07F3F800
07F3F800
07E3F800
0FE1FC00
0FE1FC00
0FE1FC00
1FC1FE00
1FFFFE00
1FFFFE00
3FFFFF00
3FFFFF00
3FFFFF00
3FFFFF00
7F807F80
7F007F80
7F007F80
FF003FC0
FF003FC0
FE003FC0
ENDCHAR
STARTCHAR 0103
ENCODING 259
SWIDTH 540 0
DWIDTH 24 0
BBX 19 33 2 0
BITMAP
060300
1E03C0
1F07C0
1FFFC0
0FFF80
0FFF80
07FF00
01FC00
000000
000000
000000
03FC00
1FFF00
7FFF80
7FFFC0
7FFFC0
3FFFE0
3C1FE0
100FE0
003FE0
07FFE0
1FFFE0
3FFFE0
7FCFE0
FF0FE0
FE0FE0
FE1FE0
FFFFE0
FFFFE0
FFFFE0
7FFFE0
3FE7E0
0F87E0
ENDCHAR
STARTCHAR 0104
ENCODING 260
SWIDTH 585 0
DWIDTH 26 0
BBX 27 39 0 -10
BITMAP
00FFC000
00FFC000
00FFC000
01FFE000
01FFE000
01FFE000
03FFF000
03F7F000
03F3F000
07F3F000
07F3F800
07F3F800
07E3F800
0FE1FC00
0FE1FC00
0FE1FC00
1FC1FE00
1FFFFE00
1FFFFE00
3FFFFF00
3FFFFF00
3FFFFF00
3FFFFF00
7F807F80
7F007F80
7F007F80
FF003FC0
FF003FC0
FE003FC0
00000F00
00001E00
00003C00
00007C00
00007E00
00007FC0
00007FC0
00007FE0
00003FE0
00001F80
ENDCHAR
STARTCHAR 0105
ENCODING 261
SWIDTH 540 0
DWIDTH 24 0
BBX 20 31 2 -10
BITMAP
03FC00
1FFF00
7FFF80
7FFFC0
7FFFC0
3FFFE0
3C1FE0
100FE0
003FE0
07FFE0
1FFFE0
3FFFE0
7FCFE0
FF0FE0
FE0FE0
FE1FE0
FFFFE0
FFFFE0
FFFFE0
7FFFE0
3FE7E0
0F87E0
0007C0
000F00
001F00
001F00
001F00
003FE0
001FF0
001FF0
000FE0
ENDCHAR
STARTCHAR 0106
ENCODING 262
SWIDTH 585 0
DWIDTH 26 0
BBX 23 40 2 0
BITMAP
000040
0000E0
0001F0
0003F0
000FF8
001FF8
003FF0
003FC0
001F00
000E00
000000
003F80
00FFF0
03FFF8
07FFFE
0FFFFC
1FFFF8
3FFFF8
3FE070
7FC000
7F8000
7F8000
FF0000
FF0000
FF0000
FF0000
FF0000
FF0000
FF0000
FF0000
7F8000
7FC010
7FE070
3FFFF8
3FFFFC
1FFFFE
0FFFFE
07FFF8
01FFF0
003F80
ENDCHAR
STARTCHAR 0107
ENCODING 263
SWIDTH 472 0
DWIDTH 21 0
BBX 21 37 1 0
BITMAP
000080
0001C0
0003E0
0003F0
0007F8
000FF8
001FF0
003FE0
007FC0
003F00
001E00
000C00
000000
000000
000000
007F00
03FFC0
07FFE0
0FFFC0
1FFF80
3FFF00
7FE300
7F8000
7F8000
7F0000
FF0000
FF0000
7F0000
7F8000
7F8000
7FE380
3FFF80
3FFFC0
1FFFC0
0FFFE0
03FF80
00FE00
ENDCHAR
STARTCHAR 0108
ENCODING 264
SWIDTH 585 0
DWIDTH 26 0
BBX 23 36 2 0
BITMAP
007FC0
00FFE0
01FFF0
03FBF8
03E0F8
01C060
000000
003F80
00FFF0
03FFF8
07FFFE
0FFFFC
1FFFF8
3FFFF8
3FE070
7FC000
7F8000
7F8000
FF0000
FF0000
FF0000
FF0000
FF0000
FF0000
FF0000
FF0000
7F8000
7FC010
7FE070
3FFFF8
3FFFFC
1FFFFE
0FFFFE
07FFF8
01FFF0
003F80
ENDCHAR
STARTCHAR 0109
ENCODING 265
SWIDTH 472 0
DWIDTH 21 0
BBX 20 33 1 0
BITMAP
00FF00
01FF80
03FFC0
03FFE0
07FFE0
0FE7F0
0FC3F0
0700E0
020040
000000
000000
007F00
03FFC0
07FFE0
0FFFC0
1FFF80
3FFF00
7FE300
7F8000
7F8000
7F0000
FF0000
FF0000
7F0000
7F8000
7F8000
7FE380
3FFF80
3FFFC0
1FFFC0
0FFFE0
03FF80
00FE00
ENDCHAR
STARTCHAR 010A
ENCODING 266
SWIDTH 585 0
DWIDTH 26 0
BBX 23 38 2 0
BITMAP
001F00
003F80
007FC0
007FC0
007FC0
003F80
003F80
000C00
000000
003F80
00FFF0
03FFF8
07FFFE
0FFFFC
1FFFF8
3FFFF8
3FE070
7FC000
7F8000
7F8000
FF0000
FF0000
FF0000
FF0000
FF0000
FF0000
FF0000
FF0000
7F8000
7FC010
7FE070
3FFFF8
3FFFFC
1FFFFE
0FFFFE
07FFF8
01FFF0
003F80
ENDCHAR
STARTCHAR 010B
ENCODING 267
SWIDTH 472 0
DWIDTH 21 0
BBX 19 32 1 0
BITMAP
003C00
007E00
00FF00
00FF00
00FF00
00FF00
007E00
001800
000000
000000
007F00
03FFC0
07FFE0
0FFFC0
1FFF80
3FFF00
7FE300
7F8000
7F8000
7F0000
FF0000
FF0000
7F0000
7F8000
7F8000
7FE380
3FFF80
3FFFC0
1FFFC0
0FFFE0
03FF80
00FE00
ENDCHAR
STARTCHAR 010C
ENCODING 268
SWIDTH 585 0
DWIDTH 26 0
BBX 23 37 2 1
BITMAP
01C070
03E1F8
03FBF8
01FFF0
00FFE0
007FC0
000000
000000
003F80
00FFF0
03FFF8
07FFFE
0FFFFC
1FFFF8
3FFFF8
3FE070
7FC000
7F8000
7F8000
FF0000
FF0000
FF0000
FF0000
FF0000
FF0000
FF0000
FF0000
7F8000
7FC010
7FE070
3FFFF8
3FFFFC
1FFFFE
0FFFFE
07FFF8
01FFF0
003F80
ENDCHAR
STARTCHAR 010D
ENCODING 269
SWIDTH 472 0
DWIDTH 21 0
BBX 20 35 1 0
BITMAP
020000
070060
0F81F0
0FE3F0
07FFF0
07FFE0
03FFC0
01FF80
00FF00
000000
000000
000000
000000
007F00
03FFC0
07FFE0
0FFFC0
1FFF80
3FFF00
7FE300
7F8000
7F8000
7F0000
FF0000
FF0000
7F0000
7F8000
7F8000
7FE380
3FFF80
3FFFC0
1FFFC0
0FFFE0
03FF80
00FE00
ENDCHAR
STARTCHAR 010E
ENCODING 270
SWIDTH 652 0
DWIDTH 29 0
BBX 24 38 3 0
BITMAP
020100
0F03C0
0FC7E0
0FEFC0
07FF80
03FF80
01FF00
000000
000000
FFFC00
FFFF80
FFFFC0
FFFFF0
FFFFF8
FFFFF8
FF1FFC
FF07FC
FF03FE
FF01FE
FF01FE
FF00FE
FF00FF
FF00FF
FF00FF
FF00FF
FF00FE
FF01FE
FF01FE
FF01FE
FF03FE
FF07FC
FF1FFC
FFFFF8
FFFFF0
FFFFF0
FFFFC0
FFFF80
FFFC00
ENDCHAR
STARTCHAR 010F
ENCODING 271
SWIDTH 630 0
DWIDTH 28 0
BBX 27 35 2 0
BITMAP
000001E0
000001E0
000001E0
0003F9E0
0003F9E0
0003F9E0
0003F9E0
0003F9C0
0003F9C0
0003F9C0
0003F800
0003F800
0003F800
03E3F800
0FFBF800
1FFFF800
3FFFF800
7FFFF800
7FFFF800
FF8FF800
FF03F800
FF03F800
FF03F800
FE03F800
FE03F800
FF03F800
FF03F800
FF07F800
FF8FF800
7FFFF800
7FFFF800
3FFFF800
3FFFF800
0FF9F800
03E1F800
ENDCHAR
STARTCHAR 0110
ENCODING 272
SWIDTH 675 0
DWIDTH 30 0
BBX 27 29 1 0
BITMAP
1FFF8000
1FFFF000
1FFFFC00
1FFFFE00
1FFFFF00
1FFFFF80
1FE3FF80
1FE0FFC0
1FE07FC0
1FE03FC0
1FE03FC0
1FE01FE0
1FFF1FE0
FFFF1FE0
FFFF1FE0
FFFF1FE0
1FE01FE0
1FE01FE0
1FE03FC0
1FE03FC0
1FE07FC0
1FE0FF80
1FE3FF80
1FFFFF00
1FFFFF00
1FFFFE00
1FFFF800
1FFFF000
1FFF8000
ENDCHAR
STARTCHAR 0111
ENCODING 273
SWIDTH 585 0
DWIDTH 26 0
BBX 24 32 2 0
BITMAP
0003F8
0003F8
0003F8
01FFFF
01FFFF
01FFFF
0003F8
0003F8
0003F8
0003F8
0003F8
07F3F8
0FFBF8
1FFFF8
3FFFF8
7FFFF8
7FFFF8
FF87F8
FF03F8
FF03F8
FE03F8
FE03F8
FF03F8
FF03F8
FF07F8
FF8FF8
7FFFF8
7FFFF8
3FFFF8
3FFFF8
0FFBF8
03E1F8
ENDCHAR
STARTCHAR 0112
ENCODING 274
SWIDTH 562 0
DWIDTH 25 0
BBX 19 37 3 0
BITMAP
1FFF80
1FFF80
1FFF80
1FFF80
1FFF80
000000
000000
000000
FFFFE0
FFFFE0
FFFFE0
FFFFE0
FFFFE0
FFFFE0
FF0000
FF0000
FF0000
FF0000
FF0000
FFFF80
FFFF80
FFFF80
FFFF80
FFFF80
FFFF80
FF0000
FF0000
FF0000
FF0000
FF0000
FF0000
FFFFE0
FFFFE0
FFFFE0
FFFFE0
FFFFE0
FFFFE0
ENDCHAR
STARTCHAR 0113
ENCODING 275
SWIDTH 517 0
DWIDTH 23 0
BBX 21 32 1 0
BITMAP
0FFFC0
0FFFC0
0FFFC0
0FFFC0
0FFFC0
000000
000000
000000
000000
000000
00FE00
03FF80
0FFFC0
1FFFE0
3FFFE0
3FFFF0
7F83F0
7F03F8
7FFFF8
7FFFF8
FFFFF8
FFFFF8
7FFFF8
7F0000
7F8000
7FC0C0
3FFFC0
3FFFE0
1FFFE0
0FFFF0
03FFC0
00FE00
ENDCHAR
STARTCHAR 0114
ENCODING 276
SWIDTH 562 0
DWIDTH 25 0
BBX 19 38 3 0
BITMAP
0E0700
3E0780
1F9F80
1FFF80
0FFF00
07FE00
03F800
000000
000000
FFFFE0
FFFFE0
FFFFE0
FFFFE0
FFFFE0
FFFFE0
FF0000
FF0000
FF0000
FF0000
FF0000
FFFF80
FFFF80
FFFF80
FFFF80
FFFF80
FFFF80
FF0000
FF0000
FF0000
FF0000
FF0000
FF0000
FFFFE0
FFFFE0
FFFFE0
FFFFE0
FFFFE0
FFFFE0
ENDCHAR
STARTCHAR 0115
ENCODING 277
SWIDTH 517 0
DWIDTH 23 0
BBX 21 33 1 0
BITMAP
030100
1F03E0
0F87E0
0FFFC0
0FFFC0
07FF80
03FF00
00FC00
000000
000000
000000
00FE00
03FF80
0FFFC0
1FFFE0
3FFFE0
3FFFF0
7F83F0
7F03F8
7FFFF8
7FFFF8
FFFFF8
FFFFF8
7FFFF8
7F0000
7F8000
7FC0C0
3FFFC0
3FFFE0
1FFFE0
0FFFF0
03FFC0
00FE00
ENDCHAR
STARTCHAR 0116
ENCODING 278
SWIDTH 562 0
DWIDTH 25 0
BBX 19 39 3 0
BITMAP
006000
01F800
03FC00
03FC00
03FC00
03FC00
03F800
00F000
000000
000000
FFFFE0
FFFFE0
FFFFE0
FFFFE0
FFFFE0
FFFFE0
FF0000
FF0000
FF0000
FF0000
FF0000
FFFF80
FFFF80
FFFF80
FFFF80
FFFF80
FFFF80
FF0000
FF0000
FF0000
FF0000
FF0000
FF0000
FFFFE0
FFFFE0
FFFFE0
FFFFE0
FFFFE0
FFFFE0
ENDCHAR
STARTCHAR 0117
ENCODING 279
SWIDTH 517 0
DWIDTH 23 0
BBX 21 32 1 0
BITMAP
007800
00FC00
01FE00
01FE00
01FE00
01FE00
00FC00
003000
000000
000000
00FE00
03FF80
0FFFC0
1FFFE0
3FFFE0
3FFFF0
7F83F0
7F03F8
7FFFF8
7FFFF8
FFFFF8
FFFFF8
7FFFF8
7F0000
7F8000
7FC0C0
3FFFC0
3FFFE0
1FFFE0
0FFFF0
03FFC0
00FE00
ENDCHAR
STARTCHAR 0118
ENCODING 280
SWIDTH 562 0
DWIDTH 25 0
BBX 20 39 3 -10
BITMAP
FFFFE0
FFFFE0
FFFFE0
FFFFE0
FFFFE0
FFFFE0
FF0000
FF0000
FF0000
FF0000
FF0000
FFFF80
FFFF80
FFFF80
FFFF80
FFFF80
FFFF80
FF0000
FF0000
FF0000
FF0000
FF0000
FF0000
FFFFE0
FFFFE0
FFFFE0
FFFFE0
FFFFE0
FFFFE0
000780
000F00
001F00
003E00
003F00
003FE0
003FE0
003FF0
001FF0
0007C0
ENDCHAR
STARTCHAR 0119
ENCODING 281
SWIDTH 517 0
DWIDTH 23 0
BBX 21 31 1 -10
BITMAP
00FE00
03FF80
0FFFC0
1FFFE0
3FFFE0
3FFFF0
7F83F0
7F03F8
7FFFF8
7FFFF8
FFFFF8
FFFFF8
7FFFF8
7F0000
7F8000
7FC0C0
3FFFC0
3FFFE0
1FFFE0
0FFFF0
03FFC0
00FF80
000F00
001F00
001E00
001E00
003F20
003FE0
003FE0
001FF0
000FE0
ENDCHAR
STARTCHAR 011A
ENCODING 282
SWIDTH 562 0
DWIDTH 25 0
BBX 19 38 3 0
BITMAP
040200
1E0780
3F0FC0
1FFF80
0FFF00
07FE00
07FC00
000000
000000
FFFFE0
FFFFE0
FFFFE0
FFFFE0
FFFFE0
FFFFE0
FF0000
FF0000
FF0000
FF0000
FF0000
FFFF80
FFFF80
FFFF80
FFFF80
FFFF80
FFFF80
FF0000
FF0000
FF0000
FF0000
FF0000
FF0000
FFFFE0
FFFFE0
FFFFE0
FFFFE0
FFFFE0
FFFFE0
ENDCHAR
STARTCHAR 011B
ENCODING 283
SWIDTH 517 0
DWIDTH 23 0
BBX 21 35 1 0
BITMAP
040000
0E00C0
1F03E0
1FC7E0
0FFFE0
0FFFC0
07FF80
03FF00
01FE00
000000
000000
000000
000000
00FE00
03FF80
0FFFC0
1FFFE0
3FFFE0
3FFFF0
7F83F0
7F03F8
7FFFF8
7FFFF8
FFFFF8
FFFFF8
7FFFF8
7F0000
7F8000
7FC0C0
3FFFC0
3FFFE0
1FFFE0
0FFFF0
03FFC0
00FE00
ENDCHAR
STARTCHAR 011C
ENCODING 284
SWIDTH 652 0
DWIDTH 29 0
BBX 24 36 2 0
BITMAP
003FE0
007FF0
00FFF8
01FDFC
01F07C
00E038
000000
001FC0
00FFF8
03FFFC
07FFFE
0FFFFE
1FFFFC
3FFFF8
3FE038
7FC000
7F8000
FF8000
FF0000
FF07FF
FF07FF
FF07FF
FF07FF
FF07FF
FF07FF
FF803F
7F803F
7FC03F
7FE03F
3FFFFF
1FFFFF
1FFFFF
0FFFFF
03FFFE
01FFF8
003FC0
ENDCHAR
STARTCHAR 011D
ENCODING 285
SWIDTH 540 0
DWIDTH 24 0
BBX 23 42 1 -9
BITMAP
01FF00
03FF80
03FFC0
07FFC0
0FFFE0
1FC7F0
0F81E0
0600C0
000000
000000
000000
01FFFC
07FFFC
1FFFFC
3FFFFC
3FFFFC
7F8FFC
7F07E0
7F07E0
7F07E0
7F0FE0
3FFFE0
3FFFC0
1FFFC0
0FFF00
1FFC00
3E0000
3F0000
7FFF80
3FFFF0
3FFFF8
1FFFFC
1FFFFC
3FFFFE
7E01FE
7E01FC
FE01FC
FFFFF8
7FFFF8
7FFFE0
1FFFC0
07FC00
ENDCHAR
STARTCHAR 011E
ENCODING 286
SWIDTH 652 0
DWIDTH 29 0
BBX 24 37 2 1
BITMAP
01F03C
01F87C
00FFFC
00FFF8
007FF0
003FE0
000000
000000
001FC0
00FFF8
03FFFC
07FFFE
0FFFFE
1FFFFC
3FFFF8
3FE038
7FC000
7F8000
FF8000
FF0000
FF07FF
FF07FF
FF07FF
FF07FF
FF07FF
FF07FF
FF803F
7F803F
7FC03F
7FE03F
3FFFFF
1FFFFF
1FFFFF
0FFFFF
03FFFE
01FFF8
003FC0
ENDCHAR
STARTCHAR 011F
ENCODING 287
SWIDTH 540 0
DWIDTH 24 0
BBX 23 42 1 -9
BITMAP
0701E0
0F81E0
0FC3E0
0FFFE0
07FFC0
03FFC0
01FF00
007C00
000000
000000
000000
01FFFC
07FFFC
1FFFFC
3FFFFC
3FFFFC
7F8FFC
7F07E0
7F07E0
7F07E0
7F0FE0
3FFFE0
3FFFC0
1FFFC0
0FFF00
1FFC00
3E0000
3F0000
7FFF80
3FFFF0
3FFFF8
1FFFFC
1FFFFC
3FFFFE
7E01FE
7E01FC
FE01FC
FFFFF8
7FFFF8
7FFFE0
1FFFC0
07FC00
ENDCHAR
STARTCHAR 0120
ENCODING 288
SWIDTH 652 0
DWIDTH 29 0
BBX 24 38 2 0
BITMAP
000F80
001FC0
001FE0
003FE0
003FE0
001FC0
001FC0
000600
000000
001FC0
00FFF8
03FFFC
07FFFE
0FFFFE
1FFFFC
3FFFF8
3FE038
7FC000
7F8000
FF8000
FF0000
FF07FF
FF07FF
FF07FF
FF07FF
FF07FF
FF07FF
FF803F
7F803F
7FC03F
7FE03F
3FFFFF
1FFFFF
1FFFFF
0FFFFF
03FFFE
01FFF8
003FC0
ENDCHAR
STARTCHAR 0121
ENCODING 289
SWIDTH 540 0
DWIDTH 24 0
BBX 23 42 1 -9
BITMAP
001800
007E00
00FE00
00FF00
00FF00
00FE00
00FE00
007C00
000000
000000
000000
01FFFC
07FFFC
1FFFFC
3FFFFC
3FFFFC
7F8FFC
7F07E0
7F07E0
7F07E0
7F0FE0
3FFFE0
3FFFC0
1FFFC0
0FFF00
1FFC00
3E0000
3F0000
7FFF80
3FFFF0
3FFFF8
1FFFFC
1FFFFC
3FFFFE
7E01FE
7E01FC
FE01FC
FFFFF8
7FFFF8
7FFFE0
1FFFC0
07FC00
ENDCHAR
STARTCHAR 0122
ENCODING 290
SWIDTH 652 0
DWIDTH 29 0
BBX 24 39 2 -10
BITMAP
001FC0
00FFF8
03FFFC
07FFFE
0FFFFE
1FFFFC
3FFFF8
3FE038
7FC000
7F8000
FF8000
FF0000
FF07FF
FF07FF
FF07FF
FF07FF
FF07FF
FF07FF
FF803F
7F803F
7FC03F
7FE03F
3FFFFF
1FFFFF
1FFFFF
0FFFFF
03FFFE
01FFF8
003FC0
000000
000000
000F00
001FC0
001FE0
0007E0
0007E0
007FC0
007F80
007C00
ENDCHAR
STARTCHAR 0123
ENCODING 291
SWIDTH 540 0
DWIDTH 24 0
BBX 23 43 1 -9
BITMAP
000F00
007F80
00FF80
01FC00
01F800
01F800
01FE00
00FE00
003C00
000000
000000
000000
01FFFC
07FFFC
1FFFFC
3FFFFC
3FFFFC
7F8FFC
7F07E0
7F07E0
7F07E0
7F0FE0
3FFFE0
3FFFC0
1FFFC0
0FFF00
1FFC00
3E0000
3F0000
7FFF80
3FFFF0
3FFFF8
1FFFFC
1FFFFC
3FFFFE
7E01FE
7E01FC
FE01FC
FFFFF8
7FFFF8
7FFFE0
1FFFC0
07FC00
ENDCHAR
STARTCHAR 0124
ENCODING 292
SWIDTH 675 0
DWIDTH 30 0
BBX 24 37 3 0
BITMAP
01FF80
01FFC0
03FFC0
07E7E0
0FC3F0
0381E0
010000
000000
FF00FF
FF00FF
FF00FF
FF00FF
FF00FF
FF00FF
FF00FF
FF00FF
FF00FF
FF00FF
FF00FF
FFFFFF
FFFFFF
FFFFFF
FFFFFF
FFFFFF
FFFFFF
FFFFFF
FF00FF
FF00FF
FF00FF
FF00FF
FF00FF
FF00FF
FF00FF
FF00FF
FF00FF
FF00FF
FF00FF
ENDCHAR
STARTCHAR 0125
ENCODING 293
SWIDTH 585 0
DWIDTH 26 0
BBX 25 40 -2 0
BITMAP
0FF80000
1FFC0000
3FFE0000
7F7E0000
FC3F0000
380E0000
00000000
00000000
07F00000
07F00000
07F00000
07F00000
07F00000
07F00000
07F00000
07F00000
07F00000
07F00000
07F0F800
07F3FE00
07FFFF00
07FFFF00
07FFFF80
07FFFF80
07FFFF80
07F87F80
07F03F80
07F03F80
07F03F80
07F03F80
07F03F80
07F03F80
07F03F80
07F03F80
07F03F80
07F03F80
07F03F80
07F03F80
07F03F80
07F03F80
ENDCHAR
STARTCHAR 0126
ENCODING 294
SWIDTH 720 0
DWIDTH 32 0
BBX 30 29 1 0
BITMAP
1FE01FE0
1FE01FE0
1FE01FE0
1FE01FE0
FFFFFFFC
FFFFFFFC
FFFFFFFC
1FE01FE0
1FE01FE0
1FE01FE0
1FE01FE0
1FFFFFE0
1FFFFFE0
1FFFFFE0
1FFFFFE0
1FFFFFE0
1FFFFFE0
1FFFFFE0
1FE01FE0
1FE01FE0
1FE01FE0
1FE01FE0
1FE01FE0
1FE01FE0
1FE01FE0
1FE01FE0
1FE01FE0
1FE01FE0
1FE01FE0
ENDCHAR
STARTCHAR 0127
ENCODING 295
SWIDTH 585 0
DWIDTH 26 0
BBX 23 32 0 0
BITMAP
1FC000
1FC000
1FC000
FFFFC0
FFFFC0
FFFFC0
1FFFC0
1FC000
1FC000
1FC000
1FC000
1FC3E0
1FCFF8
1FFFFC
1FFFFC
1FFFFE
1FFFFE
1FFFFE
1FE1FE
1FC0FE
1FC0FE
1FC0FE
1FC0FE
1FC0FE
1FC0FE
1FC0FE
1FC0FE
1FC0FE
1FC0FE
1FC0FE
1FC0FE
1FC0FE
ENDCHAR
STARTCHAR 0128
ENCODING 296
SWIDTH 315 0
DWIDTH 14 0
BBX 18 38 -2 0
BITMAP
1F87C0
3FE7C0
7FFFC0
FFFFC0
FFFF80
F9FF00
F87E00
000000
000000
07F800
07F800
07F800
07F800
07F800
07F800
07F800
07F800
07F800
07F800
07F800
07F800
07F800
07F800
07F800
07F800
07F800
07F800
07F800
07F800
07F800
07F800
07F800
07F800
07F800
07F800
07F800
07F800
07F800
ENDCHAR
STARTCHAR 0129
ENCODING 297
SWIDTH 292 0
DWIDTH 13 0
BBX 17 33 -2 0
BITMAP
1F0000
7F8F80
7FEF80
FFFF80
FFFF80
FBFF00
F8FE00
007C00
000000
000000
000000
07F000
07F000
07F000
07F000
07F000
07F000
07F000
07F000
07F000
07F000
07F000
07F000
07F000
07F000
07F000
07F000
07F000
07F000
07F000
07F000
07F000
07F000
ENDCHAR
STARTCHAR 012A
ENCODING 298
SWIDTH 315 0
DWIDTH 14 0
BBX 14 37 0 0
BITMAP
FFFC
FFFC
FFFC
FFFC
FFFC
0000
0000
0000
1FE0
1FE0
1FE0
1FE0
1FE0
1FE0
1FE0
1FE0
1FE0
1FE0
1FE0
1FE0
1FE0
1FE0
1FE0
1FE0
1FE0
1FE0
1FE0
1FE0
1FE0
1FE0
1FE0
1FE0
1FE0
1FE0
1FE0
1FE0
1FE0
ENDCHAR
STARTCHAR 012B
ENCODING 299
SWIDTH 292 0
DWIDTH 13 0
BBX 13 32 0 0
BITMAP
FFF8
FFF8
FFF8
FFF8
FFF8
0000
0000
0000
0000
0000
1FC0
1FC0
1FC0
1FC0
1FC0
1FC0
1FC0
1FC0
1FC0
1FC0
1FC0
1FC0
1FC0
1FC0
1FC0
1FC0
1FC0
1FC0
1FC0
1FC0
1FC0
1FC0
ENDCHAR
STARTCHAR 012C
ENCODING 300
SWIDTH 315 0
DWIDTH 14 0
BBX 14 38 0 0
BITMAP
7038
F03C
FCFC
FFFC
7FF8
3FF0
0FC0
0000
0000
1FE0
1FE0
1FE0
1FE0
1FE0
1FE0
1FE0
1FE0
1FE0
1FE0
1FE0
1FE0
1FE0
1FE0
1FE0
1FE0
1FE0
1FE0
1FE0
1FE0
1FE0
1FE0
1FE0
1FE0
1FE0
1FE0
1FE0
1FE0
1FE0
ENDCHAR
STARTCHAR 012D
ENCODING 301
SWIDTH 292 0
DWIDTH 13 0
BBX 15 33 -1 0
BITMAP
F01C
F83E
FC7E
FFFE
7FFC
7FF8
1FF0
07C0
0000
0000
0000
0FE0
0FE0
0FE0
0FE0
0FE0
0FE0
0FE0
0FE0
0FE0
0FE0
0FE0
0FE0
0FE0
0FE0
0FE0
0FE0
0FE0
0FE0
0FE0
0FE0
0FE0
0FE0
ENDCHAR
STARTCHAR 012E
ENCODING 302
SWIDTH 315 0
DWIDTH 14 0
BBX 10 39 2 -10
BITMAP
7F80
7F80
7F80
7F80
7F80
7F80
7F80
7F80
7F80
7F80
7F80
7F80
7F80
7F80
7F80
7F80
7F80
7F80
7F80
7F80
7F80
7F80
7F80
7F80
7F80
7F80
7F80
7F80
7F80
1F00
3C00
7C00
F800
FC00
FF80
FFC0
FFC0
7FC0
1F00
ENDCHAR
STARTCHAR 012F
ENCODING 303
SWIDTH 292 0
DWIDTH 13 0
BBX 10 42 2 -10
BITMAP
0800
7F00
7F00
FF80
FF80
FF00
7F00
3E00
0000
0000
0000
7F00
7F00
7F00
7F00
7F00
7F00
7F00
7F00
7F00
7F00
7F00
7F00
7F00
7F00
7F00
7F00
7F00
7F00
7F00
7F00
7F00
7F00
3E00
7C00
7800
F800
F800
FF80
FF80
FFC0
7F80
ENDCHAR
STARTCHAR 0130
ENCODING 304
SWIDTH 315 0
DWIDTH 14 0
BBX 8 39 3 0
BITMAP
18
7E
FF
FF
FF
FF
7E
3C
00
00
FF
FF
FF
FF
FF
FF
FF
FF
FF
FF
FF
FF
FF
FF
FF
FF
FF
FF
FF
FF
FF
FF
FF
FF
FF
FF
FF
FF
FF
ENDCHAR
STARTCHAR 0131
ENCODING 305
SWIDTH 292 0
DWIDTH 13 0
BBX 7 22 3 0
BITMAP
FE
FE
FE
FE
FE
FE
FE
FE
FE
FE
FE
FE
FE
FE
FE
FE
FE
FE
FE
FE
FE
FE
ENDCHAR
STARTCHAR 0132
ENCODING 306
SWIDTH 630 0
DWIDTH 28 0
BBX 22 37 3 -8
BITMAP
FF03FC
FF03FC
FF03FC
FF03FC
FF03FC
FF03FC
FF03FC
FF03FC
FF03FC
FF03FC
FF03FC
FF03FC
FF03FC
FF03FC
FF03FC
FF03FC
FF03FC
FF03FC
FF03FC
FF03FC
FF03FC
FF03FC
FF03FC
FF03FC
FF03FC
FF03FC
FF03FC
FF03FC
FF03FC
0003FC
0003FC
003FF8
003FF8
003FF8
003FF0
007FE0
007F80
ENDCHAR
STARTCHAR 0133
ENCODING 307
SWIDTH 585 0
DWIDTH 26 0
BBX 22 41 2 -8
BITMAP
0800C0
7F03F0
7F07F8
FF87FC
FF87FC
FF07F8
7F03F8
3E01E0
000000
000000
000000
7F07F8
7F07F8
7F07F8
7F07F8
7F07F8
7F07F8
7F07F8
7F07F8
7F07F8
7F07F8
7F07F8
7F07F8
7F07F8
7F07F8
7F07F8
7F07F8
7F07F8
7F07F8
7F07F8
7F07F8
7F07F8
7F07F8
0007F8
0007F8
007FF8
007FF0
007FF0
007FE0
007FC0
007F00
ENDCHAR
STARTCHAR 0134
ENCODING 308
SWIDTH 517 0
DWIDTH 23 0
BBX 24 37 0 0
BITMAP
001FF8
001FFC
003FFC
007E7E
00FC3F
00381E
001000
000000
000FF0
000FF0
000FF0
000FF0
000FF0
000FF0
000FF0
000FF0
000FF0
000FF0
000FF0
000FF0
000FF0
000FF0
000FF0
000FF0
000FF0
000FF0
000FF0
000FF0
040FF0
1E0FF0
3FFFF0
FFFFE0
7FFFE0
3FFFC0
1FFF80
0FFF00
03FC00
ENDCHAR
STARTCHAR 0135
ENCODING 309
SWIDTH 292 0
DWIDTH 13 0
BBX 17 41 -2 -8
BITMAP
0FF800
1FFC00
1FFC00
3FFE00
7FFF00
FE3F80
7C1F00
300600
000000
000000
000000
07F000
07F000
07F000
07F000
07F000
07F000
07F000
07F000
07F000
07F000
07F000
07F000
07F000
07F000
07F000
07F000
07F000
07F000
07F000
07F000
07F000
07F000
07F000
0FF000
7FF000
FFE000
FFE000
FFC000
FF8000
FE0000
ENDCHAR
STARTCHAR 0136
ENCODING 310
SWIDTH 630 0
DWIDTH 28 0
BBX 25 40 3 -11
BITMAP
FF01FE00
FF03FE00
FF03FC00
FF07F800
FF0FF000
FF0FF000
FF1FE000
FF3FC000
FF3F8000
FF7F8000
FFFF0000
FFFE0000
FFFE0000
FFFF0000
FFFF8000
FFFF8000
FFFFC000
FFFFC000
FFDFE000
FF8FF000
FF8FF000
FF07F800
FF07F800
FF03FC00
FF03FE00
FF01FE00
FF00FF00
FF00FF00
FF007F80
00000000
00000000
00200000
007E0000
007F0000
003F0000
001F0000
003F0000
01FF0000
01FC0000
01E00000
ENDCHAR
STARTCHAR 0137
ENCODING 311
SWIDTH 562 0
DWIDTH 25 0
BBX 22 43 3 -11
BITMAP
FE0000
FE0000
FE0000
FE0000
FE0000
FE0000
FE0000
FE0000
FE0000
FE0000
FE07F8
FE0FF0
FE1FE0
FE1FE0
FE3FC0
FE7F80
FEFF00
FFFE00
FFFC00
FFFC00
FFFE00
FFFE00
FFFF00
FFFF80
FFBF80
FF3FC0
FE1FC0
FE1FE0
FE0FF0
FE0FF0
FE07F8
FE07FC
000000
000000
00C000
00FC00
01FE00
007E00
003E00
007E00
07FC00
07F800
03C000
ENDCHAR
STARTCHAR 0138
ENCODING 312
SWIDTH 562 0
DWIDTH 25 0
BBX 22 22 3 0
BITMAP
FE07F8
FE0FF0
FE1FE0
FE1FE0
FE3FC0
FE7F80
FEFF00
FEFE00
FFFC00
FFFC00
FFFE00
FFFE00
FFFF00
FFFF80
FFFF80
FF3FC0
FF1FE0
FE1FE0
FE0FF0
FE0FF0
FE07F8
FE07FC
ENDCHAR
STARTCHAR 0139
ENCODING 313
SWIDTH 540 0
DWIDTH 24 0
BBX 19 40 3 0
BITMAP
008000
03C000
07E000
0FF000
1FF000
7FE000
7F8000
3F0000
1C0000
180000
000000
FF0000
FF0000
FF0000
FF0000
FF0000
FF0000
FF0000
FF0000
FF0000
FF0000
FF0000
FF0000
FF0000
FF0000
FF0000
FF0000
FF0000
FF0000
FF0000
FF0000
FF0000
FF0000
FF0000
FFFFE0
FFFFE0
FFFFE0
FFFFE0
FFFFE0
FFFFE0
ENDCHAR
STARTCHAR 013A
ENCODING 314
SWIDTH 292 0
DWIDTH 13 0
BBX 11 43 3 1
BITMAP
0380
07C0
0FE0
1FE0
7FE0
FFC0
7F00
7E00
3800
0000
0000
FE00
FE00
FE00
FE00
FE00
FE00
FE00
FE00
FE00
FE00
FE00
FE00
FE00
FE00
FE00
FE00
FE00
FE00
FE00
FE00
FE00
FE00
FE00
FE00
FE00
FF00
FF80
FFC0
FFC0
7FC0
3FC0
1FC0
ENDCHAR
STARTCHAR 013B
ENCODING 315
SWIDTH 540 0
DWIDTH 24 0
BBX 19 40 3 -11
BITMAP
FF0000
FF0000
FF0000
FF0000
FF0000
FF0000
FF0000
FF0000
FF0000
FF0000
FF0000
FF0000
FF0000
FF0000
FF0000
FF0000
FF0000
FF0000
FF0000
FF0000
FF0000
FF0000
FF0000
FFFFE0
FFFFE0
FFFFE0
FFFFE0
FFFFE0
FFFFE0
000000
000000
008000
01F800
01FC00
00FC00
007C00
00FC00
07FC00
07F000
078000
ENDCHAR
STARTCHAR 013C
ENCODING 316
SWIDTH 292 0
DWIDTH 13 0
BBX 10 42 3 -10
BITMAP
FE00
FE00
FE00
FE00
FE00
FE00
FE00
FE00
FE00
FE00
FE00
FE00
FE00
FE00
FE00
FE00
FE00
FE00
FE00
FE00
FE00
FE00
FE00
FE00
FE00
FF00
FF80
FFC0
FFC0
7FC0
3FC0
1FC0
0000
0000
1E00
1F80
3FC0
07C0
0FC0
7FC0
7F00
7800
ENDCHAR
STARTCHAR 013D
ENCODING 317
SWIDTH 540 0
DWIDTH 24 0
BBX 19 33 3 0
BITMAP
0007C0
000780
000780
000780
FF0780
FF0780
FF0780
FF0780
FF0780
FF0700
FF0000
FF0000
FF0000
FF0000
FF0000
FF0000
FF0000
FF0000
FF0000
FF0000
FF0000
FF0000
FF0000
FF0000
FF0000
FF0000
FF0000
FFFFE0
FFFFE0
FFFFE0
FFFFE0
FFFFE0
FFFFE0
ENDCHAR
STARTCHAR 013E
ENCODING 318
SWIDTH 337 0
DWIDTH 15 0
BBX 13 35 3 0
BITMAP
0078
0078
0078
FE78
FE78
FE78
FE78
FE78
FE70
FE70
FE00
FE00
FE00
FE00
FE00
FE00
FE00
FE00
FE00
FE00
FE00
FE00
FE00
FE00
FE00
FE00
FE00
FE00
FF00
FF80
FFC0
FFC0
7FC0
3FC0
1FC0
ENDCHAR
STARTCHAR 013F
ENCODING 319
SWIDTH 540 0
DWIDTH 24 0
BBX 20 29 3 0
BITMAP
FF0000
FF0000
FF0000
FF0000
FF0000
FF0000
FF0000
FF0000
FF0000
FF0000
FF07C0
FF0FE0
FF0FF0
FF1FF0
FF1FF0
FF1FF0
FF0FF0
FF0FE0
FF03C0
FF0000
FF0000
FF0000
FF0000
FFFFE0
FFFFE0
FFFFE0
FFFFE0
FFFFE0
FFFFE0
ENDCHAR
STARTCHAR 0140
ENCODING 320
SWIDTH 495 0
DWIDTH 22 0
BBX 19 32 3 0
BITMAP
FE0000
FE0000
FE0000
FE0000
FE0000
FE0000
FE0000
FE0000
FE0000
FE0000
FE0000
FE0000
FE0F00
FE1FC0
FE3FC0
FE3FE0
FE3FE0
FE3FE0
FE3FC0
FE1FC0
FE0F80
FE0000
FE0000
FE0000
FE0000
FF0000
FF8000
FFC000
FFC000
7FC000
3FC000
1FC000
ENDCHAR
STARTCHAR 0141
ENCODING 321
SWIDTH 540 0
DWIDTH 24 0
BBX 23 29 -1 0
BITMAP
07F000
07F000
07F000
07F000
07F000
07F000
07F000
07F020
07F0F0
07F3F0
07F7F8
07FFF8
07FFF0
07FFC0
0FFF00
3FFC00
7FF800
FFF000
FFF000
7FF000
37F000
07F000
07F000
07FFFE
07FFFE
07FFFE
07FFFE
07FFFE
07FFFE
ENDCHAR
STARTCHAR 0142
ENCODING 322
SWIDTH 315 0
DWIDTH 14 0
BBX 16 32 -1 0
BITMAP
0FF0
0FF0
0FF0
0FF0
0FF0
0FF0
0FF0
0FF0
0FF0
0FF0
0FF4
0FFE
0FFE
0FFF
0FFF
3FFC
FFF0
FFF0
7FF0
7FF0
3FF0
0FF0
0FF0
0FF0
0FF0
0FF0
0FFC
07FC
07FC
07FC
03FE
00FC
ENDCHAR
STARTCHAR 0143
ENCODING 323
SWIDTH 675 0
DWIDTH 30 0
BBX 24 40 3 0
BITMAP
000180
0003C0
0007E0
000FE0
003FF0
007FE0
007F80
007F00
003C00
001000
000000
FF00FF
FF80FF
FF80FF
FFC0FF
FFC0FF
FFE0FF
FFE0FF
FFF0FF
FFF0FF
FFF8FF
FFF8FF
FFFCFF
FEFC7F
FEFE7F
FE7E7F
FE7F7F
FE3F7F
FE3F7F
FE1FFF
FE1FFF
FE0FFF
FE0FFF
FE07FF
FE07FF
FE03FF
FE03FF
FE01FF
FE01FF
FE00FF
ENDCHAR
STARTCHAR 0144
ENCODING 324
SWIDTH 585 0
DWIDTH 26 0
BBX 20 37 3 0
BITMAP
000300
000380
0007C0
000FE0
001FF0
003FE0
007FC0
007F80
007F00
003E00
001800
000000
000000
000000
000000
FC1F00
FC7FC0
FDFFE0
FFFFE0
FFFFF0
FFFFF0
FFFFF0
FF0FF0
FE07F0
FE07F0
FE07F0
FE07F0
FE07F0
FE07F0
FE07F0
FE07F0
FE07F0
FE07F0
FE07F0
FE07F0
FE07F0
FE07F0
ENDCHAR
STARTCHAR 0145
ENCODING 325
SWIDTH 675 0
DWIDTH 30 0
BBX 24 40 3 -11
BITMAP
FF00FF
FF80FF
FF80FF
FFC0FF
FFC0FF
FFE0FF
FFE0FF
FFF0FF
FFF0FF
FFF8FF
FFF8FF
FFFCFF
FEFC7F
FEFE7F
FE7E7F
FE7F7F
FE3F7F
FE3F7F
FE1FFF
FE1FFF
FE0FFF
FE0FFF
FE07FF
FE07FF
FE03FF
FE03FF
FE01FF
FE01FF
FE00FF
000000
000000
003000
003F00
007F80
001F80
000F80
001F80
01FF00
01FE00
00F000
ENDCHAR
STARTCHAR 0146
ENCODING 326
SWIDTH 585 0
DWIDTH 26 0
BBX 20 33 3 -11
BITMAP
FC1F00
FC7FC0
FDFFE0
FFFFE0
FFFFF0
FFFFF0
FFFFF0
FF0FF0
FE07F0
FE07F0
FE07F0
FE07F0
FE07F0
FE07F0
FE07F0
FE07F0
FE07F0
FE07F0
FE07F0
FE07F0
FE07F0
FE07F0
000000
000000
008000
01F800
01FC00
007E00
007E00
00FC00
07FC00
07F800
078000
ENDCHAR
STARTCHAR 0147
ENCODING 327
SWIDTH 675 0
DWIDTH 30 0
BBX 24 38 3 0
BITMAP
010080
0781E0
0FC3F0
07FFE0
03FFC0
01FF80
01FF00
000000
000000
FF00FF
FF80FF
FF80FF
FFC0FF
FFC0FF
FFE0FF
FFE0FF
FFF0FF
FFF0FF
FFF8FF
FFF8FF
FFFCFF
FEFC7F
FEFE7F
FE7E7F
FE7F7F
FE3F7F
FE3F7F
FE1FFF
FE1FFF
FE0FFF
FE0FFF
FE07FF
FE07FF
FE03FF
FE03FF
FE01FF
FE01FF
FE00FF
ENDCHAR
STARTCHAR 0148
ENCODING 328
SWIDTH 585 0
DWIDTH 26 0
BBX 20 34 3 1
BITMAP
0E01C0
1F03E0
1FCFE0
1FFFC0
0FFFC0
07FF80
03FF00
01FE00
000000
000000
000000
000000
FC1F00
FC7FC0
FDFFE0
FFFFE0
FFFFF0
FFFFF0
FFFFF0
FF0FF0
FE07F0
FE07F0
FE07F0
FE07F0
FE07F0
FE07F0
FE07F0
FE07F0
FE07F0
FE07F0
FE07F0
FE07F0
FE07F0
FE07F0
ENDCHAR
STARTCHAR 0149
ENCODING 329
SWIDTH 877 0
DWIDTH 39 0
BBX 34 32 3 0
BITMAP
3C00000000
7E00000000
7F00000000
FF00000000
FF80000000
FF80000000
7F80000000
1F80000000
0780000000
0F80000000
0F07E0FC00
0F07E3FE00
0F07F7FF00
1E07FFFF80
7C07FFFF80
7807FFFF80
7007FFFFC0
2007F83FC0
0007F83FC0
0007F83FC0
0007F83FC0
0007F83FC0
0007F83FC0
0007F83FC0
0007F83FC0
0007F83FC0
0007F83FC0
0007F83FC0
0007F83FC0
0007F83FC0
0007F83FC0
0007F83FC0
ENDCHAR
STARTCHAR 014A
ENCODING 330
SWIDTH 675 0
DWIDTH 30 0
BBX 25 29 3 0
BITMAP
000FE000
FF3FF800
FF7FFC00
FFFFFE00
FFFFFE00
FFFFFF00
FFFFFF00
FFC1FF00
FF80FF80
FF007F80
FF007F80
FF007F80
FF007F80
FF007F80
FF007F80
FF007F80
FF007F80
FF007F80
FF007F80
FF007F80
FF007F80
FF00FF00
FF07FF00
FF0FFF00
FF0FFE00
FF0FFE00
FF0FFC00
FF1FF800
000FE000
ENDCHAR
STARTCHAR 014B
ENCODING 331
SWIDTH 585 0
DWIDTH 26 0
BBX 20 30 3 -8
BITMAP
FC1F00
FC7FC0
FDFFE0
FFFFF0
FFFFF0
FFFFF0
FFFFF0
FF0FF0
FE07F0
FE07F0
FE07F0
FE07F0
FE07F0
FE07F0
FE07F0
FE07F0
FE07F0
FE07F0
FE07F0
FE07F0
FE07F0
FE07F0
0007F0
000FF0
007FF0
007FF0
00FFE0
00FFC0
00FF80
00FE00
ENDCHAR
STARTCHAR 014C
ENCODING 332
SWIDTH 697 0
DWIDTH 31 0
BBX 27 36 2 0
BITMAP
03FFF000
03FFF000
03FFF000
03FFF000
03FFF000
00000000
00000000
003F8000
01FFF000
07FFFC00
0FFFFE00
1FFFFF00
3FFFFF00
3FFFFF80
7FC0FFC0
7F807FC0
7F803FC0
FF003FC0
FF001FE0
FF001FE0
FF001FE0
FF001FE0
FF001FE0
FF001FE0
FF001FE0
FF003FC0
7F803FC0
7FC07FC0
7FE0FF80
3FFFFF80
3FFFFF00
1FFFFF00
0FFFFE00
07FFF800
01FFF000
007F8000
ENDCHAR
STARTCHAR 014D
ENCODING 333
SWIDTH 562 0
DWIDTH 25 0
BBX 22 32 1 0
BITMAP
07FFC0
07FFC0
07FFC0
07FFC0
07FFC0
000000
000000
000000
000000
000000
00FE00
03FF80
0FFFE0
1FFFF0
1FFFF0
3FFFF8
7FC7FC
7F83FC
7F83FC
7F01FC
FF01FC
FF01FC
7F01FC
7F83FC
7F83FC
7FC7FC
3FFFF8
3FFFF0
1FFFF0
0FFFE0
03FF80
00FE00
ENDCHAR
STARTCHAR 014E
ENCODING 334
SWIDTH 697 0
DWIDTH 31 0
BBX 27 37 2 1
BITMAP
03C0F800
03E1F800
03FFF000
01FFF000
00FFE000
007FC000
00000000
00000000
003F8000
01FFF000
07FFFC00
0FFFFE00
1FFFFF00
3FFFFF00
3FFFFF80
7FC0FFC0
7F807FC0
7F803FC0
FF003FC0
FF001FE0
FF001FE0
FF001FE0
FF001FE0
FF001FE0
FF001FE0
FF001FE0
FF003FC0
7F803FC0
7FC07FC0
7FE0FF80
3FFFFF80
3FFFFF00
1FFFFF00
0FFFFE00
07FFF800
01FFF000
007F8000
ENDCHAR
STARTCHAR 014F
ENCODING 335
SWIDTH 562 0
DWIDTH 25 0
BBX 22 33 1 0
BITMAP
030180
0F01E0
0F83E0
0FFFE0
07FFC0
07FFC0
03FF80
00FE00
000000
000000
000000
00FE00
03FF80
0FFFE0
1FFFF0
1FFFF0
3FFFF8
7FC7FC
7F83FC
7F83FC
7F01FC
FF01FC
FF01FC
7F01FC
7F83FC
7F83FC
7FC7FC
3FFFF8
3FFFF0
1FFFF0
0FFFE0
03FF80
00FE00
ENDCHAR
STARTCHAR 0150
ENCODING 336
SWIDTH 697 0
DWIDTH 31 0
BBX 27 39 2 0
BITMAP
00180C00
003E1E00
003F3F80
007E3F00
00FC7E00
00F87C00
01F8F800
00F07000
00201000
00000000
003F8000
01FFF000
07FFFC00
0FFFFE00
1FFFFF00
3FFFFF00
3FFFFF80
7FC0FFC0
7F807FC0
7F803FC0
FF003FC0
FF001FE0
FF001FE0
FF001FE0
FF001FE0
FF001FE0
FF001FE0
FF001FE0
FF003FC0
7F803FC0
7FC07FC0
7FE0FF80
3FFFFF80
3FFFFF00
1FFFFF00
0FFFFE00
07FFF800
01FFF000
007F8000
ENDCHAR
STARTCHAR 0151
ENCODING 337
SWIDTH 562 0
DWIDTH 25 0
BBX 22 34 1 0
BITMAP
006060
00F878
00FCFC
01F8FC
01F1F8
03F1F0
03E3F0
07E3E0
03C1C0
000040
000000
000000
00FE00
03FF80
0FFFE0
1FFFF0
1FFFF0
3FFFF8
7FC7FC
7F83FC
7F83FC
7F01FC
FF01FC
FF01FC
7F01FC
7F83FC
7F83FC
7FC7FC
3FFFF8
3FFFF0
1FFFF0
0FFFE0
03FF80
00FE00
ENDCHAR
STARTCHAR 0152
ENCODING 338
SWIDTH 877 0
DWIDTH 39 0
BBX 35 29 2 0
BITMAP
003FFFFFC0
01FFFFFFC0
03FFFFFFC0
0FFFFFFFC0
1FFFFFFFC0
3FFFFFFFC0
3FF0FF0000
7FC0FF0000
7F80FF0000
7F80FF0000
FF00FF0000
FF00FFFF80
FF00FFFF80
FF00FFFF80
FF00FFFF80
FF00FFFF80
FF00FFFF80
FF00FF0000
FF00FF0000
7F80FF0000
7F80FF0000
7FC0FF0000
3FF0FF0000
3FFFFFFFE0
1FFFFFFFE0
0FFFFFFFE0
07FFFFFFE0
01FFFFFFE0
003FFFFFE0
ENDCHAR
STARTCHAR 0153
ENCODING 339
SWIDTH 810 0
DWIDTH 36 0
BBX 34 22 1 0
BITMAP
00FC03F000
03FF0FFC00
0FFF9FFE00
1FFFFFFF00
3FFFFFFF00
3FFFFFFF80
7FCFFC3F80
7F87FC1F80
7F03F81FC0
7F03FFFFC0
FF03FFFFC0
FF03FFFFC0
FF03FFFFC0
7F03FFFF80
7F87FC0000
7FC7FE0600
3FFFFFFE00
3FFFFFFF00
1FFFFFFF00
0FFF9FFF80
07FF0FFE00
00FC03F000
ENDCHAR
STARTCHAR 0154
ENCODING 340
SWIDTH 630 0
DWIDTH 28 0
BBX 24 40 3 0
BITMAP
000300
000780
000FC0
001FC0
007FE0
00FFC0
00FF00
00FE00
007800
002000
000000
FFFF00
FFFFE0
FFFFF0
FFFFF8
FFFFFC
FFFFFC
FF07FC
FF01FE
FF01FE
FF01FE
FF01FE
FF01FC
FF07FC
FFFFFC
FFFFF8
FFFFF8
FFFFF0
FFFFC0
FFFFE0
FF1FE0
FF1FF0
FF0FF0
FF0FF8
FF07F8
FF07FC
FF03FC
FF03FE
FF01FE
FF01FF
ENDCHAR
STARTCHAR 0155
ENCODING 341
SWIDTH 427 0
DWIDTH 19 0
BBX 18 37 3 0
BITMAP
000800
001C00
003E00
007F80
007FC0
00FF80
01FF00
03FE00
03F800
01F000
00E000
004000
000000
000000
000000
FC1E00
FC7E00
FCFE00
FDFE00
FFFE00
FFFE00
FFFC00
FF8000
FF0000
FF0000
FE0000
FE0000
FE0000
FE0000
FE0000
FE0000
FE0000
FE0000
FE0000
FE0000
FE0000
FE0000
ENDCHAR
STARTCHAR 0156
ENCODING 342
SWIDTH 630 0
DWIDTH 28 0
BBX 24 40 3 -11
BITMAP
FFFF00
FFFFE0
FFFFF0
FFFFF8
FFFFFC
FFFFFC
FF07FC
FF01FE
FF01FE
FF01FE
FF01FE
FF01FC
FF07FC
FFFFFC
FFFFF8
FFFFF8
FFFFF0
FFFFC0
FFFFE0
FF1FE0
FF1FF0
FF0FF0
FF0FF8
FF07F8
FF07FC
FF03FC
FF03FE
FF01FE
FF01FF
000000
000000
002000
007E00
007F00
003F00
001F00
003F00
01FF00
01FC00
01E000
ENDCHAR
STARTCHAR 0157
ENCODING 343
SWIDTH 427 0
DWIDTH 19 0
BBX 17 33 1 -11
BITMAP
3F0780
3F1F80
3F3F80
3F7F80
3FFF80
3FFF80
3FFF00
3FE000
3FC000
3FC000
3F8000
3F8000
3F8000
3F8000
3F8000
3F8000
3F8000
3F8000
3F8000
3F8000
3F8000
3F8000
000000
000000
180000
1F0000
3FC000
0FC000
0FC000
0FC000
FF8000
FF0000
780000
ENDCHAR
STARTCHAR 0158
ENCODING 344
SWIDTH 630 0
DWIDTH 28 0
BBX 24 38 3 0
BITMAP
020100
0F03C0
1F87E0
0FFFC0
07FF80
03FF00
03FF00
000000
000000
FFFF00
FFFFE0
FFFFF0
FFFFF8
FFFFFC
FFFFFC
FF07FC
FF01FE
FF01FE
FF01FE
FF01FE
FF01FC
FF07FC
FFFFFC
FFFFF8
FFFFF8
FFFFF0
FFFFC0
FFFFE0
FF1FE0
FF1FF0
FF0FF0
FF0FF8
FF07F8
FF07FC
FF03FC
FF03FE
FF01FE
FF01FF
ENDCHAR
STARTCHAR 0159
ENCODING 345
SWIDTH 427 0
DWIDTH 19 0
BBX 17 34 3 1
BITMAP
700600
FC1F00
FE3F80
7FFF00
3FFE00
1FFC00
1FFC00
0FF800
000000
000000
000000
000000
FC1E00
FC7E00
FCFE00
FDFE00
FFFE00
FFFE00
FFFC00
FF8000
FF0000
FF0000
FE0000
FE0000
FE0000
FE0000
FE0000
FE0000
FE0000
FE0000
FE0000
FE0000
FE0000
FE0000
ENDCHAR
STARTCHAR 015A
ENCODING 346
SWIDTH 562 0
DWIDTH 25 0
BBX 22 40 2 0
BITMAP
000100
000380
000780
001FC0
003FE0
007FE0
00FF80
00FF00
007C00
003000
000000
00FE00
07FFC0
0FFFE0
1FFFF0
3FFFF0
7FFFE0
7FFFE0
7F81C0
7F0000
7F8000
7FE000
7FF800
7FFF00
3FFFC0
1FFFF0
0FFFF0
03FFF8
007FF8
000FFC
0007FC
1803FC
3E03F8
7FFFF8
7FFFF8
FFFFF0
FFFFE0
3FFFC0
1FFF80
03FC00
ENDCHAR
STARTCHAR 015B
ENCODING 347
SWIDTH 450 0
DWIDTH 20 0
BBX 19 36 1 1
BITMAP
000600
000F00
001F80
003FC0
003FE0
007FC0
00FF00
01FE00
00FC00
007800
003000
000000
000000
000000
03F800
0FFF00
1FFF80
3FFF80
7FFF80
7FFF00
7F0600
7F8000
7FE000
3FFC00
3FFF00
0FFF80
07FF80
00FFC0
003FC0
381FC0
3FFFC0
7FFF80
FFFF80
7FFF00
3FFE00
07F000
ENDCHAR
STARTCHAR 015C
ENCODING 348
SWIDTH 562 0
DWIDTH 25 0
BBX 22 36 2 0
BITMAP
03FF00
03FF80
07FFC0
0FCFC0
1F87E0
070180
000000
00FE00
07FFC0
0FFFE0
1FFFF0
3FFFF0
7FFFE0
7FFFE0
7F81C0
7F0000
7F8000
7FE000
7FF800
7FFF00
3FFFC0
1FFFF0
0FFFF0
03FFF8
007FF8
000FFC
0007FC
1803FC
3E03F8
7FFFF8
7FFFF8
FFFFF0
FFFFE0
3FFFC0
1FFF80
03FC00
ENDCHAR
STARTCHAR 015D
ENCODING 349
SWIDTH 450 0
DWIDTH 20 0
BBX 18 33 1 0
BITMAP
03FC00
07FE00
0FFE00
1FFF00
3FFF80
3F9FC0
3E0FC0
1C0780
080100
000000
000000
03F800
0FFF00
1FFF80
3FFF80
7FFF80
7FFF00
7F0600
7F8000
7FE000
3FFC00
3FFF00
0FFF80
07FF80
00FFC0
003FC0
381FC0
3FFFC0
7FFF80
FFFF80
7FFF00
3FFE00
07F000
ENDCHAR
STARTCHAR 015E
ENCODING 350
SWIDTH 562 0
DWIDTH 25 0
BBX 22 39 2 -10
BITMAP
00FE00
07FFC0
0FFFE0
1FFFF0
3FFFF0
7FFFF0
7FFFE0
7F81C0
7F0000
7F8000
7FE000
7FF800
7FFF00
3FFFC0
1FFFE0
0FFFF0
03FFF8
00FFF8
001FFC
0007FC
1003FC
1C03FC
3F8FF8
7FFFF8
FFFFF0
FFFFF0
7FFFE0
1FFF80
03FE00
00F000
01F000
01F800
03FC00
007E00
003E00
007E00
07FC00
07F800
03C000
ENDCHAR
STARTCHAR 015F
ENCODING 351
SWIDTH 450 0
DWIDTH 20 0
BBX 18 32 1 -10
BITMAP
03F800
0FFF00
1FFF80
3FFF80
3FFF80
7FFF00
7F0600
7F8000
7FE000
3FFC00
3FFE00
1FFF80
07FF80
01FFC0
003FC0
101FC0
3E3FC0
7FFF80
FFFF80
FFFF00
3FFE00
07F000
01F000
01E000
03F000
03FC00
00FC00
007C00
00FC00
0FFC00
07F000
078000
ENDCHAR
STARTCHAR 0160
ENCODING 352
SWIDTH 562 0
DWIDTH 25 0
BBX 22 38 2 0
BITMAP
020000
0703C0
1F87E0
0FCFC0
07FF80
03FF80
03FF00
000000
000000
00FE00
07FFC0
0FFFE0
1FFFF0
3FFFF0
7FFFE0
7FFFE0
7F81C0
7F0000
7F8000
7FE000
7FF800
7FFF00
3FFFC0
1FFFF0
0FFFF0
03FFF8
007FF8
000FFC
0007FC
1803FC
3E03F8
7FFFF8
7FFFF8
FFFFF0
FFFFE0
3FFFC0
1FFF80
03FC00
ENDCHAR
STARTCHAR 0161
ENCODING 353
SWIDTH 450 0
DWIDTH 20 0
BBX 18 34 1 1
BITMAP
1C0380
3E07C0
3F1FC0
3FFF80
1FFF00
0FFF00
07FE00
07FC00
000000
000000
000000
000000
03F800
0FFF00
1FFF80
3FFF80
7FFF80
7FFF00
7F0600
7F8000
7FE000
3FFC00
3FFF00
0FFF80
07FF80
00FFC0
003FC0
381FC0
3FFFC0
7FFF80
FFFF80
7FFF00
3FFE00
07F000
ENDCHAR
STARTCHAR 0162
ENCODING 354
SWIDTH 562 0
DWIDTH 25 0
BBX 23 40 1 -11
BITMAP
FFFFFE
FFFFFE
FFFFFE
FFFFFE
FFFFFE
FFFFFE
00FE00
00FE00
00FE00
00FE00
00FE00
00FE00
00FE00
00FE00
00FE00
00FE00
00FE00
00FE00
00FE00
00FE00
00FE00
00FE00
00FE00
00FE00
00FE00
00FE00
00FE00
00FE00
00FE00
007C00
007800
00F800
00FE00
00FF00
001F00
001F00
003F00
03FE00
01FC00
01E000
ENDCHAR
STARTCHAR 0163
ENCODING 355
SWIDTH 405 0
DWIDTH 18 0
BBX 16 38 1 -10
BITMAP
0FC0
0FC0
0FC0
1FC0
1FC0
1FC0
FFFE
FFFE
FFFE
FFFE
FFFE
FFFE
1FC0
1FC0
1FC0
1FC0
1FC0
1FC0
1FC0
1FC0
1FC0
1FE0
1FFE
1FFE
0FFE
0FFF
07FF
01FE
00F0
01E0
01F8
03FC
007E
007E
00FC
07FC
07F8
07C0
ENDCHAR
STARTCHAR 0164
ENCODING 356
SWIDTH 562 0
DWIDTH 25 0
BBX 23 38 1 0
BITMAP
020080
0783C0
0FC7E0
07EFC0
07FFC0
03FF80
01FF00
000000
000000
FFFFFE
FFFFFE
FFFFFE
FFFFFE
FFFFFE
FFFFFE
00FE00
00FE00
00FE00
00FE00
00FE00
00FE00
00FE00
00FE00
00FE00
00FE00
00FE00
00FE00
00FE00
00FE00
00FE00
00FE00
00FE00
00FE00
00FE00
00FE00
00FE00
00FE00
00FE00
ENDCHAR
STARTCHAR 0165
ENCODING 357
SWIDTH 405 0
DWIDTH 18 0
BBX 16 34 1 0
BITMAP
000F
000F
000F
000F
000F
000F
0FCF
0FCE
0FCE
1FCE
1FC0
1FC0
FFFE
FFFE
FFFE
FFFE
FFFE
FFFE
1FC0
1FC0
1FC0
1FC0
1FC0
1FC0
1FC0
1FC0
1FC0
1FE0
1FFE
1FFE
0FFE
0FFF
07FF
01FE
ENDCHAR
STARTCHAR 0166
ENCODING 358
SWIDTH 562 0
DWIDTH 25 0
BBX 23 29 1 0
BITMAP
FFFFFE
FFFFFE
FFFFFE
FFFFFE
FFFFFE
FFFFFE
00FE00
00FE00
00FE00
00FE00
00FE00
00FE00
00FE00
1FFFF8
1FFFF8
1FFFF8
1FFFF8
00FE00
00FE00
00FE00
00FE00
00FE00
00FE00
00FE00
00FE00
00FE00
00FE00
00FE00
00FE00
ENDCHAR
STARTCHAR 0167
ENCODING 359
SWIDTH 405 0
DWIDTH 18 0
BBX 16 28 1 0
BITMAP
0FC0
0FC0
0FC0
1FC0
1FC0
1FC0
FFFE
FFFE
FFFE
FFFE
FFFE
FFFE
1FC0
1FC0
1FFE
FFFE
FFFE
FFFE
1FC0
1FC0
1FC0
1FE0
1FFE
1FFE
0FFE
0FFF
07FF
01FE
ENDCHAR
STARTCHAR 0168
ENCODING 360
SWIDTH 675 0
DWIDTH 30 0
BBX 24 38 3 0
BITMAP
03F0F8
07FCF8
0FFFF8
1FFFF8
1FFFF0
1F3FE0
1F0FC0
000000
000000
FF00FF
FF00FF
FF00FF
FF00FF
FF00FF
FF00FF
FF00FF
FF00FF
FF00FF
FF00FF
FF00FF
FF00FF
FF00FF
FF00FF
FF00FF
FF00FF
FF00FF
FF00FF
FF00FF
FF00FE
7F80FE
7F81FE
7FFFFE
3FFFFC
3FFFFC
1FFFF8
0FFFF0
07FFE0
00FF00
ENDCHAR
STARTCHAR 0169
ENCODING 361
SWIDTH 585 0
DWIDTH 26 0
BBX 21 33 2 0
BITMAP
07C000
0FF1F0
1FFBF0
1FFFE0
3FFFE0
3F7FE0
3E3FC0
000F00
000000
000000
000000
FF07F8
FF07F8
FF07F8
FF07F8
FF07F8
FF07F8
FF07F8
FF07F8
FF07F8
FF07F8
FF07F8
FF07F8
FF07F8
FF07F8
FF07F8
7FFFF8
7FFFF8
7FFFF8
7FFFF8
3FFBF8
1FF1F8
07C1F8
ENDCHAR
STARTCHAR 016A
ENCODING 362
SWIDTH 675 0
DWIDTH 30 0
BBX 24 37 3 0
BITMAP
07FFE0
07FFE0
07FFE0
07FFE0
07FFE0
000000
000000
000000
FF00FF
FF00FF
FF00FF
FF00FF
FF00FF
FF00FF
FF00FF
FF00FF
FF00FF
FF00FF
FF00FF
FF00FF
FF00FF
FF00FF
FF00FF
FF00FF
FF00FF
FF00FF
FF00FF
FF00FE
7F80FE
7F81FE
7FFFFE
3FFFFC
3FFFFC
1FFFF8
0FFFF0
07FFE0
00FF00
ENDCHAR
STARTCHAR 016B
ENCODING 363
SWIDTH 585 0
DWIDTH 26 0
BBX 21 32 2 0
BITMAP
0FFFC0
0FFFC0
0FFFC0
0FFFC0
0FFFC0
000000
000000
000000
000000
000000
FF07F8
FF07F8
FF07F8
FF07F8
FF07F8
FF07F8
FF07F8
FF07F8
FF07F8
FF07F8
FF07F8
FF07F8
FF07F8
FF07F8
FF07F8
7FFFF8
7FFFF8
7FFFF8
7FFFF8
3FFBF8
1FF1F8
07C1F8
ENDCHAR
STARTCHAR 016C
ENCODING 364
SWIDTH 675 0
DWIDTH 30 0
BBX 24 38 3 0
BITMAP
0381C0
0F81E0
07E7E0
07FFE0
03FFC0
01FF80
007E00
000000
000000
FF00FF
FF00FF
FF00FF
FF00FF
FF00FF
FF00FF
FF00FF
FF00FF
FF00FF
FF00FF
FF00FF
FF00FF
FF00FF
FF00FF
FF00FF
FF00FF
FF00FF
FF00FF
FF00FF
FF00FE
7F80FE
7F81FE
7FFFFE
3FFFFC
3FFFFC
1FFFF8
0FFFF0
07FFE0
00FF00
ENDCHAR
STARTCHAR 016D
ENCODING 365
SWIDTH 585 0
DWIDTH 26 0
BBX 21 33 2 0
BITMAP
0F03C0
1F03E0
1F87C0
0FFFC0
0FFFC0
07FF80
03FF00
007800
000000
000000
000000
FF07F8
FF07F8
FF07F8
FF07F8
FF07F8
FF07F8
FF07F8
FF07F8
FF07F8
FF07F8
FF07F8
FF07F8
FF07F8
FF07F8
FF07F8
7FFFF8
7FFFF8
7FFFF8
7FFFF8
3FFBF8
1FF1F8
07C1F8
ENDCHAR
STARTCHAR 016E
ENCODING 366
SWIDTH 675 0
DWIDTH 30 0
BBX 24 40 3 0
BITMAP
007E00
00FF00
01FF80
01E780
01C380
01E780
01FF80
00FF00
007C00
000000
000000
FF00FF
FF00FF
FF00FF
FF00FF
FF00FF
FF00FF
FF00FF
FF00FF
FF00FF
FF00FF
FF00FF
FF00FF
FF00FF
FF00FF
FF00FF
FF00FF
FF00FF
FF00FF
FF00FF
FF00FE
7F80FE
7F81FE
7FFFFE
3FFFFC
3FFFFC
1FFFF8
0FFFF0
07FFE0
00FF00
ENDCHAR
STARTCHAR 016F
ENCODING 367
SWIDTH 585 0
DWIDTH 26 0
BBX 21 35 2 0
BITMAP
007800
03FE00
03FF00
07CF80
078F80
078780
07CF80
07FF00
03FF00
00FC00
000000
000000
000000
FF07F8
FF07F8
FF07F8
FF07F8
FF07F8
FF07F8
FF07F8
FF07F8
FF07F8
FF07F8
FF07F8
FF07F8
FF07F8
FF07F8
FF07F8
7FFFF8
7FFFF8
7FFFF8
7FFFF8
3FFBF8
1FF1F8
07C1F8
ENDCHAR
STARTCHAR 0170
ENCODING 368
SWIDTH 675 0
DWIDTH 30 0
BBX 24 40 3 0
BITMAP
002000
007038
00FC7E
00FC7E
01F8FC
01F1F8
03F1F0
07E3E0
00C0E0
000000
000000
FF00FF
FF00FF
FF00FF
FF00FF
FF00FF
FF00FF
FF00FF
FF00FF
FF00FF
FF00FF
FF00FF
FF00FF
FF00FF
FF00FF
FF00FF
FF00FF
FF00FF
FF00FF
FF00FF
FF00FE
7F80FE
7F81FE
7FFFFE
3FFFFC
3FFFFC
1FFFF8
0FFFF0
07FFE0
00FF00
ENDCHAR
STARTCHAR 0171
ENCODING 369
SWIDTH 585 0
DWIDTH 26 0
BBX 22 35 2 0
BITMAP
008040
00E0F0
01FCFC
01F9F8
03F1F8
03F3F0
07E3E0
07C7E0
07C7C0
018080
000000
000000
000000
FF07F8
FF07F8
FF07F8
FF07F8
FF07F8
FF07F8
FF07F8
FF07F8
FF07F8
FF07F8
FF07F8
FF07F8
FF07F8
FF07F8
FF07F8
7FFFF8
7FFFF8
7FFFF8
7FFFF8
3FFBF8
1FF1F8
07C1F8
ENDCHAR
STARTCHAR 0172
ENCODING 370
SWIDTH 675 0
DWIDTH 30 0
BBX 24 39 3 -10
BITMAP
FF00FF
FF00FF
FF00FF
FF00FF
FF00FF
FF00FF
FF00FF
FF00FF
FF00FF
FF00FF
FF00FF
FF00FF
FF00FF
FF00FF
FF00FF
FF00FF
FF00FF
FF00FF
FF00FF
FF00FF
7F00FE
7F81FE
7FFFFE
3FFFFC
3FFFFC
1FFFF8
0FFFF0
07FFC0
00FF80
003E00
007C00
00F800
00F800
00FC00
00FF80
00FF80
00FFC0
007FC0
001E00
ENDCHAR
STARTCHAR 0173
ENCODING 371
SWIDTH 585 0
DWIDTH 26 0
BBX 22 31 2 -10
BITMAP
FF07F8
FF07F8
FF07F8
FF07F8
FF07F8
FF07F8
FF07F8
FF07F8
FF07F8
FF07F8
FF07F8
FF07F8
FF07F8
FF07F8
FF07F8
7FFFF8
7FFFF8
7FFFF8
7FFFF8
3FFBF8
1FF1F8
07C1F8
0003F0
0003C0
000780
000F80
000FC0
000FF8
000FF8
0007FC
0003F8
ENDCHAR
STARTCHAR 0174
ENCODING 372
SWIDTH 832 0
DWIDTH 37 0
BBX 35 37 1 0
BITMAP
0007FC0000
000FFE0000
001FFF0000
003FBF0000
007E1F8000
001C0F0000
0008000000
0000000000
FE03F80FE0
FE03F80FE0
FF03F80FE0
FF03FC1FE0
FF07FC1FC0
FF07FC1FC0
7F07FC1FC0
7F07FC1FC0
7F07FE1FC0
7F0FFE1FC0
7F8FFE1F80
7F8FBE3F80
3F8FBE3F80
3F9FBF3F80
3F9FBF3F80
3F9FBF3F80
3F9F3F3F00
3F9F3F3F00
1FDF1FBF00
1FFF1FBF00
1FFF1FFF00
1FFE1FFF00
1FFE1FFE00
0FFE0FFE00
0FFE0FFE00
0FFE0FFE00
0FFC0FFE00
0FFC0FFE00
0FFC07FC00
ENDCHAR
STARTCHAR 0175
ENCODING 373
SWIDTH 787 0
DWIDTH 35 0
BBX 33 33 1 0
BITMAP
000FF80000
000FFC0000
001FFE0000
003FFF0000
007FFF0000
00FE3F8000
007C0F8000
0030070000
0000000000
0000000000
0000000000
FF03F03F80
FF07F03F80
7F07F83F80
7F07F83F80
7F07F83F00
7F8FF87F00
3F8FFC7F00
3F8FFC7F00
3F8FFC7E00
3F8F7C7E00
1FDF7E7E00
1FDF7EFE00
1FDF3EFC00
1FDF3EFC00
0FDF3EFC00
0FFE3FFC00
0FFE3FFC00
0FFE3FF800
07FE1FF800
07FE1FF800
07FC1FF800
07FC1FF000
ENDCHAR
STARTCHAR 0176
ENCODING 374
SWIDTH 540 0
DWIDTH 24 0
BBX 24 37 0 0
BITMAP
01FF80
01FFC0
03FFC0
07E7E0
0FC3F0
0381E0
010000
000000
FF00FF
FF00FF
7F80FE
7F81FE
3F81FE
3FC1FC
1FC3FC
1FC3F8
1FE3F8
0FE7F0
0FE7F0
07F7E0
07FFE0
03FFC0
03FFC0
01FFC0
01FF80
00FF80
00FF00
00FF00
00FF00
00FF00
00FF00
00FF00
00FF00
00FF00
00FF00
00FF00
00FF00
ENDCHAR
STARTCHAR 0177
ENCODING 375
SWIDTH 540 0
DWIDTH 24 0
BBX 22 41 1 -8
BITMAP
01FF00
03FF00
07FF80
0FFFC0
0FFFE0
1FC7F0
1F03E0
0600C0
000000
000000
000000
FE01FC
FF01FC
7F01FC
7F03F8
7F83F8
3F83F8
3F83F0
1FC7F0
1FC7F0
1FC7E0
0FC7E0
0FEFE0
07EFC0
07EFC0
07EF80
03FF80
03FF80
01FF00
01FF00
01FF00
00FE00
00FE00
01FE00
01FC00
1FFC00
3FF800
3FF000
3FF000
3FC000
3F0000
ENDCHAR
STARTCHAR 0178
ENCODING 376
SWIDTH 540 0
DWIDTH 24 0
BBX 24 38 0 0
BITMAP
0780E0
0FC3F0
0FC3F8
0FC3F8
0FC3F0
0FC3F0
0781E0
000000
000000
FF00FF
FF00FF
7F80FE
7F81FE
3F81FE
3FC1FC
1FC3FC
1FC3F8
1FE3F8
0FE7F0
0FE7F0
07F7E0
07FFE0
03FFC0
03FFC0
01FFC0
01FF80
00FF80
00FF00
00FF00
00FF00
00FF00
00FF00
00FF00
00FF00
00FF00
00FF00
00FF00
00FF00
ENDCHAR
STARTCHAR 0179
ENCODING 377
SWIDTH 540 0
DWIDTH 24 0
BBX 22 40 1 0
BITMAP
000180
000380
000FC0
001FE0
003FF0
007FE0
00FF80
007E00
003C00
001000
000000
3FFFFC
3FFFFC
3FFFFC
3FFFFC
3FFFFC
3FFFF8
000FF0
000FF0
001FE0
003FC0
003FC0
007F80
00FF00
00FF00
01FE00
03FE00
03FC00
07F800
0FF800
0FF000
1FE000
3FE000
3FC000
7FFFFC
FFFFFC
FFFFFC
FFFFFC
FFFFFC
FFFFFC
ENDCHAR
STARTCHAR 017A
ENCODING 378
SWIDTH 472 0
DWIDTH 21 0
BBX 18 37 2 0
BITMAP
000400
000E00
001F00
003F80
007FC0
007FC0
00FF00
01FE00
01FC00
00F800
007000
000000
000000
000000
000000
7FFFC0
7FFFC0
7FFFC0
7FFFC0
7FFF80
7FFF80
00FF00
01FE00
03FE00
03FC00
07F800
0FF000
0FF000
1FE000
3FC000
7FC000
7FFFC0
FFFFC0
FFFFC0
FFFFC0
FFFFC0
FFFFC0
ENDCHAR
STARTCHAR 017B
ENCODING 379
SWIDTH 540 0
DWIDTH 24 0
BBX 22 39 1 0
BITMAP
001800
007E00
00FF00
01FF00
01FF00
00FF00
00FE00
007C00
000000
000000
3FFFFC
3FFFFC
3FFFFC
3FFFFC
3FFFFC
3FFFF8
000FF0
000FF0
001FE0
003FC0
003FC0
007F80
00FF00
00FF00
01FE00
03FE00
03FC00
07F800
0FF800
0FF000
1FE000
3FE000
3FC000
7FFFFC
FFFFFC
FFFFFC
FFFFFC
FFFFFC
FFFFFC
ENDCHAR
STARTCHAR 017C
ENCODING 380
SWIDTH 472 0
DWIDTH 21 0
BBX 18 33 2 0
BITMAP
00C000
03F000
03F800
07F800
07F800
07F800
03F800
01E000
000000
000000
000000
7FFFC0
7FFFC0
7FFFC0
7FFFC0
7FFF80
7FFF80
00FF00
01FE00
03FE00
03FC00
07F800
0FF000
0FF000
1FE000
3FC000
7FC000
7FFFC0
FFFFC0
FFFFC0
FFFFC0
FFFFC0
FFFFC0
ENDCHAR
STARTCHAR 017D
ENCODING 381
SWIDTH 540 0
DWIDTH 24 0
BBX 22 38 1 0
BITMAP
020080
0781C0
0FC7E0
07EFC0
03FFC0
03FF80
01FF00
000000
000000
3FFFFC
3FFFFC
3FFFFC
3FFFFC
3FFFFC
3FFFF8
000FF0
000FF0
001FE0
003FC0
003FC0
007F80
00FF00
00FF00
01FE00
03FE00
03FC00
07F800
0FF800
0FF000
1FE000
3FE000
3FC000
7FFFFC
FFFFFC
FFFFFC
FFFFFC
FFFFFC
FFFFFC
ENDCHAR
STARTCHAR 017E
ENCODING 382
SWIDTH 472 0
DWIDTH 21 0
BBX 18 35 2 0
BITMAP
100000
380300
7C0F80
7F1F80
3FFF80
1FFF00
1FFE00
0FFC00
07F800
000000
000000
000000
000000
7FFFC0
7FFFC0
7FFFC0
7FFFC0
7FFF80
7FFF80
00FF00
01FE00
03FE00
03FC00
07F800
0FF000
0FF000
1FE000
3FC000
7FC000
7FFFC0
FFFFC0
FFFFC0
FFFFC0
FFFFC0
FFFFC0
ENDCHAR
STARTCHAR 0180
ENCODING 384
SWIDTH 585 0
DWIDTH 26 0
BBX 24 32 0 0
BITMAP
1FC000
1FC000
1FC000
FFFFC0
FFFFC0
FFFFC0
1FFFC0
1FC000
1FC000
1FC000
1FC000
1FCFE0
1FDFF8
1FFFFC
1FFFFE
1FFFFE
1FFFFF
1FE1FF
1FC0FF
1FC0FF
1FC0FF
1FC0FF
1FC0FF
1FC0FF
1FC1FF
1FF3FE
1FFFFE
1FFFFC
1FFFFC
1FBFF8
1F9FF0
1F87C0
ENDCHAR
STARTCHAR 018F
ENCODING 399
SWIDTH 675 0
DWIDTH 30 0
BBX 26 29 2 0
BITMAP
007F8000
03FFF000
0FFFF800
1FFFFE00
1FFFFE00
0FFFFF00
07C3FF80
07007F80
00007FC0
00003FC0
00003FC0
00001FC0
FFFFFFC0
FFFFFFC0
FFFFFFC0
FFFFFFC0
FFFFFFC0
FFFFFFC0
FF003FC0
7F003FC0
7F803F80
7F807F80
3FE1FF80
3FFFFF00
1FFFFE00
0FFFFC00
07FFF800
03FFF000
007F8000
ENDCHAR
STARTCHAR 0192
ENCODING 402
SWIDTH 540 0
DWIDTH 24 0
BBX 20 33 2 -4
BITMAP
000FF0
003FF0
007FF0
007FF0
00FFF0
00FFE0
01FE00
01FE00
01FC00
01FC00
01FC00
1FFFC0
1FFFC0
1FFFC0
1FFFC0
1FFFC0
1FFFC0
03F800
03F800
03F800
03F800
07F800
07F800
07F000
07F000
07F000
0FF000
FFF000
FFE000
FFE000
FFC000
FF8000
FE0000
ENDCHAR
STARTCHAR 0193
ENCODING 403
SWIDTH 652 0
DWIDTH 29 0
BBX 27 36 2 0
BITMAP
00000FE0
00003FE0
00007FE0
00007FC0
0000FFC0
0000FFC0
0000FE00
001FFC00
00FFFE00
03FFFE00
07FFFF00
0FFFFE00
1FFFFC00
3FFFF800
3FE01000
7FC00000
7F800000
FF800000
FF000000
FF07FF00
FF07FF00
FF07FF00
FF07FF00
FF07FF00
FF07FF00
FF803F00
7F803F00
7FC03F00
7FE03F00
3FFFFF00
1FFFFF00
1FFFFF00
0FFFFF00
03FFFE00
01FFF800
003FC000
ENDCHAR
STARTCHAR 01A0
ENCODING 416
SWIDTH 697 0
DWIDTH 31 0
BBX 28 36 2 0
BITMAP
00000020
000001F0
000007F0
000003F0
000003F0
000003F0
000003F0
003F87F0
01FFFFE0
07FFFFC0
0FFFFF00
1FFFFF00
3FFFFF00
3FFFFF80
7FC0FF80
7F807FC0
7F803FC0
FF003FC0
FF001FE0
FF001FE0
FF001FE0
FF001FE0
FF001FE0
FF001FE0
FF001FE0
FF003FC0
7F803FC0
7FC07FC0
7FE0FF80
3FFFFF80
3FFFFF00
1FFFFF00
0FFFFE00
07FFF800
01FFF000
007F8000
ENDCHAR
STARTCHAR 01A1
ENCODING 417
SWIDTH 562 0
DWIDTH 25 0
BBX 25 30 1 0
BITMAP
00000300
00000F00
00003F80
00003F80
00003F80
00003F80
00003F00
00003F00
00FE7E00
03FFFE00
0FFFF800
1FFFF000
1FFFF000
3FFFF800
7FC7FC00
7F83FC00
7F83FC00
7F01FC00
FF01FC00
FF01FC00
7F01FC00
7F83FC00
7F83FC00
7FC7FC00
3FFFF800
3FFFF000
1FFFF000
0FFFE000
03FF8000
00FE0000
ENDCHAR
STARTCHAR 01AF
ENCODING 431
SWIDTH 697 0
DWIDTH 31 0
BBX 30 37 3 0
BITMAP
00000038
000000FC
000001FC
000000FC
000000FC
000000FC
000001FC
000001F8
FF00FFF8
FF00FFE0
FF00FF80
FF00FF00
FF00FF00
FF00FF00
FF00FF00
FF00FF00
FF00FF00
FF00FF00
FF00FF00
FF00FF00
FF00FF00
FF00FF00
FF00FF00
FF00FF00
FF00FF00
FF00FF00
FF00FF00
FF00FE00
7F80FE00
7F81FE00
7FFFFE00
3FFFFC00
3FFFFC00
1FFFF800
0FFFF000
07FFE000
00FF0000
ENDCHAR
STARTCHAR 01B0
ENCODING 432
SWIDTH 585 0
DWIDTH 26 0
BBX 26 32 2 0
BITMAP
00000180
00000780
00001FC0
00001FC0
00001FC0
00001FC0
00001FC0
00001FC0
00001F80
00003F80
FF07FF00
FF07FE00
FF07F800
FF07F800
FF07F800
FF07F800
FF07F800
FF07F800
FF07F800
FF07F800
FF07F800
FF07F800
FF07F800
FF07F800
FF07F800
7FFFF800
7FFFF800
7FFFF800
7FFFF800
3FFBF800
1FF1F800
07C1F800
ENDCHAR
STARTCHAR 01C2
ENCODING 450
SWIDTH 337 0
DWIDTH 15 0
BBX 15 44 0 -11
BITMAP
07C0
07C0
07C0
07C0
07C0
07C0
07C0
07C0
07C0
07C0
07C0
07C0
07C0
07C0
07C0
FFFE
FFFE
FFFE
FFFE
07C0
07C0
07C0
07C0
07C0
FFFE
FFFE
FFFE
FFFE
07C0
07C0
07C0
07C0
07C0
07C0
07C0
07C0
07C0
07C0
07C0
07C0
07C0
07C0
07C0
07C0
ENDCHAR
STARTCHAR 01CD
ENCODING 461
SWIDTH 585 0
DWIDTH 26 0
BBX 26 38 0 0
BITMAP
00804000
03C0F000
07E3F000
03F7F000
01FFE000
01FFC000
00FF8000
00000000
00000000
00FFC000
00FFC000
00FFC000
01FFE000
01FFE000
01FFE000
03FFF000
03F7F000
03F3F000
07F3F000
07F3F800
07F3F800
07E3F800
0FE1FC00
0FE1FC00
0FE1FC00
1FC1FE00
1FFFFE00
1FFFFE00
3FFFFF00
3FFFFF00
3FFFFF00
3FFFFF00
7F807F80
7F007F80
7F007F80
FF003FC0
FF003FC0
FE003FC0
ENDCHAR
STARTCHAR 01CE
ENCODING 462
SWIDTH 540 0
DWIDTH 24 0
BBX 19 34 2 1
BITMAP
1C0180
3F07C0
3F8FE0
1FFFC0
0FFF80
07FF00
07FF00
03FE00
000000
000000
000000
000000
03FC00
1FFF00
7FFF80
7FFFC0
7FFFC0
3FFFE0
3C1FE0
100FE0
003FE0
07FFE0
1FFFE0
3FFFE0
7FCFE0
FF0FE0
FE0FE0
FE1FE0
FFFFE0
FFFFE0
FFFFE0
7FFFE0
3FE7E0
0F87E0
ENDCHAR
STARTCHAR 01CF
ENCODING 463
SWIDTH 315 0
DWIDTH 14 0
BBX 16 38 -1 0
BITMAP
1008
781E
FC3F
7FFE
3FFC
1FF8
1FF8
0000
0000
0FF0
0FF0
0FF0
0FF0
0FF0
0FF0
0FF0
0FF0
0FF0
0FF0
0FF0
0FF0
0FF0
0FF0
0FF0
0FF0
0FF0
0FF0
0FF0
0FF0
0FF0
0FF0
0FF0
0FF0
0FF0
0FF0
0FF0
0FF0
0FF0
ENDCHAR
STARTCHAR 01D0
ENCODING 464
SWIDTH 292 0
DWIDTH 13 0
BBX 17 35 -2 0
BITMAP
200000
700600
FC1F00
FE3F80
7FFF00
3FFE00
1FFC00
1FF800
0FF800
000000
000000
000000
000000
07F000
07F000
07F000
07F000
07F000
07F000
07F000
07F000
07F000
07F000
07F000
07F000
07F000
07F000
07F000
07F000
07F000
07F000
07F000
07F000
07F000
07F000
ENDCHAR
STARTCHAR 01D1
ENCODING 465
SWIDTH 697 0
DWIDTH 31 0
BBX 27 37 2 1
BITMAP
01C07000
03E1F800
03FBF000
01FFF000
00FFE000
007FC000
00000000
00000000
003F8000
01FFF000
07FFFC00
0FFFFE00
1FFFFF00
3FFFFF00
3FFFFF80
7FC0FFC0
7F807FC0
7F803FC0
FF003FC0
FF001FE0
FF001FE0
FF001FE0
FF001FE0
FF001FE0
FF001FE0
FF001FE0
FF003FC0
7F803FC0
7FC07FC0
7FE0FF80
3FFFFF80
3FFFFF00
1FFFFF00
0FFFFE00
07FFF800
01FFF000
007F8000
ENDCHAR
STARTCHAR 01D2
ENCODING 466
SWIDTH 562 0
DWIDTH 25 0
BBX 22 35 1 0
BITMAP
040000
0E00C0
1F83E0
1FC7F0
0FFFE0
07FFC0
03FF80
03FF80
01FF00
000000
000000
000000
000000
00FE00
03FF80
0FFFE0
1FFFF0
1FFFF0
3FFFF8
7FC7FC
7F83FC
7F83FC
7F01FC
FF01FC
FF01FC
7F01FC
7F83FC
7F83FC
7FC7FC
3FFFF8
3FFFF0
1FFFF0
0FFFE0
03FF80
00FE00
ENDCHAR
STARTCHAR 01D3
ENCODING 467
SWIDTH 675 0
DWIDTH 30 0
BBX 24 38 3 0
BITMAP
010080
0781E0
0FC3F0
07FFE0
03FFC0
01FF80
01FF00
000000
000000
FF00FF
FF00FF
FF00FF
FF00FF
FF00FF
FF00FF
FF00FF
FF00FF
FF00FF
FF00FF
FF00FF
FF00FF
FF00FF
FF00FF
FF00FF
FF00FF
FF00FF
FF00FF
FF00FF
FF00FE
7F80FE
7F81FE
7FFFFE
3FFFFC
3FFFFC
1FFFF8
0FFFF0
07FFE0
00FF00
ENDCHAR
STARTCHAR 01D4
ENCODING 468
SWIDTH 585 0
DWIDTH 26 0
BBX 21 34 2 1
BITMAP
0E01C0
1F03E0
1FCFE0
1FFFC0
0FFFC0
07FF80
03FF00
01FE00
000000
000000
000000
000000
FF07F8
FF07F8
FF07F8
FF07F8
FF07F8
FF07F8
FF07F8
FF07F8
FF07F8
FF07F8
FF07F8
FF07F8
FF07F8
FF07F8
FF07F8
7FFFF8
7FFFF8
7FFFF8
7FFFF8
3FFBF8
1FF1F8
07C1F8
ENDCHAR
STARTCHAR 01D5
ENCODING 469
SWIDTH 675 0
DWIDTH 30 0
BBX 24 42 3 0
BITMAP
07FFE0
07FFE0
07FFE0
000000
000000
0781E0
0FC3F0
0FC3F0
0FC3F0
0FC3F0
0781E0
000000
000000
FF00FF
FF00FF
FF00FF
FF00FF
FF00FF
FF00FF
FF00FF
FF00FF
FF00FF
FF00FF
FF00FF
FF00FF
FF00FF
FF00FF
FF00FF
FF00FF
FF00FF
FF00FF
FF00FF
FF00FE
7F80FE
7F81FE
7FFFFE
3FFFFC
3FFFFC
1FFFF8
0FFFF0
07FFE0
00FF00
ENDCHAR
STARTCHAR 01D6
ENCODING 470
SWIDTH 585 0
DWIDTH 26 0
BBX 21 38 2 0
BITMAP
0FFFC0
0FFFC0
0FFFC0
000000
000000
000000
0F03C0
1F87E0
1F87E0
1F87E0
1F07E0
0F03C0
000000
000000
000000
000000
FF07F8
FF07F8
FF07F8
FF07F8
FF07F8
FF07F8
FF07F8
FF07F8
FF07F8
FF07F8
FF07F8
FF07F8
FF07F8
FF07F8
FF07F8
7FFFF8
7FFFF8
7FFFF8
7FFFF8
3FFBF8
1FF1F8
07C1F8
ENDCHAR
STARTCHAR 01D7
ENCODING 471
SWIDTH 675 0
DWIDTH 30 0
BBX 24 46 3 0
BITMAP
000400
000600
000F80
000FC0
001F80
003F00
003E00
003C00
001800
0781E0
0FC3F0
0FC3F0
0FC3F0
0FC3F0
0781E0
000000
000000
FF00FF
FF00FF
FF00FF
FF00FF
FF00FF
FF00FF
FF00FF
FF00FF
FF00FF
FF00FF
FF00FF
FF00FF
FF00FF
FF00FF
FF00FF
FF00FF
FF00FF
FF00FF
FF00FF
FF00FE
7F80FE
7F81FE
7FFFFE
3FFFFC
3FFFFC
1FFFF8
0FFFF0
07FFE0
00FF00
ENDCHAR
STARTCHAR 01D8
ENCODING 472
SWIDTH 585 0
DWIDTH 26 0
BBX 21 40 2 1
BITMAP
001C00
001E00
003E00
003E00
007C00
007800
003000
000000
0F03C0
1F87E0
1F87E0
1F87E0
1F07E0
0F03C0
000000
000000
000000
000000
FF07F8
FF07F8
FF07F8
FF07F8
FF07F8
FF07F8
FF07F8
FF07F8
FF07F8
FF07F8
FF07F8
FF07F8
FF07F8
FF07F8
FF07F8
7FFFF8
7FFFF8
7FFFF8
7FFFF8
3FFBF8
1FF1F8
07C1F8
ENDCHAR
STARTCHAR 01D9
ENCODING 473
SWIDTH 675 0
DWIDTH 30 0
BBX 24 45 3 0
BITMAP
018180
07C3E0
07E7C0
03FFC0
01FF80
00FF00
000000
000000
0781E0
0FC3F0
0FC3F0
0FC3F0
0FC3F0
0781E0
000000
000000
FF00FF
FF00FF
FF00FF
FF00FF
FF00FF
FF00FF
FF00FF
FF00FF
FF00FF
FF00FF
FF00FF
FF00FF
FF00FF
FF00FF
FF00FF
FF00FF
FF00FF
FF00FF
FF00FF
FF00FE
7F80FE
7F81FE
7FFFFE
3FFFFC
3FFFFC
1FFFF8
0FFFF0
07FFE0
00FF00
ENDCHAR
STARTCHAR 01DA
ENCODING 474
SWIDTH 585 0
DWIDTH 26 0
BBX 21 40 2 0
BITMAP
070300
0F8780
0FFF80
07FF00
03FE00
01FC00
000000
000000
0F03C0
1F87E0
1F87E0
1F87E0
1F07E0
0F03C0
000000
000000
000000
000000
FF07F8
FF07F8
FF07F8
FF07F8
FF07F8
FF07F8
FF07F8
FF07F8
FF07F8
FF07F8
FF07F8
FF07F8
FF07F8
FF07F8
FF07F8
7FFFF8
7FFFF8
7FFFF8
7FFFF8
3FFBF8
1FF1F8
07C1F8
ENDCHAR
STARTCHAR 01DB
ENCODING 475
SWIDTH 675 0
DWIDTH 30 0
BBX 24 45 3 1
BITMAP
006000
01F000
03F000
01F800
00FC00
007C00
003C00
001800
0781E0
0FC3F0
0FC3F0
0FC3F0
0FC3F0
0781E0
000000
000000
FF00FF
FF00FF
FF00FF
FF00FF
FF00FF
FF00FF
FF00FF
FF00FF
FF00FF
FF00FF
FF00FF
FF00FF
FF00FF
FF00FF
FF00FF
FF00FF
FF00FF
FF00FF
FF00FF
FF00FE
7F80FE
7F81FE
7FFFFE
3FFFFC
3FFFFC
1FFFF8
0FFFF0
07FFE0
00FF00
ENDCHAR
STARTCHAR 01DC
ENCODING 476
SWIDTH 585 0
DWIDTH 26 0
BBX 21 41 2 0
BITMAP
004000
00C000
03E000
03F000
01F000
00F800
007800
003000
000000
0F03C0
1F87E0
1F87E0
1F87E0
1F07E0
0F03C0
000000
000000
000000
000000
FF07F8
FF07F8
FF07F8
FF07F8
FF07F8
FF07F8
FF07F8
FF07F8
FF07F8
FF07F8
FF07F8
FF07F8
FF07F8
FF07F8
FF07F8
7FFFF8
7FFFF8
7FFFF8
7FFFF8
3FFBF8
1FF1F8
07C1F8
ENDCHAR
STARTCHAR 01E2
ENCODING 482
SWIDTH 855 0
DWIDTH 38 0
BBX 37 38 -1 0
BITMAP
00007FFE00
00007FFE00
00007FFE00
00007FFE00
00007FFE00
0000000000
0000000000
0000000000
0000000000
0007FFFFF0
000FFFFFF0
000FFFFFF0
000FFFFFF0
001FFFFFF0
001FFFFFF0
003FBFC000
003FBFC000
007FBFC000
007F3FC000
00FF3FC000
00FE3FFFE0
01FE3FFFE0
01FE3FFFE0
01FC3FFFE0
03FC3FFFE0
03F83FFFE0
07FFFFC000
07FFFFC000
0FFFFFC000
0FFFFFC000
1FFFFFC000
1FFFFFC000
1FC03FFFF8
3FC03FFFF8
3FC03FFFF8
7F803FFFF8
7F803FFFF8
FF003FFFF8
ENDCHAR
STARTCHAR 01E3
ENCODING 483
SWIDTH 787 0
DWIDTH 35 0
BBX 31 32 2 0
BITMAP
007FFE00
007FFE00
007FFE00
007FFE00
007FFE00
00000000
00000000
00000000
00000000
00000000
03F80FC0
1FFE3FE0
7FFFFFF8
7FFFFFF8
7FFFFFFC
3FFFFFFC
1C1FF0FE
100FE07E
007FE07E
07FFFFFE
1FFFFFFE
3FFFFFFE
7FFFFFFE
FF0FFFFE
FE0FE000
FE0FF810
FFFFFFF8
FFFFFFF8
7FFFFFFC
7FFCFFFC
3FF07FF8
0FC01FC0
ENDCHAR
STARTCHAR 01E6
ENCODING 486
SWIDTH 652 0
DWIDTH 29 0
BBX 24 37 2 1
BITMAP
00E038
01F87C
01FDFC
00FFF8
007FF0
003FE0
000000
000000
001FC0
00FFF8
03FFFC
07FFFE
0FFFFE
1FFFFC
3FFFF8
3FE038
7FC000
7F8000
FF8000
FF0000
FF07FF
FF07FF
FF07FF
FF07FF
FF07FF
FF07FF
FF803F
7F803F
7FC03F
7FE03F
3FFFFF
1FFFFF
1FFFFF
0FFFFF
03FFFE
01FFF8
003FC0
ENDCHAR
STARTCHAR 01E7
ENCODING 487
SWIDTH 540 0
DWIDTH 24 0
BBX 23 43 1 -8
BITMAP
0600C0
0F81F0
1FC7F0
0FFFE0
07FFC0
03FF80
01FF80
01FF00
000000
000000
000000
000000
01FFFC
07FFFC
1FFFFC
3FFFFC
3FFFFC
7F8FFC
7F07E0
7F07E0
7F07E0
7F0FE0
3FFFE0
3FFFC0
1FFFC0
0FFF00
1FFC00
3E0000
3F0000
7FFF80
3FFFF0
3FFFF8
1FFFFC
1FFFFC
3FFFFE
7E01FE
7E01FC
FE01FC
FFFFF8
7FFFF8
7FFFE0
1FFFC0
07FC00
ENDCHAR
STARTCHAR 01EA
ENCODING 490
SWIDTH 697 0
DWIDTH 31 0
BBX 27 39 2 -10
BITMAP
003F8000
01FFF000
07FFFC00
0FFFFE00
1FFFFF00
3FFFFF00
3FFFFF80
7FC0FFC0
7F807FC0
7F803FC0
FF003FC0
FF001FE0
FF001FE0
FF001FE0
FF001FE0
FF001FE0
FF001FE0
FF001FE0
FF003FC0
7F803FC0
7F803FC0
7FC07FC0
3FF1FF80
3FFFFF00
1FFFFF00
0FFFFE00
07FFFC00
01FFF000
007FC000
001F0000
001E0000
003E0000
007E0000
007E0000
007FC000
007FE000
007FE000
003FE000
000F8000
ENDCHAR
STARTCHAR 01EB
ENCODING 491
SWIDTH 562 0
DWIDTH 25 0
BBX 22 31 1 -10
BITMAP
00FE00
03FF80
0FFFE0
1FFFF0
1FFFF0
3FFFF8
7FC7FC
7F83FC
7F83FC
7F01FC
FF01FC
FF01FC
FF01FC
7F03FC
7F83FC
7F83FC
3FFFF8
3FFFF8
1FFFF0
0FFFE0
07FF80
00FE00
007C00
00F800
00F000
00F000
01F900
01FF00
01FF00
00FF80
007F00
ENDCHAR
STARTCHAR 01F4
ENCODING 500
SWIDTH 652 0
DWIDTH 29 0
BBX 24 39 2 1
BITMAP
000070
0000F8
0001FC
0003FC
000FFC
001FF8
000FE0
000F80
000700
000000
001FC0
00FFF8
03FFFC
07FFFE
0FFFFE
1FFFFC
3FFFF8
3FE038
7FC000
7F8000
FF8000
FF0000
FF07FF
FF07FF
FF07FF
FF07FF
FF07FF
FF07FF
FF803F
7F803F
7FC03F
7FE03F
3FFFFF
1FFFFF
1FFFFF
0FFFFF
03FFFE
01FFF8
003FC0
ENDCHAR
STARTCHAR 01F5
ENCODING 501
SWIDTH 540 0
DWIDTH 24 0
BBX 23 46 1 -9
BITMAP
000180
0003C0
0007E0
0007F0
000FF8
001FF0
003FE0
007FC0
007F00
003E00
001C00
000800
000000
000000
000000
01FFFC
07FFFC
1FFFFC
3FFFFC
3FFFFC
7F8FFC
7F07E0
7F07E0
7F07E0
7F0FE0
3FFFE0
3FFFC0
1FFFC0
0FFF00
1FFC00
3E0000
3F0000
7FFF80
3FFFF0
3FFFF8
1FFFFC
1FFFFC
3FFFFE
7E01FE
7E01FC
FE01FC
FFFFF8
7FFFF8
7FFFE0
1FFFC0
07FC00
ENDCHAR
STARTCHAR 01F8
ENCODING 504
SWIDTH 675 0
DWIDTH 30 0
BBX 24 40 3 0
BITMAP
018000
03C000
07E000
0FF000
0FFC00
07FE00
01FE00
00FC00
003C00
000800
000000
FF00FF
FF80FF
FF80FF
FFC0FF
FFC0FF
FFE0FF
FFE0FF
FFF0FF
FFF0FF
FFF8FF
FFF8FF
FFFCFF
FEFC7F
FEFE7F
FE7E7F
FE7F7F
FE3F7F
FE3F7F
FE1FFF
FE1FFF
FE0FFF
FE0FFF
FE07FF
FE07FF
FE03FF
FE03FF
FE01FF
FE01FF
FE00FF
ENDCHAR
STARTCHAR 01F9
ENCODING 505
SWIDTH 585 0
DWIDTH 26 0
BBX 20 37 3 0
BITMAP
020000
070000
0F8000
1FC000
3FE000
3FF000
0FF000
07F800
03F800
01F000
00E000
000000
000000
000000
000000
FC1F00
FC7FC0
FDFFE0
FFFFE0
FFFFF0
FFFFF0
FFFFF0
FF0FF0
FE07F0
FE07F0
FE07F0
FE07F0
FE07F0
FE07F0
FE07F0
FE07F0
FE07F0
FE07F0
FE07F0
FE07F0
FE07F0
FE07F0
ENDCHAR
STARTCHAR 01FC
ENCODING 508
SWIDTH 855 0
DWIDTH 38 0
BBX 37 41 -1 0
BITMAP
0000000800
0000003C00
0000007E00
000000FF00
000001FF80
000007FE00
000007FC00
000003F000
000001C000
0000008000
0000000000
0000000000
0007FFFFF0
000FFFFFF0
000FFFFFF0
000FFFFFF0
001FFFFFF0
001FFFFFF0
003FBFC000
003FBFC000
007FBFC000
007F3FC000
00FF3FC000
00FE3FFFE0
01FE3FFFE0
01FE3FFFE0
01FC3FFFE0
03FC3FFFE0
03F83FFFE0
07FFFFC000
07FFFFC000
0FFFFFC000
0FFFFFC000
1FFFFFC000
1FFFFFC000
1FC03FFFF8
3FC03FFFF8
3FC03FFFF8
7F803FFFF8
7F803FFFF8
FF003FFFF8
ENDCHAR
STARTCHAR 01FD
ENCODING 509
SWIDTH 787 0
DWIDTH 35 0
BBX 31 37 2 0
BITMAP
00000800
00001C00
00001E00
00003F00
00007F80
0000FF80
0001FF00
0003FE00
0007FC00
0003F800
0001E000
0000C000
00000000
00000000
00000000
03F80FC0
1FFE3FE0
7FFFFFF8
7FFFFFF8
7FFFFFFC
3FFFFFFC
1C1FF0FE
100FE07E
007FE07E
07FFFFFE
1FFFFFFE
3FFFFFFE
7FFFFFFE
FF0FFFFE
FE0FE000
FE0FF810
FFFFFFF8
FFFFFFF8
7FFFFFFC
7FFCFFFC
3FF07FF8
0FC01FC0
ENDCHAR
STARTCHAR 0218
ENCODING 536
SWIDTH 562 0
DWIDTH 25 0
BBX 22 39 2 -10
BITMAP
00FE00
07FFC0
0FFFE0
1FFFF0
3FFFF0
7FFFE0
7FFFE0
7F81C0
7F0000
7F8000
7FE000
7FF800
7FFF00
3FFFC0
1FFFF0
0FFFF0
03FFF8
007FF8
000FFC
0007FC
1803FC
3E03F8
7FFFF8
7FFFF8
FFFFF0
FFFFE0
3FFFC0
1FFF80
03FC00
000000
000000
00F000
00FC00
01FE00
003E00
007E00
07FC00
07F800
03C000
ENDCHAR
STARTCHAR 0219
ENCODING 537
SWIDTH 450 0
DWIDTH 20 0
BBX 18 32 1 -10
BITMAP
03F800
0FFF00
1FFF80
3FFF80
7FFF80
7FFF00
7F0600
7F8000
7FE000
3FFC00
3FFF00
0FFF80
07FF80
00FFC0
003FC0
381FC0
3FFFC0
7FFF80
FFFF80
7FFF00
3FFE00
07F000
000000
000000
01E000
01F800
03FC00
00FC00
00FC00
0FF800
0FF000
078000
ENDCHAR
STARTCHAR 021A
ENCODING 538
SWIDTH 562 0
DWIDTH 25 0
BBX 23 40 1 -11
BITMAP
FFFFFE
FFFFFE
FFFFFE
FFFFFE
FFFFFE
FFFFFE
00FE00
00FE00
00FE00
00FE00
00FE00
00FE00
00FE00
00FE00
00FE00
00FE00
00FE00
00FE00
00FE00
00FE00
00FE00
00FE00
00FE00
00FE00
00FE00
00FE00
00FE00
00FE00
00FE00
000000
000000
006000
007E00
00FF00
003F00
001F00
003F00
03FE00
03FC00
01E000
ENDCHAR
STARTCHAR 021B
ENCODING 539
SWIDTH 405 0
DWIDTH 18 0
BBX 16 38 1 -10
BITMAP
0FC0
0FC0
0FC0
1FC0
1FC0
1FC0
FFFE
FFFE
FFFE
FFFE
FFFE
FFFE
1FC0
1FC0
1FC0
1FC0
1FC0
1FC0
1FC0
1FC0
1FC0
1FE0
1FFE
1FFE
0FFE
0FFF
07FF
01FE
0000
0000
01E0
01F8
03FC
007C
00FC
07FC
07F0
0780
ENDCHAR
STARTCHAR 0237
ENCODING 567
SWIDTH 292 0
DWIDTH 13 0
BBX 12 30 -2 -8
BITMAP
07F0
07F0
07F0
07F0
07F0
07F0
07F0
07F0
07F0
07F0
07F0
07F0
07F0
07F0
07F0
07F0
07F0
07F0
07F0
07F0
07F0
07F0
07F0
0FF0
7FF0
FFE0
FFE0
FFC0
FF80
FE00
ENDCHAR
STARTCHAR 0243
ENCODING 579
SWIDTH 630 0
DWIDTH 28 0
BBX 26 29 1 0
BITMAP
1FFFE000
1FFFFC00
1FFFFE00
1FFFFF00
1FFFFF00
1FE3FF80
1FE07F80
1FE07F80
1FE07F00
1FE07F00
1FE0FE00
1FFFFC00
1FFFF000
1FFFFC00
1FFFFF00
1FE1FF80
1FE03F80
1FFF3FC0
FFFF1FC0
FFFF1FC0
FFFF1FC0
1FE03FC0
1FE07FC0
1FE1FF80
1FFFFF80
1FFFFF00
1FFFFE00
1FFFFC00
1FFFE000
ENDCHAR
STARTCHAR 0250
ENCODING 592
SWIDTH 540 0
DWIDTH 24 0
BBX 20 22 2 0
BITMAP
001F80
FE7FC0
FEFFE0
FFFFF0
FFFFF0
FFFFF0
FF8FF0
FF07F0
FF0FF0
FF3FE0
FFFFC0
FFFF80
FFFE00
FFE000
7F0000
7F83C0
7FFFC0
7FFFE0
3FFFE0
1FFFE0
0FFF80
01FC00
ENDCHAR
STARTCHAR 0251
ENCODING 593
SWIDTH 585 0
DWIDTH 26 0
BBX 21 22 2 0
BITMAP
03F000
0FF9F8
1FFDF8
3FFFF8
7FFFF8
7FFFF8
FF8FF8
FF03F8
FF03F8
FF03F8
FE03F8
FE03F8
FF03F8
FF03F8
FF07F8
FF8FF8
7FFFF8
7FFFF8
3FFFF8
1FFFF8
0FF9F8
03E000
ENDCHAR
STARTCHAR 0252
ENCODING 594
SWIDTH 585 0
DWIDTH 26 0
BBX 21 22 3 0
BITMAP
003F00
FCFF80
FDFFC0
FFFFE0
FFFFF0
FFFFF0
FF8FF8
FE07F8
FE07F8
FE07F8
FE07F8
FE07F8
FE07F8
FE07F8
FE07F8
FF1FF0
FFFFF0
FFFFE0
FFFFE0
FDFFC0
FCFF80
007E00
ENDCHAR
STARTCHAR 0253
ENCODING 595
SWIDTH 585 0
DWIDTH 26 0
BBX 21 32 3 0
BITMAP
03F800
1FFC00
3FFC00
7FF800
7FF800
FFF800
FF0000
FF0000
FE0000
FE0000
FE7F00
FEFFC0
FFFFE0
FFFFE0
FFFFF0
FFFFF0
FF0FF8
FE07F8
FE07F8
FE07F8
FE07F8
FE07F8
FE07F8
FE07F8
FE07F8
FF9FF0
FFFFF0
FFFFE0
FFFFE0
FDFFC0
FCFF80
FC7E00
ENDCHAR
STARTCHAR 0254
ENCODING 596
SWIDTH 472 0
DWIDTH 21 0
BBX 19 22 1 0
BITMAP
0FE000
7FF800
FFFE00
7FFF00
3FFF80
1FFF80
18FFC0
003FC0
003FC0
001FE0
001FE0
001FE0
001FC0
003FC0
003FC0
38FFC0
3FFF80
7FFF80
7FFF00
FFFE00
7FF800
0FE000
ENDCHAR
STARTCHAR 0255
ENCODING 597
SWIDTH 472 0
DWIDTH 21 0
BBX 20 24 1 -3
BITMAP
007F00
03FFC0
07FFE0
0FFFC0
1FFF80
3FFF00
7FC100
7F8000
7F0000
7F1F00
FF7FC0
FFFFE0
7FFFE0
7FFFF0
7FE3F0
7FC3F0
3FFFF0
3FFFE0
7FFFE0
7FFFC0
FFFF80
FCFE00
FC0000
3C0000
ENDCHAR
STARTCHAR 0256
ENCODING 598
SWIDTH 585 0
DWIDTH 26 0
BBX 25 40 2 -8
BITMAP
0003F800
0003F800
0003F800
0003F800
0003F800
0003F800
0003F800
0003F800
0003F800
0003F800
03E3F800
0FFBF800
1FFFF800
3FFFF800
7FFFF800
7FFFF800
FF8FF800
FF03F800
FF03F800
FF03F800
FE03F800
FE03F800
FF03F800
FF03F800
FF07F800
FF8FF800
7FFFF800
7FFFF800
3FFFF800
1FFFF800
0FFBF800
03E3F800
0003F800
0003FC00
0003FF00
0003FF80
0001FF80
0001FF80
00007F80
00001F80
ENDCHAR
STARTCHAR 0257
ENCODING 599
SWIDTH 585 0
DWIDTH 26 0
BBX 25 32 2 0
BITMAP
00001F80
00007F80
0000FF80
0001FF80
0001FF00
0003FF00
0003FC00
0003F800
0003F800
0003F800
03E3F800
0FFBF800
1FFFF800
3FFFF800
7FFFF800
7FFFF800
FF8FF800
FF03F800
FF03F800
FF03F800
FE03F800
FE03F800
FF03F800
FF03F800
FF07F800
FF8FF800
7FFFF800
7FFFF800
3FFFF800
3FFFF800
0FF9F800
03E1F800
ENDCHAR
STARTCHAR 0258
ENCODING 600
SWIDTH 517 0
DWIDTH 23 0
BBX 20 22 2 0
BITMAP
03F800
0FFE00
1FFF00
3FFF80
7FFFC0
7FFFE0
FE0FE0
FC07F0
FFFFF0
FFFFF0
FFFFF0
FFFFF0
FFFFF0
000FF0
000FE0
101FE0
3FFFE0
7FFFC0
7FFF80
FFFF00
3FFE00
07F000
ENDCHAR
STARTCHAR 0259
ENCODING 601
SWIDTH 517 0
DWIDTH 23 0
BBX 20 22 2 0
BITMAP
07F800
3FFE00
7FFF00
3FFF80
3FFFC0
1FFFE0
181FE0
000FE0
000FF0
FFFFF0
FFFFF0
FFFFF0
FFFFF0
FFFFF0
FC07E0
FE0FE0
FFFFE0
7FFFC0
3FFF80
3FFF00
0FFE00
03F000
ENDCHAR
STARTCHAR 025A
ENCODING 602
SWIDTH 720 0
DWIDTH 32 0
BBX 31 22 2 0
BITMAP
07F80000
3FFE0000
7FFF0000
3FFF8700
3FFFDFC0
1FFFFFC0
101FFFC0
001FFFE0
007FFBFC
03FFF1FE
0FFFF1FE
7FFFF07E
FFE7F000
FF87F000
FC0FF000
FE0FE000
7FFFE000
7FFFC000
3FFF8000
1FFF0000
0FFE0000
03F80000
ENDCHAR
STARTCHAR 025B
ENCODING 603
SWIDTH 472 0
DWIDTH 21 0
BBX 18 22 2 0
BITMAP
03FC00
0FFF80
1FFF80
3FFF80
7FFF00
7FFE00
7F8000
7F8000
3FFC00
1FFC00
0FFC00
3FFC00
7FFC00
FF0000
FE0000
FF0200
FFFF00
FFFF80
7FFF80
3FFFC0
0FFF80
03FC00
ENDCHAR
STARTCHAR 025C
ENCODING 604
SWIDTH 495 0
DWIDTH 22 0
BBX 18 22 2 0
BITMAP
0FF000
7FFC00
FFFE00
7FFF00
7FFF00
3FFF80
007F80
007F00
0FFF00
0FFC00
0FFC00
0FFF00
0FFF80
003F80
003FC0
203FC0
3FFF80
7FFF80
FFFF00
FFFE00
7FFC00
1FE000
ENDCHAR
STARTCHAR 025E
ENCODING 606
SWIDTH 585 0
DWIDTH 26 0
BBX 22 22 2 0
BITMAP
03FC00
0FFF80
3FFFC0
3FFFE0
7FFFF0
7FFFF8
7F87F8
7F83FC
3FF3FC
1FF3FC
0FF3FC
3FF3FC
7FF3FC
FF03FC
FE03FC
FF07F8
FFFFF8
FFFFF0
7FFFE0
3FFFC0
0FFF80
03FC00
ENDCHAR
STARTCHAR 025F
ENCODING 607
SWIDTH 337 0
DWIDTH 15 0
BBX 15 30 -1 -8
BITMAP
07F0
07F0
07F0
07F0
07F0
07F0
07F0
07F0
0FFE
3FFE
3FFE
3FFE
07F0
07F0
07F0
07F0
07F0
07F0
07F0
07F0
07F0
07F0
07F0
0FF0
7FF0
FFF0
FFE0
FFC0
FF80
FE00
ENDCHAR
STARTCHAR 0260
ENCODING 608
SWIDTH 585 0
DWIDTH 26 0
BBX 26 37 2 -8
BITMAP
00001FC0
00007F80
0000FF80
0001FF80
0001FF80
0003FF80
0003FC00
03F3FC00
07FBF800
1FFFF800
3FFFF800
3FFFF800
7FFFF800
7FCFF800
FF03F800
FF03F800
FF03F800
FF03F800
FF03F800
FF03F800
FF03F800
FF87F800
7FFFF800
7FFFF800
3FFFF800
1FFFF800
0FFFF800
03F3F800
0003F800
0007F800
1C0FF800
1FFFF800
3FFFF000
3FFFF000
7FFFE000
1FFF8000
03FC0000
ENDCHAR
STARTCHAR 0261
ENCODING 609
SWIDTH 585 0
DWIDTH 26 0
BBX 21 30 2 -8
BITMAP
03F1F8
07FDF8
1FFFF8
3FFFF8
3FFFF8
7FFFF8
7FCFF8
FF03F8
FF03F8
FF03F8
FF03F8
FF03F8
FF03F8
FF03F8
FF87F8
7FFFF8
7FFFF8
3FFFF8
1FFFF8
0FFFF8
03F3F8
0003F8
0007F8
1C0FF8
1FFFF8
3FFFF0
3FFFF0
7FFFE0
1FFF80
03FC00
ENDCHAR
STARTCHAR 0262
ENCODING 610
SWIDTH 517 0
DWIDTH 23 0
BBX 21 22 1 0
BITMAP
007F00
03FFC0
07FFF0
1FFFE0
1FFFC0
3FFFC0
7FC080
7F8000
7F9FF8
7F1FF8
FF1FF8
FF1FF8
7F1FF8
7F83F8
7F83F8
7FC3F8
3FFFF8
3FFFF8
1FFFF8
0FFFF0
03FFC0
00FF00
ENDCHAR
STARTCHAR 0263
ENCODING 611
SWIDTH 540 0
DWIDTH 24 0
BBX 22 31 1 -9
BITMAP
FE01FC
FF01FC
7F01FC
7F03F8
7F83F8
3F83F0
3F87F0
1F87F0
1FC7E0
1FC7E0
0FCFE0
0FEFC0
0FEFC0
07FFC0
07FF80
03FF80
03FF00
03FF00
03FF80
07FFC0
07FFC0
0FEFC0
0FCFE0
0FC7E0
0FC7E0
0FC7E0
0FFFC0
07FFC0
07FF80
03FF00
00FC00
ENDCHAR
STARTCHAR 0264
ENCODING 612
SWIDTH 585 0
DWIDTH 26 0
BBX 24 22 1 0
BITMAP
7F00FE
FFC3FF
FFE7FF
7FFFFF
7FFFFE
7FFFFE
03FFE2
01FF80
03FFE0
07FFE0
0FFFF0
0FE7F8
1FC3F8
1FC3F8
1FC3F8
1FE7F8
1FFFF8
0FFFF8
0FFFF0
07FFE0
03FFC0
00FF00
ENDCHAR
STARTCHAR 0265
ENCODING 613
SWIDTH 585 0
DWIDTH 26 0
BBX 21 30 2 -7
BITMAP
FF03F8
FF03F8
FF03F8
FF03F8
FF03F8
FF03F8
FF03F8
FF03F8
FF03F8
FF03F8
FF03F8
FF03F8
FF03F8
FF03F8
FF03F8
FF07F8
7FFFF8
7FFFF8
7FFFF8
7FFFF8
3FFBF8
1FF3F8
07C3F8
0003F8
0003F8
0003F8
0003F8
0003F8
0003F8
0003F8
ENDCHAR
STARTCHAR 0266
ENCODING 614
SWIDTH 585 0
DWIDTH 26 0
BBX 20 32 3 0
BITMAP
03F800
1FFC00
3FFC00
7FF800
7FF800
FFF800
FF0000
FF0000
FE0000
FE0000
FE3F80
FEFFC0
FFFFE0
FFFFF0
FFFFF0
FFFFF0
FF8FF0
FF07F0
FE07F0
FE07F0
FE07F0
FE07F0
FE07F0
FE07F0
FE07F0
FE07F0
FE07F0
FE07F0
FE07F0
FE07F0
FE07F0
FE07F0
ENDCHAR
STARTCHAR 0267
ENCODING 615
SWIDTH 585 0
DWIDTH 26 0
BBX 20 40 3 -8
BITMAP
03F800
1FFC00
3FFC00
7FF800
7FF800
FFF800
FF0000
FF0000
FE0000
FE0000
FE3F80
FEFFC0
FFFFE0
FFFFF0
FFFFF0
FFFFF0
FF8FF0
FE07F0
FE07F0
FE07F0
FE07F0
FE07F0
FE07F0
FE07F0
FE07F0
FE07F0
FE07F0
FE07F0
FE07F0
FE07F0
FE07F0
FE07F0
0007F0
000FF0
007FF0
007FF0
00FFE0
00FFC0
00FF80
00FE00
ENDCHAR
STARTCHAR 0268
ENCODING 616
SWIDTH 337 0
DWIDTH 15 0
BBX 13 33 1 0
BITMAP
0200
1FC0
1FC0
3FE0
3FE0
1FE0
1FC0
0F80
0000
0000
0000
1FC0
1FC0
1FC0
1FC0
1FC0
1FC0
1FC0
1FC0
1FC0
FFF8
FFF8
FFF8
1FF8
1FC0
1FC0
1FC0
1FC0
1FC0
1FC0
1FC0
1FC0
1FC0
ENDCHAR
STARTCHAR 026A
ENCODING 618
SWIDTH 405 0
DWIDTH 18 0
BBX 14 22 2 0
BITMAP
FFFC
FFFC
FFFC
FFFC
FFFC
FFFC
1FE0
1FE0
1FE0
1FE0
1FE0
1FE0
1FE0
1FE0
1FE0
1FE0
FFFC
FFFC
FFFC
FFFC
FFFC
FFFC
ENDCHAR
STARTCHAR 026C
ENCODING 620
SWIDTH 405 0
DWIDTH 18 0
BBX 18 31 -1 0
BITMAP
00FE00
00FE00
00FE00
00FE00
00FE00
00FE00
00FE00
00FE00
00FE00
3FFE00
7FFE00
7FFE00
79FE00
F1FE00
7FFFC0
7FFFC0
3FFFC0
0FFFC0
00FE00
00FE00
00FE00
00FE00
00FE00
00FE00
00FF00
00FF80
00FFC0
00FFC0
007FC0
003FC0
000FC0
ENDCHAR
STARTCHAR 026D
ENCODING 621
SWIDTH 292 0
DWIDTH 13 0
BBX 11 39 3 -8
BITMAP
FE00
FE00
FE00
FE00
FE00
FE00
FE00
FE00
FE00
FE00
FE00
FE00
FE00
FE00
FE00
FE00
FE00
FE00
FE00
FE00
FE00
FE00
FE00
FE00
FE00
FE00
FE00
FE00
FE00
FE00
FE00
FE00
FF00
FFC0
FFE0
7FE0
7FE0
1FE0
0FE0
ENDCHAR
STARTCHAR 026E
ENCODING 622
SWIDTH 675 0
DWIDTH 30 0
BBX 26 39 3 -8
BITMAP
FE000000
FE000000
FE000000
FE000000
FE000000
FE000000
FE000000
FE000000
FE000000
FFFFFF00
FFFFFF00
FFFFFF00
FFFFFF00
FFFFFF00
FFFFFE00
FE01FE00
FE03FC00
FE07F800
FE07F000
FE0FE000
FE1FE000
FE3FF800
FE7FFE00
FE3FFF00
FE1FFF80
FE1FFF80
FE007F80
FE003F80
FE003FC0
FE003FC0
FE003F80
00407F80
00F0FF80
01FFFF80
03FFFF00
03FFFE00
01FFFC00
007FF800
001FC000
ENDCHAR
STARTCHAR 026F
ENCODING 623
SWIDTH 877 0
DWIDTH 39 0
BBX 33 23 3 -1
BITMAP
FE07F03F80
FE07F03F80
FE07F03F80
FE07F03F80
FE07F03F80
FE07F03F80
FE07F03F80
FE07F03F80
FE07F03F80
FE07F03F80
FE07F03F80
FE07F03F80
FE07F03F80
FE07F03F80
FE0FF07F80
FF1FF8FF80
FFFFFFFF80
FFFFFFFF80
FFFFFFFF80
7FFBFFFF80
3FF3FF9F80
1FC0FE1F80
0200100000
ENDCHAR
STARTCHAR 0270
ENCODING 624
SWIDTH 877 0
DWIDTH 39 0
BBX 33 30 3 -7
BITMAP
FE07F03F80
FE07F03F80
FE07F03F80
FE07F03F80
FE07F03F80
FE07F03F80
FE07F03F80
FE07F03F80
FE07F03F80
FE07F03F80
FE07F03F80
FE07F03F80
FE07F03F80
FE07F03F80
FE07F03F80
FF0FF87F80
FFFFFFFF80
FFFFFFFF80
FFFFFFFF80
7FFFFFFF80
7FF3FFBF80
3FE1FF3F80
0F807C3F80
0000003F80
0000003F80
0000003F80
0000003F80
0000003F80
0000003F80
0000003F80
ENDCHAR
STARTCHAR 0271
ENCODING 625
SWIDTH 877 0
DWIDTH 39 0
BBX 33 30 3 -8
BITMAP
FC1F00F800
FC7FC3FE00
FDFFEFFF00
FFFFFFFF00
FFFFFFFF80
FFFFFFFF80
FFFFFFFF80
FF0FF87F80
FE0FF07F80
FE07F03F80
FE07F03F80
FE07F03F80
FE07F03F80
FE07F03F80
FE07F03F80
FE07F03F80
FE07F03F80
FE07F03F80
FE07F03F80
FE07F03F80
FE07F03F80
FE07F03F80
0000007F80
0000007F80
000003FF80
000003FF00
000003FF00
000003FE00
000007FC00
000003F000
ENDCHAR
STARTCHAR 0272
ENCODING 626
SWIDTH 585 0
DWIDTH 26 0
BBX 24 31 -1 -8
BITMAP
000040
0FC7F8
0FCFFE
0FDFFE
0FFFFF
0FFFFF
0FFFFF
0FF8FF
0FE07F
0FE07F
0FE07F
0FE07F
0FE07F
0FE07F
0FE07F
0FE07F
0FE07F
0FE07F
0FE07F
0FE07F
0FE07F
0FE07F
0FE07F
0FE000
1FE000
FFE000
FFC000
FFC000
FF8000
FF0000
FC0000
ENDCHAR
STARTCHAR 0273
ENCODING 627
SWIDTH 585 0
DWIDTH 26 0
BBX 25 31 3 -8
BITMAP
00040000
FC7F8000
FCFFE000
FDFFE000
FFFFF000
FFFFF000
FFFFF000
FF8FF000
FE07F000
FE07F000
FE07F000
FE07F000
FE07F000
FE07F000
FE07F000
FE07F000
FE07F000
FE07F000
FE07F000
FE07F000
FE07F000
FE07F000
FE07F000
0007F800
0007F800
0007FF00
0003FF00
0003FF00
0001FF00
0000FF80
00003F00
ENDCHAR
STARTCHAR 0274
ENCODING 628
SWIDTH 562 0
DWIDTH 25 0
BBX 20 22 3 0
BITMAP
FE07F0
FF07F0
FF07F0
FF87F0
FF87F0
FFC7F0
FFC7F0
FFE7F0
FFE7F0
FFF7F0
FDF7F0
FDFFF0
FCFFF0
FEFFF0
FE7FF0
FE7FF0
FE3FF0
FE3FF0
FE1FF0
FE1FF0
FE0FF0
FE0FF0
ENDCHAR
STARTCHAR 0275
ENCODING 629
SWIDTH 562 0
DWIDTH 25 0
BBX 22 22 1 0
BITMAP
00FE00
03FF80
0FFFE0
1FFFF0
3FFFF8
3FFFF8
7F83FC
7F01FC
7FFFFC
FFFFFC
FFFFFC
FFFFFC
7FFFFC
7F01FC
7F01FC
7F83FC
3FFFF8
3FFFF0
1FFFF0
0FFFE0
03FF80
00FE00
ENDCHAR
STARTCHAR 0276
ENCODING 630
SWIDTH 742 0
DWIDTH 33 0
BBX 30 24 1 -1
BITMAP
00080000
01FFFFFC
07FFFFFC
0FFFFFFC
1FFFFFFC
3FFFFFFC
3FFFFFFC
7FC3F800
7F83F800
7F83FFF8
FF03FFF8
FF03FFF8
FF03FFF8
7F03FFF8
7F83F800
7F83F800
7FC3F800
3FF7F800
3FFFFFFC
1FFFFFFC
0FFFFFFC
07FFFFFC
01FFFFFC
00180000
ENDCHAR
STARTCHAR 0278
ENCODING 632
SWIDTH 765 0
DWIDTH 34 0
BBX 31 38 1 -8
BITMAP
000FE000
000FE000
000FE000
000FE000
000FE000
000FE000
000FE000
000FE000
007FFE00
01FFFF80
07FFFFE0
0FFFFFF0
1FFFFFF8
3FFFFFFC
7FCFE3FC
7F8FE1FE
7F8FE1FE
7F0FE1FE
FF0FE0FE
FF0FE0FE
7F0FE1FE
7F8FE1FE
7F8FE1FE
7FCFE3FC
3FFFFFFC
1FFFFFF8
0FFFFFF0
07FFFFE0
03FFFF80
007FFC00
000FE000
000FE000
000FE000
000FE000
000FE000
000FE000
000FE000
000FE000
ENDCHAR
STARTCHAR 0279
ENCODING 633
SWIDTH 427 0
DWIDTH 19 0
BBX 16 23 0 0
BITMAP
00FF
00FF
00FF
00FF
00FF
00FF
00FF
00FF
00FF
00FF
00FF
00FF
00FF
00FF
01FF
03FF
7FFF
7FFF
7FFF
7FFF
FF7F
FE3F
F800
ENDCHAR
STARTCHAR 027A
ENCODING 634
SWIDTH 427 0
DWIDTH 19 0
BBX 16 31 0 0
BITMAP
00FF
00FF
00FF
00FF
00FF
00FF
00FF
00FF
00FF
00FF
00FF
00FF
00FF
00FF
00FF
00FF
00FF
00FF
00FF
00FF
00FF
00FF
01FF
03FF
7FFF
7FFF
7FFF
7FFF
FF7F
FE3F
F800
ENDCHAR
STARTCHAR 027B
ENCODING 635
SWIDTH 427 0
DWIDTH 19 0
BBX 20 31 0 -8
BITMAP
00FF00
00FF00
00FF00
00FF00
00FF00
00FF00
00FF00
00FF00
00FF00
00FF00
00FF00
00FF00
00FF00
00FF00
01FF00
03FF00
7FFF00
7FFF00
7FFF00
7FFF00
FF7F00
FE7F00
F87F00
007F00
007F80
007FE0
003FE0
003FF0
001FF0
000FF0
0007F0
ENDCHAR
STARTCHAR 027D
ENCODING 637
SWIDTH 427 0
DWIDTH 19 0
BBX 15 30 3 -8
BITMAP
FC1E
FC7E
FCFE
FDFE
FFFE
FFFE
FFFC
FF80
FF00
FF00
FE00
FE00
FE00
FE00
FE00
FE00
FE00
FE00
FE00
FE00
FE00
FE00
FE00
FF00
FFC0
FFE0
7FE0
7FE0
3FE0
0FE0
ENDCHAR
STARTCHAR 027E
ENCODING 638
SWIDTH 405 0
DWIDTH 18 0
BBX 15 23 3 -1
BITMAP
03FC
1FFE
3FFC
7FFC
7FFC
FFFC
FFFC
FF00
FF00
FE00
FE00
FE00
FE00
FE00
FE00
FE00
FE00
FE00
FE00
FE00
FE00
FE00
FE00
ENDCHAR
STARTCHAR 0280
ENCODING 640
SWIDTH 540 0
DWIDTH 24 0
BBX 21 22 3 0
BITMAP
FFF800
FFFF00
FFFF80
FFFFC0
FFFFC0
FFFFC0
FE1FE0
FE1FE0
FE1FE0
FE3FC0
FFFFC0
FFFF80
FFFF80
FFFF00
FFFF00
FE7F80
FE3FC0
FE3FC0
FE1FE0
FE1FE0
FE0FF0
FE0FF8
ENDCHAR
STARTCHAR 0281
ENCODING 641
SWIDTH 540 0
DWIDTH 24 0
BBX 21 22 1 0
BITMAP
FF07F8
FF87F8
7F87F8
7FC7F8
3FC7F8
1FE7F8
1FE7F8
0FFFF8
07FFF8
0FFFF8
1FFFF8
3FFFF8
3FC7F8
3F87F8
3F87F8
3F87F8
3FFFF8
3FFFF8
1FFFF8
1FFFF8
07FFF8
01FFF8
ENDCHAR
STARTCHAR 0282
ENCODING 642
SWIDTH 450 0
DWIDTH 20 0
BBX 18 30 1 -8
BITMAP
03F800
0FFF00
1FFF80
3FFF80
7FFF80
7FFF00
7F0600
7F8000
7FE000
3FFC00
3FFF00
0FFF80
07FF80
00FFC0
003FC0
381FC0
3FFFC0
7FFF80
FFFF80
FFFF00
FFFE00
FFF000
FE0000
FE0000
FFE000
7FE000
7FE000
3FE000
1FE000
0FE000
ENDCHAR
STARTCHAR 0283
ENCODING 643
SWIDTH 292 0
DWIDTH 13 0
BBX 17 40 -2 -8
BITMAP
003F80
00FF80
01FF80
03FF80
03FF80
07FF00
07F800
07F800
07F000
07F000
07F000
07F000
07F000
07F000
07F000
07F000
07F000
07F000
07F000
07F000
07F000
07F000
07F000
07F000
07F000
07F000
07F000
07F000
07F000
07F000
07F000
07F000
07F000
0FF000
7FF000
FFE000
FFE000
FFC000
FF8000
FE0000
ENDCHAR
STARTCHAR 0284
ENCODING 644
SWIDTH 337 0
DWIDTH 15 0
BBX 17 40 -1 -8
BITMAP
003F80
00FF80
01FF80
03FF80
03FF80
07FF00
07F800
07F800
07F000
07F000
07F000
07F000
07F000
07F000
07F000
07F000
07F000
07F000
0FFE00
3FFE00
3FFE00
3FFE00
07F000
07F000
07F000
07F000
07F000
07F000
07F000
07F000
07F000
07F000
07F000
0FF000
7FF000
FFE000
FFE000
FFC000
FF8000
FE0000
ENDCHAR
STARTCHAR 0288
ENCODING 648
SWIDTH 405 0
DWIDTH 18 0
BBX 16 36 1 -8
BITMAP
0FC0
0FC0
0FC0
1FC0
1FC0
1FC0
FFFE
FFFE
FFFE
FFFE
FFFE
FFFE
1FC0
1FC0
1FC0
1FC0
1FC0
1FC0
1FC0
1FC0
1FC0
1FC0
1FC0
1FC0
1FC0
1FC0
1FC0
1FC0
1FC0
1FE0
1FFE
1FFE
0FFE
0FFF
07FF
00FE
ENDCHAR
STARTCHAR 0289
ENCODING 649
SWIDTH 630 0
DWIDTH 28 0
BBX 26 22 1 0
BITMAP
1FC0FE00
1FC0FE00
1FC0FE00
1FC0FE00
1FC0FE00
1FC0FE00
1FFFFFC0
FFFFFFC0
FFFFFFC0
FFFFFFC0
1FC0FE00
1FC0FE00
1FC0FE00
1FC0FE00
1FE1FE00
1FFFFE00
1FFFFE00
1FFFFE00
0FFFFE00
0FFF7E00
07FE7E00
01F87E00
ENDCHAR
STARTCHAR 028A
ENCODING 650
SWIDTH 562 0
DWIDTH 25 0
BBX 23 22 1 0
BITMAP
FFC7FE
FFC7FE
FFC7FE
FFC7FE
FFC7FE
FFC7FE
1F83F0
3F83F8
3F81F8
7F01FC
7F01FC
7F01FC
7F01FC
7F81FC
7F83FC
7FC7FC
7FFFFC
3FFFF8
1FFFF0
0FFFE0
07FFC0
00FE00
ENDCHAR
STARTCHAR 028B
ENCODING 651
SWIDTH 562 0
DWIDTH 25 0
BBX 21 22 2 0
BITMAP
FF3F80
FF3FE0
FF1FF0
FF1FF0
FF1FF8
FF1FF8
FF07F8
FF07F8
FF03F8
FF03F8
FF03F8
FF03F8
FF07F8
FF07F8
7F07F8
7F8FF0
7FFFF0
3FFFE0
3FFFC0
1FFF80
0FFF00
01FC00
ENDCHAR
STARTCHAR 028C
ENCODING 652
SWIDTH 540 0
DWIDTH 24 0
BBX 22 22 1 0
BITMAP
03FF00
03FF00
03FF00
07FF80
07FF80
07FF80
0FFF80
0FDFC0
0FCFC0
0FCFC0
1FCFE0
1F8FE0
1F87E0
3F87F0
3F87F0
3F07F0
7F03F8
7F03F8
7F03F8
FE03FC
FE01FC
FE01FC
ENDCHAR
STARTCHAR 028D
ENCODING 653
SWIDTH 787 0
DWIDTH 35 0
BBX 33 22 1 0
BITMAP
07FC1FF000
07FC1FF000
07FE1FF800
0FFE1FF800
0FFE3FF800
0FFE3FF800
0FFE3FFC00
1FBF3FFC00
1FBF3EFC00
1FBF3EFC00
1F9F7CFE00
3F9F7CFE00
3F9F7CFE00
3F9FFCFE00
3F0FF8FF00
3F0FF87F00
7F0FF87F00
7F0FF87F00
7F0FF87F80
7F07F07F80
FE07F03F80
FE07F03F80
ENDCHAR
STARTCHAR 028E
ENCODING 654
SWIDTH 540 0
DWIDTH 24 0
BBX 22 31 1 1
BITMAP
0003F8
000FF8
001FF0
003FF0
007FF0
007FF0
00FF00
00FE00
01FE00
01FC00
01FC00
03FE00
03FE00
03FE00
07FF00
07FF00
07FF80
0FDF80
0FDF80
0FDFC0
1FCFC0
1F8FE0
1F8FE0
3F8FE0
3F87F0
3F07F0
7F07F8
7F03F8
7F03F8
FE03FC
FE01FC
ENDCHAR
STARTCHAR 028F
ENCODING 655
SWIDTH 495 0
DWIDTH 22 0
BBX 22 22 0 0
BITMAP
FF03FC
FF03F8
7F87F8
7F87F0
3F87F0
3FCFE0
1FCFE0
1FCFC0
0FFFC0
0FFFC0
07FF80
07FF80
03FF00
03FF00
03FE00
01FE00
01FE00
01FE00
01FE00
01FE00
01FE00
01FE00
ENDCHAR
STARTCHAR 0290
ENCODING 656
SWIDTH 472 0
DWIDTH 21 0
BBX 22 30 2 -8
BITMAP
7FFFC0
7FFFC0
7FFFC0
7FFFC0
7FFF80
7FFF80
00FF00
01FE00
03FE00
03FC00
07F800
0FF000
0FF000
1FE000
3FC000
7FC000
7FFFC0
FFFFC0
FFFFC0
FFFFC0
FFFFC0
FFFFC0
003FC0
003FC0
003FF8
001FF8
001FF8
000FF8
0007FC
0001F8
ENDCHAR
STARTCHAR 0291
ENCODING 657
SWIDTH 517 0
DWIDTH 23 0
BBX 22 26 2 -4
BITMAP
7FFF80
7FFF80
7FFF80
7FFF80
7FFF80
7FFF00
00FE00
01FE00
03FC00
03F800
07F9E0
0FF3F8
0FE7F8
1FEFFC
3FCF3C
7F9E3C
7FFCFC
FFFFFC
FFFFF8
FFFFF0
FFFFE0
FFFF80
007000
00F000
00F000
001000
ENDCHAR
STARTCHAR 0292
ENCODING 658
SWIDTH 472 0
DWIDTH 21 0
BBX 20 30 0 -8
BITMAP
3FFFE0
3FFFE0
3FFFE0
3FFFE0
3FFFE0
3FFFC0
003F80
007F00
00FF00
01FE00
03FC00
03F800
07FF00
0FFF80
07FFC0
07FFE0
03FFF0
001FF0
000FF0
000FF0
000FF0
000FF0
180FF0
3E3FE0
3FFFE0
7FFFE0
FFFFC0
3FFF80
1FFE00
03F800
ENDCHAR
STARTCHAR 0294
ENCODING 660
SWIDTH 450 0
DWIDTH 20 0
BBX 20 31 0 1
BITMAP
03F800
1FFF00
7FFF80
FFFFC0
FFFFE0
7FFFE0
3E3FE0
381FF0
100FF0
000FF0
000FF0
000FF0
001FE0
003FE0
003FC0
00FFC0
01FF80
07FF00
07FE00
07FC00
07F800
07F800
07F800
07F800
07F800
07F800
07F800
07F800
07F800
07F800
07F800
ENDCHAR
STARTCHAR 0295
ENCODING 661
SWIDTH 540 0
DWIDTH 24 0
BBX 20 31 2 1
BITMAP
01FE00
07FF80
1FFFE0
3FFFF0
7FFFF0
7FFFE0
FFC7C0
FF0180
FF0080
FF0000
FF0000
FF0000
FF8000
7F8000
7FC000
3FF000
1FF800
0FFC00
07FC00
03FC00
01FC00
01FC00
01FC00
01FC00
01FC00
01FC00
01FC00
01FC00
01FC00
01FC00
01FC00
ENDCHAR
STARTCHAR 0298
ENCODING 664
SWIDTH 562 0
DWIDTH 25 0
BBX 21 32 2 0
BITMAP
00FC00
07FF00
0FFF80
1FFFC0
1FFFE0
3FFFE0
3FCFF0
7F07F0
7F07F0
7F03F8
FE03F8
FE03F8
FE03F8
FE7BF8
FEFBF8
FEFFF8
FEFFF8
FEFBF8
FE73F8
FE03F8
FE03F8
FE03F8
7F03F8
7F07F0
7F07F0
3FCFF0
3FFFE0
1FFFE0
1FFFC0
0FFF80
07FF00
01FC00
ENDCHAR
STARTCHAR 0299
ENCODING 665
SWIDTH 540 0
DWIDTH 24 0
BBX 19 22 3 0
BITMAP
FFFC00
FFFF00
FFFFC0
FFFFC0
FFFFC0
FE1FE0
FE1FE0
FE1FC0
FFFFC0
FFFF00
FFFF00
FFFFC0
FFFFE0
FE1FE0
FE0FE0
FE0FE0
FE1FE0
FFFFE0
FFFFE0
FFFFC0
FFFF80
FFFC00
ENDCHAR
STARTCHAR 029C
ENCODING 668
SWIDTH 585 0
DWIDTH 26 0
BBX 21 22 3 0
BITMAP
FE07F8
FE07F8
FE07F8
FE07F8
FE07F8
FE07F8
FE07F8
FFFFF8
FFFFF8
FFFFF8
FFFFF8
FFFFF8
FFFFF8
FFFFF8
FE07F8
FE07F8
FE07F8
FE07F8
FE07F8
FE07F8
FE07F8
FE07F8
ENDCHAR
STARTCHAR 029D
ENCODING 669
SWIDTH 382 0
DWIDTH 17 0
BBX 22 44 -2 -11
BITMAP
000C00
003F00
007F80
007F80
007F80
007F80
007F00
001E00
000000
000000
000000
007F80
007F80
007F80
007F80
007F80
007F80
007F80
007F80
007F80
007F80
007F80
007F80
007F80
007F80
007F80
007F80
007F80
0FFF80
1FFF80
3FFF80
7FFF80
7FFF80
FC7F80
FC7FC0
FFFFE0
7FFFF0
7FFFF8
3FFFF8
1FF9FC
07E1FC
0000FC
0000E0
000080
ENDCHAR
STARTCHAR 029F
ENCODING 671
SWIDTH 450 0
DWIDTH 20 0
BBX 15 22 3 0
BITMAP
FE00
FE00
FE00
FE00
FE00
FE00
FE00
FE00
FE00
FE00
FE00
FE00
FE00
FE00
FE00
FE00
FFFE
FFFE
FFFE
FFFE
FFFE
FFFE
ENDCHAR
STARTCHAR 02A1
ENCODING 673
SWIDTH 495 0
DWIDTH 22 0
BBX 20 32 1 0
BITMAP
07F800
1FFE00
7FFF80
FFFFC0
FFFFC0
FFFFE0
7C3FE0
381FE0
000FE0
000FE0
000FE0
000FE0
001FE0
001FC0
003FC0
007F80
00FF00
01FE00
FFFFF0
FFFFF0
FFFFF0
FFFFF0
FFFFF0
FFFFF0
07F800
07F800
07F800
07F800
07F800
07F800
07F800
07F800
ENDCHAR
STARTCHAR 02A2
ENCODING 674
SWIDTH 495 0
DWIDTH 22 0
BBX 20 32 1 0
BITMAP
01FE00
07FF80
1FFFE0
3FFFF0
3FFFF0
7FFFE0
7FC3E0
7F81C0
FF0080
FF0000
FF0000
7F0000
7F8000
3F8000
3FC000
1FE000
0FF000
07F800
FFFFF0
FFFFF0
FFFFF0
FFFFF0
FFFFF0
FFFFF0
01FE00
01FE00
01FE00
01FE00
01FE00
01FE00
01FE00
01FE00
ENDCHAR
STARTCHAR 02B0
ENCODING 688
SWIDTH 382 0
DWIDTH 17 0
BBX 14 20 2 17
BITMAP
F800
F800
F800
F800
F800
F9E0
FFF8
FFF8
FFFC
FFFC
F8FC
F8FC
F8FC
F8FC
F8FC
F8FC
F8FC
F8FC
F8FC
F8FC
ENDCHAR
STARTCHAR 02B2
ENCODING 690
SWIDTH 202 0
DWIDTH 9 0
BBX 9 27 -2 11
BITMAP
0700
0F80
0F80
0F80
0F00
0000
0000
0F80
0F80
0F80
0F80
0F80
0F80
0F80
0F80
0F80
0F80
0F80
0F80
0F80
0F80
0F80
0F80
7F80
7F00
7F00
FC00
ENDCHAR
STARTCHAR 02B3
ENCODING 691
SWIDTH 292 0
DWIDTH 13 0
BBX 11 15 2 17
BITMAP
F1E0
F3C0
F7C0
FFC0
FFC0
FC00
F800
F800
F800
F800
F800
F800
F800
F800
F800
ENDCHAR
STARTCHAR 02B7
ENCODING 695
SWIDTH 540 0
DWIDTH 24 0
BBX 22 15 1 17
BITMAP
F8787C
F87C7C
F8FC7C
7CFC78
7CFC78
7CFEF8
7DFEF8
7DFEF0
3DFEF0
3DCEF0
3FCEF0
3FCFF0
1FCFE0
1FCFE0
1F87E0
ENDCHAR
STARTCHAR 02B8
ENCODING 696
SWIDTH 360 0
DWIDTH 16 0
BBX 15 20 1 11
BITMAP
F83E
F87C
F87C
7C7C
7C78
3CF8
3EF8
3EF0
1EF0
1EF0
0FE0
0FE0
0FE0
07C0
07C0
0FC0
7F80
7F00
7F00
7C00
ENDCHAR
STARTCHAR 02B9
ENCODING 697
SWIDTH 315 0
DWIDTH 14 0
BBX 8 14 4 16
BITMAP
FF
FF
FF
FE
FE
FE
FE
FC
FC
FC
FC
F8
F8
F8
ENDCHAR
STARTCHAR 02BB
ENCODING 699
SWIDTH 315 0
DWIDTH 14 0
BBX 9 17 2 13
BITMAP
0100
0700
0F00
1F80
3E00
7C00
7800
7800
7800
FE00
FF00
FF80
7F80
7F80
7F80
3F00
0C00
ENDCHAR
STARTCHAR 02BC
ENCODING 700
SWIDTH 315 0
DWIDTH 14 0
BBX 9 16 3 15
BITMAP
3C00
7F00
7F00
FF00
FF80
7F80
7F80
1F80
0780
0F00
0F00
1F00
3E00
FC00
7800
7000
ENDCHAR
STARTCHAR 02BE
ENCODING 702
SWIDTH 180 0
DWIDTH 8 0
BBX 7 10 1 24
BITMAP
E0
F8
FC
3C
1E
1E
3C
FC
F8
E0
ENDCHAR
STARTCHAR 02BF
ENCODING 703
SWIDTH 180 0
DWIDTH 8 0
BBX 7 10 0 24
BITMAP
0E
3E
7E
78
F0
F0
78
7E
3E
0E
ENDCHAR
STARTCHAR 02C1
ENCODING 705
SWIDTH 360 0
DWIDTH 16 0
BBX 14 21 1 16
BITMAP
07E0
1FF8
3FFC
7FF8
7E70
FC10
FC00
FC00
7C00
7E00
3F80
1FC0
0FC0
07C0
07C0
07C0
07C0
07C0
07C0
07C0
07C0
ENDCHAR
STARTCHAR 02C6
ENCODING 710
SWIDTH 562 0
DWIDTH 25 0
BBX 17 8 4 25
BITMAP
0FF800
1FFC00
3FFC00
3FFE00
7FFF00
FE3F80
781F00
300600
ENDCHAR
STARTCHAR 02C7
ENCODING 711
SWIDTH 562 0
DWIDTH 25 0
BBX 17 9 4 25
BITMAP
200000
780F00
FC1F80
FF7F80
7FFF00
3FFE00
1FFC00
0FF800
0FF000
ENDCHAR
STARTCHAR 02C8
ENCODING 712
SWIDTH 157 0
DWIDTH 7 0
BBX 6 9 1 24
BITMAP
FC
FC
F8
F8
F8
F8
F8
F8
F8
ENDCHAR
STARTCHAR 02C9
ENCODING 713
SWIDTH 315 0
DWIDTH 14 0
BBX 14 5 0 27
BITMAP
FFFC
FFFC
FFFC
FFFC
FFFC
ENDCHAR
STARTCHAR 02CA
ENCODING 714
SWIDTH 247 0
DWIDTH 11 0
BBX 11 12 3 25
BITMAP
0200
0700
0F80
1FC0
1FE0
3FE0
7FC0
FF80
FE00
7C00
3800
1000
ENDCHAR
STARTCHAR 02CB
ENCODING 715
SWIDTH 247 0
DWIDTH 11 0
BBX 12 12 -4 25
BITMAP
0400
0C00
1E00
3F00
FF80
7FC0
3FE0
1FF0
0FF0
07E0
01C0
0080
ENDCHAR
STARTCHAR 02CC
ENCODING 716
SWIDTH 157 0
DWIDTH 7 0
BBX 6 9 1 -12
BITMAP
F8
F8
F8
F8
F8
F8
FC
FC
FC
ENDCHAR
STARTCHAR 02D0
ENCODING 720
SWIDTH 315 0
DWIDTH 14 0
BBX 10 22 2 0
BITMAP
FFC0
7FC0
7F80
3F80
3F00
1F00
1E00
0C00
0C00
0000
0000
0000
0000
0C00
0C00
1E00
1F00
3F00
3F80
7F80
7FC0
FFC0
ENDCHAR
STARTCHAR 02D1
ENCODING 721
SWIDTH 315 0
DWIDTH 14 0
BBX 10 9 2 13
BITMAP
FFC0
7FC0
7F80
3F80
3F00
1F00
1E00
0C00
0C00
ENDCHAR
STARTCHAR 02D8
ENCODING 728
SWIDTH 562 0
DWIDTH 25 0
BBX 15 8 5 25
BITMAP
F01E
F83E
FC7E
FFFE
7FFC
7FF8
1FF0
07C0
ENDCHAR
STARTCHAR 02D9
ENCODING 729
SWIDTH 562 0
DWIDTH 25 0
BBX 9 8 8 25
BITMAP
0800
7E00
7F00
FF00
FF80
7F00
7F00
3E00
ENDCHAR
STARTCHAR 02DA
ENCODING 730
SWIDTH 562 0
DWIDTH 25 0
BBX 13 10 6 25
BITMAP
0700
3FE0
7FF0
78F0
F8F8
F8F8
F8F0
7FF0
3FE0
0F00
ENDCHAR
STARTCHAR 02DB
ENCODING 731
SWIDTH 562 0
DWIDTH 25 0
BBX 10 9 8 -10
BITMAP
1E00
3C00
7C00
7800
FC00
FF80
FFC0
7FC0
3F80
ENDCHAR
STARTCHAR 02DC
ENCODING 732
SWIDTH 562 0
DWIDTH 25 0
BBX 17 7 4 26
BITMAP
1F0F80
7FCF80
7FFF80
FFFF80
FFFF00
F9FF00
F87C00
ENDCHAR
STARTCHAR 02DD
ENCODING 733
SWIDTH 562 0
DWIDTH 25 0
BBX 17 10 6 25
BITMAP
080C00
1E0F00
1F9F80
3F1F80
3F3F00
7E3E00
7C7E00
FC7C00
787C00
100800
ENDCHAR
STARTCHAR 02DE
ENCODING 734
SWIDTH 202 0
DWIDTH 9 0
BBX 15 11 -5 10
BITMAP
0080
0780
1F80
7F80
FFC0
FFC0
FFE4
F3FC
C3FC
01FE
007C
ENDCHAR
STARTCHAR 02E0
ENCODING 736
SWIDTH 360 0
DWIDTH 16 0
BBX 16 21 0 10
BITMAP
FC1F
7C1F
7C3E
3E3E
3E3C
3E7C
1E7C
1F78
1F78
0FF8
0FF0
07F0
07F0
0FF8
0F78
1F78
1E78
1F78
0FF8
0FF0
03E0
ENDCHAR
STARTCHAR 02E1
ENCODING 737
SWIDTH 202 0
DWIDTH 9 0
BBX 7 21 2 16
BITMAP
F8
F8
F8
F8
F8
F8
F8
F8
F8
F8
F8
F8
F8
F8
F8
F8
F8
FC
FE
7E
3E
ENDCHAR
STARTCHAR 02E2
ENCODING 738
SWIDTH 292 0
DWIDTH 13 0
BBX 12 16 1 16
BITMAP
0F80
3FE0
7FE0
7FE0
F8C0
FC00
7F80
7FC0
3FE0
0FF0
03F0
71F0
7FF0
FFE0
7FC0
1F00
ENDCHAR
STARTCHAR 02E3
ENCODING 739
SWIDTH 360 0
DWIDTH 16 0
BBX 16 15 0 17
BITMAP
7E3E
7E3E
3F7C
1F7C
1FF8
0FF8
0FF0
07F0
0FF0
1FF8
1FF8
3EFC
3E7C
7C3E
FC3F
ENDCHAR
STARTCHAR 0300
ENCODING 768
SWIDTH 0 0
DWIDTH 0 0
BBX 12 12 -9 25
BITMAP
0800
1C00
3E00
7F00
FF80
FFC0
7FC0
1FE0
0FF0
07E0
03C0
0180
ENDCHAR
STARTCHAR 0301
ENCODING 769
SWIDTH 0 0
DWIDTH 0 0
BBX 12 12 -3 25
BITMAP
0100
0380
07C0
0FE0
1FF0
3FF0
3FE0
7F80
FF00
7E00
3C00
1000
ENDCHAR
STARTCHAR 0302
ENCODING 770
SWIDTH 0 0
DWIDTH 0 0
BBX 16 8 -8 25
BITMAP
0FF0
1FF8
3FFC
7FFE
FFFF
FE7F
F81F
700E
ENDCHAR
STARTCHAR 0303
ENCODING 771
SWIDTH 0 0
DWIDTH 0 0
BBX 18 7 -9 26
BITMAP
1F87C0
3FC7C0
7FFFC0
7FFF80
7FFF80
F8FF00
F87E00
ENDCHAR
STARTCHAR 0304
ENCODING 772
SWIDTH 0 0
DWIDTH 0 0
BBX 14 5 -7 27
BITMAP
FFFC
FFFC
FFFC
FFFC
FFFC
ENDCHAR
STARTCHAR 0305
ENCODING 773
SWIDTH 0 0
DWIDTH 0 0
BBX 14 5 -7 27
BITMAP
FFFC
FFFC
FFFC
FFFC
FFFC
ENDCHAR
STARTCHAR 0306
ENCODING 774
SWIDTH 0 0
DWIDTH 0 0
BBX 16 8 -8 25
BITMAP
781E
F81F
7C3F
7FFE
7FFE
3FFC
1FF8
03C0
ENDCHAR
STARTCHAR 0307
ENCODING 775
SWIDTH 0 0
DWIDTH 0 0
BBX 8 8 -4 25
BITMAP
18
7E
FF
FF
FF
FF
7E
3C
ENDCHAR
STARTCHAR 0308
ENCODING 776
SWIDTH 0 0
DWIDTH 0 0
BBX 18 7 -9 25
BITMAP
3C0F00
7E1F80
7E1FC0
FE3FC0
7E1F80
7E1F80
3C0F00
ENDCHAR
STARTCHAR 0309
ENCODING 777
SWIDTH 0 0
DWIDTH 0 0
BBX 9 11 -4 25
BITMAP
F000
FC00
FF00
FF00
FF00
1F80
1F80
1F00
7F00
3E00
3800
ENDCHAR
STARTCHAR 030A
ENCODING 778
SWIDTH 0 0
DWIDTH 0 0
BBX 12 10 -6 25
BITMAP
0F00
3FE0
7FF0
F9F0
F0F0
F0F0
F9F0
7FE0
7FC0
0F00
ENDCHAR
STARTCHAR 030B
ENCODING 779
SWIDTH 0 0
DWIDTH 0 0
BBX 17 10 -6 25
BITMAP
180800
1E1E00
3F1F80
3F3F00
7E3F00
7E7E00
FC7C00
F8FC00
F87800
101000
ENDCHAR
STARTCHAR 030C
ENCODING 780
SWIDTH 0 0
DWIDTH 0 0
BBX 16 9 -8 25
BITMAP
2004
700E
FC3F
FE7F
7FFE
7FFC
3FFC
1FF8
0FF0
ENDCHAR
STARTCHAR 030F
ENCODING 783
SWIDTH 0 0
DWIDTH 0 0
BBX 17 10 -11 25
BITMAP
080C00
3C3C00
FCFE00
7E7E00
7E3F00
3F3F00
1F1F80
1F8F80
0F0F80
040400
ENDCHAR
STARTCHAR 0311
ENCODING 785
SWIDTH 0 0
DWIDTH 0 0
BBX 16 8 -8 25
BITMAP
07E0
1FF8
3FFC
7FFE
7FFE
FC3F
F81F
1818
ENDCHAR
STARTCHAR 0312
ENCODING 786
SWIDTH 0 0
DWIDTH 0 0
BBX 5 9 -3 28
BITMAP
38
78
F0
E0
F8
F8
F8
F8
78
ENDCHAR
STARTCHAR 0313
ENCODING 787
SWIDTH 0 0
DWIDTH 0 0
BBX 6 10 -3 26
BITMAP
78
7C
FC
FC
7C
1C
1C
78
70
40
ENDCHAR
STARTCHAR 0318
ENCODING 792
SWIDTH 0 0
DWIDTH 0 0
BBX 9 9 -4 -11
BITMAP
0780
0780
0780
FF80
FF80
FF80
FF80
0780
0780
ENDCHAR
STARTCHAR 0319
ENCODING 793
SWIDTH 0 0
DWIDTH 0 0
BBX 9 9 -5 -11
BITMAP
F000
F000
F000
FF80
FF80
FF80
FF80
F000
F000
ENDCHAR
STARTCHAR 031A
ENCODING 794
SWIDTH 0 0
DWIDTH 0 0
BBX 9 7 -4 26
BITMAP
FF80
FF80
FF80
FF80
0780
0780
0780
ENDCHAR
STARTCHAR 031B
ENCODING 795
SWIDTH 0 0
DWIDTH 0 0
BBX 9 11 0 19
BITMAP
0200
0F00
3F00
3F80
3F80
3F00
3F00
7F00
FE00
FC00
E000
ENDCHAR
STARTCHAR 031C
ENCODING 796
SWIDTH 0 0
DWIDTH 0 0
BBX 7 10 -4 -12
BITMAP
0E
3E
7E
78
F0
F0
78
7E
3E
0E
ENDCHAR
STARTCHAR 031D
ENCODING 797
SWIDTH 0 0
DWIDTH 0 0
BBX 10 9 -5 -11
BITMAP
1E00
1E00
1E00
1E00
1E00
FFC0
FFC0
FFC0
FFC0
ENDCHAR
STARTCHAR 031E
ENCODING 798
SWIDTH 0 0
DWIDTH 0 0
BBX 10 9 -5 -12
BITMAP
FFC0
FFC0
FFC0
FFC0
1E00
1E00
1E00
1E00
1E00
ENDCHAR
STARTCHAR 031F
ENCODING 799
SWIDTH 0 0
DWIDTH 0 0
BBX 10 9 -5 -11
BITMAP
1E00
1E00
1E00
FFC0
FFC0
FFC0
FFC0
1E00
1E00
ENDCHAR
STARTCHAR 0320
ENCODING 800
SWIDTH 0 0
DWIDTH 0 0
BBX 10 4 -5 -9
BITMAP
FFC0
FFC0
FFC0
FFC0
ENDCHAR
STARTCHAR 0323
ENCODING 803
SWIDTH 0 0
DWIDTH 0 0
BBX 8 8 -4 -11
BITMAP
3C
7E
FF
FF
FF
FF
7E
18
ENDCHAR
STARTCHAR 0324
ENCODING 804
SWIDTH 0 0
DWIDTH 0 0
BBX 18 7 -9 -10
BITMAP
3C0F00
7E1F80
7E1FC0
FE3FC0
7E1F80
7E1F80
3C0F00
ENDCHAR
STARTCHAR 0325
ENCODING 805
SWIDTH 0 0
DWIDTH 0 0
BBX 12 10 -6 -11
BITMAP
0F00
3FE0
7FF0
F9F0
F0F0
F0F0
F9F0
7FE0
7FC0
0F00
ENDCHAR
STARTCHAR 0326
ENCODING 806
SWIDTH 0 0
DWIDTH 0 0
BBX 10 9 -5 -11
BITMAP
1000
3F00
3F80
1FC0
0FC0
1F80
FF80
FE00
F000
ENDCHAR
STARTCHAR 0327
ENCODING 807
SWIDTH 0 0
DWIDTH 0 0
BBX 10 11 -5 -11
BITMAP
1E00
3E00
3C00
7F00
7F80
0F80
0FC0
1F80
FF80
FE00
F000
ENDCHAR
STARTCHAR 0328
ENCODING 808
SWIDTH 0 0
DWIDTH 0 0
BBX 10 9 -4 -10
BITMAP
3C00
7C00
7800
F800
F800
FF80
FF80
FFC0
7F80
ENDCHAR
STARTCHAR 0329
ENCODING 809
SWIDTH 0 0
DWIDTH 0 0
BBX 6 9 -3 -12
BITMAP
FC
FC
FC
FC
FC
FC
FC
FC
FC
ENDCHAR
STARTCHAR 032A
ENCODING 810
SWIDTH 0 0
DWIDTH 0 0
BBX 12 7 -6 -10
BITMAP
FFF0
FFF0
FFF0
FFF0
F0F0
F0F0
F0F0
ENDCHAR
STARTCHAR 032C
ENCODING 812
SWIDTH 0 0
DWIDTH 0 0
BBX 16 8 -8 -10
BITMAP
700E
F81F
FE7F
FFFF
7FFE
3FFC
1FF8
0FF0
ENDCHAR
STARTCHAR 032E
ENCODING 814
SWIDTH 0 0
DWIDTH 0 0
BBX 16 8 -8 -11
BITMAP
781E
F81F
7C3F
7FFE
7FFE
3FFC
1FF8
03C0
ENDCHAR
STARTCHAR 032F
ENCODING 815
SWIDTH 0 0
DWIDTH 0 0
BBX 16 8 -8 -11
BITMAP
03C0
1FF8
3FFC
7FFE
7FFE
7C3F
F81F
781E
ENDCHAR
STARTCHAR 0330
ENCODING 816
SWIDTH 0 0
DWIDTH 0 0
BBX 18 7 -9 -10
BITMAP
1F87C0
3FC7C0
7FFFC0
7FFF80
7FFF80
F8FF00
F87E00
ENDCHAR
STARTCHAR 0331
ENCODING 817
SWIDTH 0 0
DWIDTH 0 0
BBX 14 5 -7 -9
BITMAP
FFFC
FFFC
FFFC
FFFC
FFFC
ENDCHAR
STARTCHAR 0334
ENCODING 820
SWIDTH 0 0
DWIDTH 0 0
BBX 18 7 -9 8
BITMAP
1F87C0
3FC7C0
7FFFC0
7FFF80
7FFF80
F8FF00
F87E00
ENDCHAR
STARTCHAR 0339
ENCODING 825
SWIDTH 0 0
DWIDTH 0 0
BBX 7 10 -3 -12
BITMAP
E0
F8
FC
3C
1E
1E
3C
FC
F8
E0
ENDCHAR
STARTCHAR 033A
ENCODING 826
SWIDTH 0 0
DWIDTH 0 0
BBX 12 7 -6 -10
BITMAP
F0F0
F0F0
F0F0
FFF0
FFF0
FFF0
FFF0
ENDCHAR
STARTCHAR 033B
ENCODING 827
SWIDTH 0 0
DWIDTH 0 0
BBX 12 8 -6 -11
BITMAP
FFF0
FFF0
FFF0
F0F0
F0F0
FFF0
FFF0
FFF0
ENDCHAR
STARTCHAR 033C
ENCODING 828
SWIDTH 0 0
DWIDTH 0 0
BBX 18 8 -9 -11
BITMAP
061800
3F3F00
7FFF80
7FFF80
7FFF80
F9E7C0
F1E3C0
F1E3C0
ENDCHAR
STARTCHAR 033D
ENCODING 829
SWIDTH 0 0
DWIDTH 0 0
BBX 10 9 -5 25
BITMAP
3300
7F80
7F80
3F00
3F00
7F80
FFC0
7380
2100
ENDCHAR
STARTCHAR 0342
ENCODING 834
SWIDTH 0 0
DWIDTH 0 0
BBX 18 7 -9 26
BITMAP
1F87C0
3FC7C0
7FFFC0
7FFF80
7FFF80
F8FF00
F87E00
ENDCHAR
STARTCHAR 0345
ENCODING 837
SWIDTH 0 0
DWIDTH 0 0
BBX 9 8 -3 -10
BITMAP
F800
F800
F800
FF00
FF00
7F00
7F00
1F80
ENDCHAR
STARTCHAR 0361
ENCODING 865
SWIDTH 0 0
DWIDTH 0 0
BBX 40 9 -20 24
BITMAP
0001FF8000
003FFFFC00
03FFFFFFC0
0FFFFFFFF0
3FFFFFFFFC
FFF8001FFF
FF000000FF
780000001E
6000000006
ENDCHAR
STARTCHAR 0374
ENCODING 884
SWIDTH 315 0
DWIDTH 14 0
BBX 8 14 4 16
BITMAP
FF
FF
FF
FE
FE
FE
FE
FC
FC
FC
FC
F8
F8
F8
ENDCHAR
STARTCHAR 0375
ENCODING 885
SWIDTH 315 0
DWIDTH 14 0
BBX 9 14 2 0
BITMAP
1F80
1F00
1F00
1F00
3F00
3F00
3F00
7F00
7F00
7F00
7F00
7F00
FF00
FF00
ENDCHAR
STARTCHAR 037A
ENCODING 890
SWIDTH 562 0
DWIDTH 25 0
BBX 8 8 10 -10
BITMAP
F8
F8
F8
FE
FE
FF
7F
3F
ENDCHAR
STARTCHAR 037E
ENCODING 894
SWIDTH 315 0
DWIDTH 14 0
BBX 10 31 2 -10
BITMAP
1E00
3F00
7F80
7F80
7FC0
7F80
7F80
3F80
1F00
0000
0000
0000
0000
0000
3F00
7F80
7FC0
7FC0
7FC0
7FC0
3FC0
1FC0
07C0
07C0
07C0
0F80
3F80
FF00
FE00
7C00
7000
ENDCHAR
STARTCHAR 0384
ENCODING 900
SWIDTH 562 0
DWIDTH 25 0
BBX 8 11 10 25
BITMAP
70
7F
7F
7F
FE
FE
FC
FC
FC
F8
38
ENDCHAR
STARTCHAR 0385
ENCODING 901
SWIDTH 562 0
DWIDTH 25 0
BBX 18 11 3 26
BITMAP
00C000
00FC00
00F800
00F800
00F000
38F380
7CF7C0
FDE7C0
7DE7C0
79E7C0
00C000
ENDCHAR
STARTCHAR 0386
ENCODING 902
SWIDTH 652 0
DWIDTH 29 0
BBX 29 30 0 0
BITMAP
70000000
7E1FF000
FE1FF800
FC3FF800
FC3FF800
FC3FFC00
FC7FFC00
F87EFC00
F87EFE00
F8FEFE00
10FEFE00
00FC7E00
00FC7F00
01FC7F00
01FC7F00
01F83F80
03F83F80
03F83F80
03FFFFC0
07FFFFC0
07FFFFC0
07FFFFC0
0FFFFFE0
0FFFFFE0
0FE00FE0
0FE00FF0
1FE00FF0
1FE00FF0
1FC007F8
3FC007F8
ENDCHAR
STARTCHAR 0387
ENCODING 903
SWIDTH 315 0
DWIDTH 14 0
BBX 9 9 3 13
BITMAP
3C00
7E00
FF00
FF00
FF80
FF00
FF00
7F00
3E00
ENDCHAR
STARTCHAR 0388
ENCODING 904
SWIDTH 697 0
DWIDTH 31 0
BBX 29 30 0 0
BITMAP
70000000
7E7FFFF0
FE7FFFF0
FC7FFFF0
FC7FFFF0
FC7FFFF0
FC7FFFF0
F87F8000
F87F8000
F87F8000
107F8000
007F8000
007FFFC0
007FFFC0
007FFFC0
007FFFC0
007FFFC0
007FFFC0
007F8000
007F8000
007F8000
007F8000
007F8000
007F8000
007FFFF8
007FFFF8
007FFFF8
007FFFF8
007FFFF8
007FFFF8
ENDCHAR
STARTCHAR 0389
ENCODING 905
SWIDTH 832 0
DWIDTH 37 0
BBX 33 30 0 0
BITMAP
7000000000
7E7F803F80
FE7F803F80
FC7F803F80
FC7F803F80
FC7F803F80
FC7F803F80
F87F803F80
F87F803F80
F87F803F80
307F803F80
007F803F80
007FFFFF80
007FFFFF80
007FFFFF80
007FFFFF80
007FFFFF80
007FFFFF80
007FFFFF80
007F803F80
007F803F80
007F803F80
007F803F80
007F803F80
007F803F80
007F803F80
007F803F80
007F803F80
007F803F80
007F803F80
ENDCHAR
STARTCHAR 038A
ENCODING 906
SWIDTH 450 0
DWIDTH 20 0
BBX 17 30 0 0
BITMAP
700000
7E7F80
FE7F80
FC7F80
FC7F80
FC7F80
FC7F80
F87F80
F87F80
F87F80
107F80
007F80
007F80
007F80
007F80
007F80
007F80
007F80
007F80
007F80
007F80
007F80
007F80
007F80
007F80
007F80
007F80
007F80
007F80
007F80
ENDCHAR
STARTCHAR 038C
ENCODING 908
SWIDTH 810 0
DWIDTH 36 0
BBX 34 30 0 0
BITMAP
7000000000
7E00FF0000
7E03FFE000
FC0FFFF800
FC1FFFFC00
FC3FFFFE00
FC7FFFFE00
F87FFFFF00
F8FF81FF00
F8FF00FF80
79FF007F80
01FE007F80
01FE003FC0
01FE003FC0
01FE003FC0
01FE003FC0
01FE003FC0
01FE003FC0
01FE003F80
01FE007F80
00FF007F80
00FF00FF80
00FF81FF00
007FFFFF00
007FFFFE00
003FFFFC00
001FFFFC00
000FFFF000
0003FFE000
0000FF0000
ENDCHAR
STARTCHAR 038E
ENCODING 910
SWIDTH 742 0
DWIDTH 33 0
BBX 33 30 0 0
BITMAP
7000000000
7E7F807F80
FE7F807F80
FC3FC07F00
FC3FC0FF00
FC3FC0FE00
FC1FE0FE00
F81FE1FE00
F80FE1FC00
F80FF1FC00
1007F3F800
0007F3F800
0003FFF000
0003FFF000
0001FFE000
0001FFE000
0000FFC000
0000FFC000
0000FF8000
00007F8000
00007F8000
00007F8000
00007F8000
00007F8000
00007F8000
00007F8000
00007F8000
00007F8000
00007F8000
00007F8000
ENDCHAR
STARTCHAR 038F
ENCODING 911
SWIDTH 832 0
DWIDTH 37 0
BBX 36 30 -1 0
BITMAP
7000000000
7F003FC000
7E01FFF800
7E03FFFC00
7E07FFFF00
7C0FFFFF00
7C1FFFFF80
FC3FFFFFC0
FC3FE07FC0
F87FC03FE0
187F801FE0
007F801FE0
007F801FE0
007F001FE0
007F000FE0
007F000FE0
007F000FE0
007F801FE0
007F801FE0
003F801FC0
003F801FC0
001FC03F80
001FE07F80
000FE07F00
00FFF0FFF0
00FFF0FFF0
00FFF0FFF0
00FFF0FFF0
00FFF0FFF0
00FFF0FFF0
ENDCHAR
STARTCHAR 0390
ENCODING 912
SWIDTH 315 0
DWIDTH 14 0
BBX 18 37 -3 0
BITMAP
00C000
00F800
00F800
00F800
00F000
38F380
7DF7C0
FDE7C0
7DE7C0
79E7C0
00C000
000000
000000
000000
000000
03F800
03F800
03F800
03F800
03F800
03F800
03F800
03F800
03F800
03F800
03F800
03F800
03F800
03F800
03F800
03F800
03FF00
03FF00
03FF80
01FF80
00FF80
007F00
ENDCHAR
STARTCHAR 0391
ENCODING 913
SWIDTH 585 0
DWIDTH 26 0
BBX 26 29 0 0
BITMAP
00FFC000
00FFC000
00FFC000
01FFE000
01FFE000
01FFE000
03FFF000
03F7F000
03F3F000
07F3F000
07F3F800
07F3F800
07E3F800
0FE1FC00
0FE1FC00
0FE1FC00
1FC1FE00
1FFFFE00
1FFFFE00
3FFFFF00
3FFFFF00
3FFFFF00
3FFFFF00
7F807F80
7F007F80
7F007F80
FF003FC0
FF003FC0
FE003FC0
ENDCHAR
STARTCHAR 0392
ENCODING 914
SWIDTH 607 0
DWIDTH 27 0
BBX 23 29 3 0
BITMAP
FFFF00
FFFFC0
FFFFF0
FFFFF8
FFFFF8
FFFFF8
FF07FC
FF03FC
FF03F8
FF03F8
FF07F8
FFFFF0
FFFFE0
FFFFC0
FFFFF0
FFFFF8
FFFFFC
FF03FC
FF01FE
FF01FE
FF01FE
FF01FE
FF03FE
FFFFFC
FFFFFC
FFFFF8
FFFFF0
FFFFE0
FFFF00
ENDCHAR
STARTCHAR 0393
ENCODING 915
SWIDTH 540 0
DWIDTH 24 0
BBX 19 29 3 0
BITMAP
FFFFE0
FFFFE0
FFFFE0
FFFFE0
FFFFE0
FFFFE0
FF0000
FF0000
FF0000
FF0000
FF0000
FF0000
FF0000
FF0000
FF0000
FF0000
FF0000
FF0000
FF0000
FF0000
FF0000
FF0000
FF0000
FF0000
FF0000
FF0000
FF0000
FF0000
FF0000
ENDCHAR
STARTCHAR 0394
ENCODING 916
SWIDTH 652 0
DWIDTH 29 0
BBX 26 29 2 0
BITMAP
00FF8000
00FFC000
01FFC000
01FFE000
03FFE000
03FFE000
03F7F000
07F7F000
07F7F000
07E3F800
0FE3F800
0FE3F800
0FE3FC00
1FC1FC00
1FC1FC00
1FC1FE00
3F80FE00
3F80FE00
3F80FF00
7F80FF00
7F007F00
7F007F80
FF007F80
FFFFFF80
FFFFFFC0
FFFFFFC0
FFFFFFC0
FFFFFFC0
FFFFFFC0
ENDCHAR
STARTCHAR 0395
ENCODING 917
SWIDTH 562 0
DWIDTH 25 0
BBX 19 29 3 0
BITMAP
FFFFE0
FFFFE0
FFFFE0
FFFFE0
FFFFE0
FFFFE0
FF0000
FF0000
FF0000
FF0000
FF0000
FFFF80
FFFF80
FFFF80
FFFF80
FFFF80
FFFF80
FF0000
FF0000
FF0000
FF0000
FF0000
FF0000
FFFFE0
FFFFE0
FFFFE0
FFFFE0
FFFFE0
FFFFE0
ENDCHAR
STARTCHAR 0396
ENCODING 918
SWIDTH 540 0
DWIDTH 24 0
BBX 22 29 1 0
BITMAP
3FFFFC
3FFFFC
3FFFFC
3FFFFC
3FFFFC
3FFFF8
000FF0
000FF0
001FE0
003FC0
003FC0
007F80
00FF00
00FF00
01FE00
03FE00
03FC00
07F800
0FF800
0FF000
1FE000
3FE000
3FC000
7FFFFC
FFFFFC
FFFFFC
FFFFFC
FFFFFC
FFFFFC
ENDCHAR
STARTCHAR 0397
ENCODING 919
SWIDTH 675 0
DWIDTH 30 0
BBX 24 29 3 0
BITMAP
FF00FF
FF00FF
FF00FF
FF00FF
FF00FF
FF00FF
FF00FF
FF00FF
FF00FF
FF00FF
FF00FF
FFFFFF
FFFFFF
FFFFFF
FFFFFF
FFFFFF
FFFFFF
FFFFFF
FF00FF
FF00FF
FF00FF
FF00FF
FF00FF
FF00FF
FF00FF
FF00FF
FF00FF
FF00FF
FF00FF
ENDCHAR
STARTCHAR 0398
ENCODING 920
SWIDTH 697 0
DWIDTH 31 0
BBX 27 29 2 0
BITMAP
003F8000
01FFF000
07FFFC00
0FFFFE00
1FFFFF00
3FFFFF00
3FFFFF80
7FC0FFC0
7F807FC0
7F803FC0
FF003FC0
FF7F9FE0
FF7F9FE0
FF7F9FE0
FF7F9FE0
FF7F9FE0
FF7F9FE0
FF7F9FE0
FF003FC0
7F803FC0
7F807FC0
7FC0FF80
3FFFFF80
3FFFFF00
1FFFFF00
0FFFFE00
07FFF800
01FFF000
007F8000
ENDCHAR
STARTCHAR 0399
ENCODING 921
SWIDTH 315 0
DWIDTH 14 0
BBX 8 29 3 0
BITMAP
FF
FF
FF
FF
FF
FF
FF
FF
FF
FF
FF
FF
FF
FF
FF
FF
FF
FF
FF
FF
FF
FF
FF
FF
FF
FF
FF
FF
FF
ENDCHAR
STARTCHAR 039A
ENCODING 922
SWIDTH 630 0
DWIDTH 28 0
BBX 25 29 3 0
BITMAP
FF01FE00
FF03FE00
FF03FC00
FF07F800
FF0FF000
FF0FF000
FF1FE000
FF3FC000
FF3F8000
FF7F8000
FFFF0000
FFFE0000
FFFE0000
FFFF0000
FFFF8000
FFFF8000
FFFFC000
FFFFC000
FFDFE000
FF8FF000
FF8FF000
FF07F800
FF07F800
FF03FC00
FF03FE00
FF01FE00
FF00FF00
FF00FF00
FF007F80
ENDCHAR
STARTCHAR 039B
ENCODING 923
SWIDTH 562 0
DWIDTH 25 0
BBX 26 29 0 0
BITMAP
00FF8000
00FFC000
01FFC000
01FFC000
01FFE000
03FFE000
03FFE000
03F7F000
03F7F000
07F7F000
07F7F000
07E3F800
0FE3F800
0FE3F800
0FE3FC00
0FE1FC00
1FC1FC00
1FC1FC00
1FC1FE00
3FC1FE00
3F80FE00
3F80FF00
7F80FF00
7F80FF00
7F007F80
7F007F80
FF007F80
FF007F80
FE003FC0
ENDCHAR
STARTCHAR 039C
ENCODING 924
SWIDTH 765 0
DWIDTH 34 0
BBX 28 29 3 0
BITMAP
FF800FF0
FF800FF0
FF801FF0
FFC01FF0
FFC01FF0
FFC03FF0
FFE03FF0
FFE07FF0
FFF07FF0
FFF07FF0
FFF0FFF0
FDF8FFF0
FDF8FBF0
FFF9FBF0
FEFDFBF0
FEFDF3F0
FEFDF3F0
FE7FF3F0
FE7FE7F0
FE7FE7F0
FE3FC7F0
FE3FC7F0
FE1FC7F0
FE1F87F0
FE1F87F0
FE0F87F0
FE0F07F0
FE0007F0
FE0007F0
ENDCHAR
STARTCHAR 039D
ENCODING 925
SWIDTH 675 0
DWIDTH 30 0
BBX 24 29 3 0
BITMAP
FF00FF
FF80FF
FF80FF
FFC0FF
FFC0FF
FFE0FF
FFE0FF
FFF0FF
FFF0FF
FFF8FF
FFF8FF
FFFCFF
FEFC7F
FEFE7F
FE7E7F
FE7F7F
FE3F7F
FE3F7F
FE1FFF
FE1FFF
FE0FFF
FE0FFF
FE07FF
FE07FF
FE03FF
FE03FF
FE01FF
FE01FF
FE00FF
ENDCHAR
STARTCHAR 039E
ENCODING 926
SWIDTH 585 0
DWIDTH 26 0
BBX 22 29 2 0
BITMAP
7FFFF8
7FFFF8
7FFFF8
7FFFF8
7FFFF8
7FFFF8
000000
000000
000000
000000
000000
1FFFE0
1FFFE0
1FFFE0
1FFFE0
1FFFE0
1FFFE0
000000
000000
000000
000000
000000
000000
FFFFFC
FFFFFC
FFFFFC
FFFFFC
FFFFFC
FFFFFC
ENDCHAR
STARTCHAR 039F
ENCODING 927
SWIDTH 697 0
DWIDTH 31 0
BBX 27 29 2 0
BITMAP
003F8000
01FFF000
07FFFC00
0FFFFE00
1FFFFF00
3FFFFF00
3FFFFF80
7FC0FFC0
7F807FC0
7F803FC0
FF003FC0
FF001FE0
FF001FE0
FF001FE0
FF001FE0
FF001FE0
FF001FE0
FF001FE0
FF003FC0
7F803FC0
7FC07FC0
7FE0FF80
3FFFFF80
3FFFFF00
1FFFFF00
0FFFFE00
07FFF800
01FFF000
007F8000
ENDCHAR
STARTCHAR 03A0
ENCODING 928
SWIDTH 675 0
DWIDTH 30 0
BBX 24 29 3 0
BITMAP
FFFFFF
FFFFFF
FFFFFF
FFFFFF
FFFFFF
FFFFFF
FF00FF
FF00FF
FF00FF
FF00FF
FF00FF
FF00FF
FF00FF
FF00FF
FF00FF
FF00FF
FF00FF
FF00FF
FF00FF
FF00FF
FF00FF
FF00FF
FF00FF
FF00FF
FF00FF
FF00FF
FF00FF
FF00FF
FF00FF
ENDCHAR
STARTCHAR 03A1
ENCODING 929
SWIDTH 607 0
DWIDTH 27 0
BBX 23 29 3 0
BITMAP
FFFE00
FFFFC0
FFFFF0
FFFFF8
FFFFF8
FFFFFC
FF07FC
FF03FC
FF01FC
FF01FE
FF01FE
FF01FC
FF03FC
FF07FC
FFFFF8
FFFFF8
FFFFF0
FFFFE0
FFFFC0
FFFE00
FF0000
FF0000
FF0000
FF0000
FF0000
FF0000
FF0000
FF0000
FF0000
ENDCHAR
STARTCHAR 03A3
ENCODING 931
SWIDTH 562 0
DWIDTH 25 0
BBX 21 29 2 0
BITMAP
FFFFF0
FFFFF0
FFFFF0
FFFFF0
FFFFF0
FFFFF0
7F8000
3FC000
1FE000
0FF000
07F800
03FC00
03FC00
01FE00
00FF00
01FE00
03FC00
07F800
07F000
0FF000
1FE000
3FC000
7F8000
FFFFF8
FFFFF8
FFFFF8
FFFFF8
FFFFF8
FFFFF8
ENDCHAR
STARTCHAR 03A4
ENCODING 932
SWIDTH 562 0
DWIDTH 25 0
BBX 23 29 1 0
BITMAP
FFFFFE
FFFFFE
FFFFFE
FFFFFE
FFFFFE
FFFFFE
00FE00
00FE00
00FE00
00FE00
00FE00
00FE00
00FE00
00FE00
00FE00
00FE00
00FE00
00FE00
00FE00
00FE00
00FE00
00FE00
00FE00
00FE00
00FE00
00FE00
00FE00
00FE00
00FE00
ENDCHAR
STARTCHAR 03A5
ENCODING 933
SWIDTH 540 0
DWIDTH 24 0
BBX 24 29 0 0
BITMAP
FF00FF
FF00FF
7F80FE
7F81FE
3F81FE
3FC1FC
1FC3FC
1FC3F8
1FE3F8
0FE7F0
0FE7F0
07F7E0
07FFE0
03FFC0
03FFC0
01FFC0
01FF80
00FF80
00FF00
00FF00
00FF00
00FF00
00FF00
00FF00
00FF00
00FF00
00FF00
00FF00
00FF00
ENDCHAR
STARTCHAR 03A6
ENCODING 934
SWIDTH 765 0
DWIDTH 34 0
BBX 30 31 2 -1
BITMAP
000FE000
000FE000
000FE000
000FE000
00FFFC00
03FFFF80
0FFFFFC0
1FFFFFE0
3FFFFFF0
3FFFFFF8
7FCFE7F8
7F8FE3FC
FF0FE3FC
FF0FE1FC
FE0FE1FC
FE0FE1FC
FE0FE1FC
FF0FE1FC
FF0FE1FC
7F8FE3FC
7FCFE7F8
3FFFFFF8
3FFFFFF0
1FFFFFE0
0FFFFFC0
03FFFF80
00FFFC00
000FE000
000FE000
000FE000
000FE000
ENDCHAR
STARTCHAR 03A7
ENCODING 935
SWIDTH 585 0
DWIDTH 26 0
BBX 24 29 1 0
BITMAP
FF80FF
7F80FE
7F81FE
3FC1FC
3FC3FC
1FE3F8
1FE3F8
0FF7F0
0FF7F0
07F7E0
07FFE0
03FFC0
03FFC0
01FF80
01FF80
01FF80
03FFC0
07FFE0
07FFE0
0FEFF0
0FEFF0
1FE7F8
1FC7F8
3FC3FC
3F83FC
7F81FE
7F81FE
FF01FF
FF00FF
ENDCHAR
STARTCHAR 03A8
ENCODING 936
SWIDTH 765 0
DWIDTH 34 0
BBX 30 29 2 0
BITMAP
FF0FE1FC
FF0FE1FC
FF0FE1FC
FF0FE1FC
FF0FE1FC
FF0FE1FC
FF0FE1FC
FF0FE1FC
FF0FE1FC
FF0FE1FC
FF0FE3FC
7F8FE3FC
7F8FE7F8
7FEFFFF8
3FFFFFF0
1FFFFFF0
1FFFFFE0
07FFFFC0
01FFFF00
001FF000
000FE000
000FE000
000FE000
000FE000
000FE000
000FE000
000FE000
000FE000
000FE000
ENDCHAR
STARTCHAR 03A9
ENCODING 937
SWIDTH 720 0
DWIDTH 32 0
BBX 28 29 2 0
BITMAP
003FC000
00FFF800
03FFFE00
07FFFF00
0FFFFF80
1FFFFF80
3FFFFFC0
3FE07FC0
7FC03FE0
7F801FE0
7F801FE0
7F801FE0
7F800FF0
7F800FF0
7F800FE0
7F800FE0
7F800FE0
7F801FE0
3F801FC0
3FC01FC0
1FC03F80
1FE03F80
0FF07F00
FFF0FFF0
FFF0FFF0
FFF0FFF0
FFF0FFF0
FFF0FFF0
FFF0FFF0
ENDCHAR
STARTCHAR 03AA
ENCODING 938
SWIDTH 315 0
DWIDTH 14 0
BBX 18 38 -2 0
BITMAP
3C0F00
7E1F80
7E1F80
FE1FC0
7E1F80
7E1F80
3C0F00
000000
000000
07F800
07F800
07F800
07F800
07F800
07F800
07F800
07F800
07F800
07F800
07F800
07F800
07F800
07F800
07F800
07F800
07F800
07F800
07F800
07F800
07F800
07F800
07F800
07F800
07F800
07F800
07F800
07F800
07F800
ENDCHAR
STARTCHAR 03AB
ENCODING 939
SWIDTH 540 0
DWIDTH 24 0
BBX 24 38 0 0
BITMAP
0780E0
0FC3F0
0FC3F8
0FC3F8
0FC3F0
0FC3F0
0781E0
000000
000000
FF00FF
FF00FF
7F80FE
7F81FE
3F81FE
3FC1FC
1FC3FC
1FC3F8
1FE3F8
0FE7F0
0FE7F0
07F7E0
07FFE0
03FFC0
03FFC0
01FFC0
01FF80
00FF80
00FF00
00FF00
00FF00
00FF00
00FF00
00FF00
00FF00
00FF00
00FF00
00FF00
00FF00
ENDCHAR
STARTCHAR 03AC
ENCODING 940
SWIDTH 607 0
DWIDTH 27 0
BBX 26 35 1 0
BITMAP
001F0000
001FC000
003FC000
003F8000
003F8000
003F0000
003F0000
003F0000
003E0000
007E0000
00020000
00000000
00000000
01F87F00
07FC7F00
0FFE7F00
1FFFFF00
3FFFFE00
3FFFFE00
7FC7FE00
7F83FE00
7F81FC00
7F01FC00
FF01FC00
FF01FC00
FF01FC00
7F83FC00
7F83FC00
7FC7FC00
7FFFFF80
3FFFFF80
1FFFFFC0
1FFEFFC0
07FC7FC0
03F03F80
ENDCHAR
STARTCHAR 03AD
ENCODING 941
SWIDTH 472 0
DWIDTH 21 0
BBX 19 35 1 0
BITMAP
007000
007F80
007F00
007F00
007F00
007E00
007E00
00FC00
00FC00
00FC00
007800
000000
000000
01FE00
0FFFC0
1FFFE0
3FFFC0
3FFFC0
7FFF80
7F8000
3F8000
3FFC00
1FFC00
0FFC00
3FFC00
7FFC00
7F0000
FF0000
FF8180
7FFFC0
7FFFC0
7FFFE0
3FFFE0
0FFFC0
01FE00
ENDCHAR
STARTCHAR 03AE
ENCODING 942
SWIDTH 562 0
DWIDTH 25 0
BBX 21 43 2 -8
BITMAP
003800
003FC0
003F80
003F80
003F80
003F00
003F00
007F00
007E00
007E00
001C00
000000
000000
FE0F80
FE3FE0
FE7FF0
FEFFF0
7FFFF0
7FFFF8
7FFFF8
7F87F8
7F83F8
7F03F8
7F03F8
7F03F8
7F03F8
7F03F8
7F03F8
7F03F8
7F03F8
7F03F8
7F03F8
7F03F8
7F03F8
7F03F8
0007F8
0007F8
0007F8
0007F8
0007F8
0007F8
0007F8
0007F8
ENDCHAR
STARTCHAR 03AF
ENCODING 943
SWIDTH 315 0
DWIDTH 14 0
BBX 11 35 3 0
BITMAP
3E00
3F80
3F80
7F00
7F00
7F00
7E00
7E00
7C00
7C00
0400
0000
0000
FE00
FE00
FE00
FE00
FE00
FE00
FE00
FE00
FE00
FE00
FE00
FE00
FE00
FE00
FE00
FE00
FFC0
FFC0
FFE0
7FE0
3FE0
1FC0
ENDCHAR
STARTCHAR 03B0
ENCODING 944
SWIDTH 540 0
DWIDTH 24 0
BBX 20 37 2 0
BITMAP
004000
007C00
007C00
007800
00F800
38F9C0
7CF3E0
7EF7E0
7CF3E0
3CE3C0
00E000
000000
000000
000000
000000
FE00E0
FE1FE0
FE0FE0
FE0FF0
FE0FF0
FE0FF0
FE0FF0
FE07F0
FE07F0
FE07F0
FE07F0
FE07F0
FE07F0
FE0FF0
FE0FF0
FF1FE0
7FFFE0
7FFFE0
3FFFC0
3FFF80
0FFF00
03F800
ENDCHAR
STARTCHAR 03B1
ENCODING 945
SWIDTH 607 0
DWIDTH 27 0
BBX 26 22 1 0
BITMAP
01F87F00
07FC7F00
0FFE7F00
1FFFFF00
3FFFFE00
3FFFFE00
7FC7FE00
7F83FE00
7F81FC00
7F01FC00
FF01FC00
FF01FC00
FF01FC00
7F83FC00
7F83FC00
7FC7FC00
7FFFFF80
3FFFFF80
1FFFFFC0
1FFEFFC0
07FC7FC0
03F03F80
ENDCHAR
STARTCHAR 03B2
ENCODING 946
SWIDTH 607 0
DWIDTH 27 0
BBX 23 40 3 -8
BITMAP
01FC00
0FFF80
1FFFC0
3FFFE0
7FFFF0
7FFFF0
FF8FF0
FF07F8
FE07F8
FE07F8
FE07F0
FE07F0
FE0FE0
FE3FE0
FE3F80
FE3FE0
FE3FF0
FE3FF8
FE3FFC
FE03FC
FE01FE
FE01FE
FE01FE
FE01FE
FF01FE
FFC7FE
FFFFFC
FFFFFC
FFFFF8
FFFFF0
FEFFE0
FE3F80
FE0000
FE0000
FE0000
FE0000
FE0000
FE0000
FE0000
FE0000
ENDCHAR
STARTCHAR 03B3
ENCODING 947
SWIDTH 562 0
DWIDTH 25 0
BBX 24 30 0 -8
BITMAP
0700FF
FF80FF
FF80FE
7FC0FE
3FC0FE
3FC0FE
1FE0FC
1FE1FC
0FE1FC
0FF1FC
07F1F8
07F3F8
03FBF0
03FFF0
03FFE0
01FFE0
01FFC0
01FFC0
00FF80
00FF80
00FF00
00FE00
00FE00
00FF00
00FF00
00FF00
00FF00
00FF00
00FF00
00FF00
ENDCHAR
STARTCHAR 03B4
ENCODING 948
SWIDTH 562 0
DWIDTH 25 0
BBX 21 32 2 0
BITMAP
03FE00
0FFFE0
1FFFF0
3FFFE0
3FFFE0
3FFFE0
3F81E0
3F8000
3FE000
1FF000
1FF800
0FFE00
07FF00
07FF80
1FFFC0
3FFFE0
7FDFF0
7F8FF0
FF07F8
FE07F8
FE03F8
FE03F8
FE03F8
FE07F8
FF07F8
FF8FF0
7FFFF0
7FFFE0
3FFFE0
1FFFC0
0FFF00
01FC00
ENDCHAR
STARTCHAR 03B5
ENCODING 949
SWIDTH 472 0
DWIDTH 21 0
BBX 19 22 1 0
BITMAP
01FE00
0FFFC0
1FFFE0
3FFFC0
3FFFC0
7FFF80
7F8000
3F8000
3FFC00
1FFC00
0FFC00
3FFC00
7FFC00
7F0000
FF0000
FF8180
7FFFC0
7FFFC0
7FFFE0
3FFFE0
0FFFC0
01FE00
ENDCHAR
STARTCHAR 03B6
ENCODING 950
SWIDTH 472 0
DWIDTH 21 0
BBX 19 40 2 -8
BITMAP
7FFFC0
7FFFC0
7FFFC0
7FFFC0
7FFFC0
7FFFC0
007F80
01FF00
03FC00
07F800
07F000
0FF000
1FE000
3FC000
3FC000
7F8000
7F8000
FF0000
FF0000
FF0000
FF0000
FF0000
FF0000
FF0000
FF8000
FFE000
7FFE00
7FFF80
3FFFC0
1FFFC0
0FFFC0
01FFE0
003FE0
000FC0
000FC0
000FC0
001FC0
003F80
001F80
000300
ENDCHAR
STARTCHAR 03B7
ENCODING 951
SWIDTH 562 0
DWIDTH 25 0
BBX 21 30 2 -8
BITMAP
FE0F80
FE3FE0
FE7FF0
FEFFF0
7FFFF0
7FFFF8
7FFFF8
7F87F8
7F83F8
7F03F8
7F03F8
7F03F8
7F03F8
7F03F8
7F03F8
7F03F8
7F03F8
7F03F8
7F03F8
7F03F8
7F03F8
7F03F8
0007F8
0007F8
0007F8
0007F8
0007F8
0007F8
0007F8
0007F8
ENDCHAR
STARTCHAR 03B8
ENCODING 952
SWIDTH 562 0
DWIDTH 25 0
BBX 21 32 2 0
BITMAP
01FC00
07FF00
0FFF80
1FFFC0
3FFFE0
3FFFE0
7F8FF0
7F07F0
7F07F0
7F07F0
FF07F8
FF07F8
FE07F8
FFFFF8
FFFFF8
FFFFF8
FFFFF8
FFFFF8
FE07F8
FF07F8
FF07F8
FF07F0
7F07F0
7F07F0
7F8FF0
3F8FE0
3FFFE0
1FFFC0
1FFFC0
0FFF80
07FE00
01F800
ENDCHAR
STARTCHAR 03B9
ENCODING 953
SWIDTH 315 0
DWIDTH 14 0
BBX 11 22 3 0
BITMAP
FE00
FE00
FE00
FE00
FE00
FE00
FE00
FE00
FE00
FE00
FE00
FE00
FE00
FE00
FE00
FE00
FFC0
FFC0
FFE0
7FE0
3FE0
1FC0
ENDCHAR
STARTCHAR 03BA
ENCODING 954
SWIDTH 562 0
DWIDTH 25 0
BBX 23 22 2 0
BITMAP
FF0030
FF00F8
FF03F8
FF07F8
7F0FF8
7F1FF8
7F3FF8
7F7FE0
7F7F80
7FFE00
7FFE00
7FFF00
7FFF80
7FFF80
7FBFC0
7F9FC0
7F1FE0
7F0FF0
7F0FF8
7F07F8
7F03FC
7F03FE
ENDCHAR
STARTCHAR 03BB
ENCODING 955
SWIDTH 585 0
DWIDTH 26 0
BBX 24 32 1 0
BITMAP
3FC000
7FF000
7FF800
7FFC00
7FFE00
3FFE00
33FF00
00FF00
007F00
007F80
007F80
00FF80
00FFC0
01FFC0
01FFC0
03FFE0
03FFE0
03FFE0
07F7F0
07F7F0
0FE7F0
0FE7F8
0FE3F8
1FE3FC
1FC3FC
3FC3FC
3FC1FE
7F81FE
7F81FE
7F81FF
FF00FF
FF00FF
ENDCHAR
STARTCHAR 03BC
ENCODING 956
SWIDTH 607 0
DWIDTH 27 0
BBX 24 30 3 -8
BITMAP
FE0FF0
FE0FF0
FE0FF0
FE0FF0
FE0FF0
FE0FF0
FE0FF0
FE0FF0
FE0FF0
FE0FF0
FE0FF0
FE0FF0
FE0FF0
FE0FF0
FF0FF0
FF1FF0
FFFFFE
FFFFFF
FFFFFF
FFFBFF
FFF1FF
FFE0FE
FE0000
FE0000
FE0000
FE0000
FE0000
FE0000
FE0000
FE0000
ENDCHAR
STARTCHAR 03BD
ENCODING 957
SWIDTH 540 0
DWIDTH 24 0
BBX 23 22 0 0
BITMAP
0700FE
FF00FE
FF80FE
7F80FE
3FC1FE
3FC1FC
1FE1FC
1FE1FC
0FE1F8
0FF1F8
07F3F8
07F3F0
07F3F0
03FFF0
03FFE0
03FFE0
01FFC0
01FFC0
01FF80
01FF80
00FF00
00FE00
ENDCHAR
STARTCHAR 03BE
ENCODING 958
SWIDTH 495 0
DWIDTH 22 0
BBX 20 40 1 -8
BITMAP
FFFFE0
FFFFE0
FFFFE0
FFFFE0
FFFFE0
FFFFE0
0FF000
1FE000
1FC000
1FC000
1FE000
1FE000
0FF000
0FFF80
03FF80
03FF80
0FFF80
1FFF80
3FE000
3F8000
7F8000
7F8000
7F8000
7F8000
7FC000
7FF800
7FFF80
3FFFC0
1FFFE0
0FFFE0
07FFF0
00FFF0
001FF0
0007E0
0007E0
0007E0
000FE0
001FC0
000FC0
000180
ENDCHAR
STARTCHAR 03BF
ENCODING 959
SWIDTH 562 0
DWIDTH 25 0
BBX 22 22 1 0
BITMAP
00FE00
03FF80
0FFFE0
1FFFF0
1FFFF0
3FFFF8
7FC7FC
7F83FC
7F83FC
7F01FC
FF01FC
FF01FC
7F01FC
7F83FC
7F83FC
7FC7FC
3FFFF8
3FFFF0
1FFFF0
0FFFE0
03FF80
00FE00
ENDCHAR
STARTCHAR 03C0
ENCODING 960
SWIDTH 652 0
DWIDTH 29 0
BBX 27 22 1 0
BITMAP
FFFFFFE0
FFFFFFE0
FFFFFFE0
FFFFFFE0
FFFFFFE0
FFFFFFE0
0FF0FE00
0FF0FE00
0FF0FE00
0FF0FE00
0FE0FE00
0FE0FE00
0FE0FE00
0FE0FE00
0FE0FE00
0FE0FE00
0FE0FFC0
0FE0FFE0
1FE0FFE0
1FE07FE0
1FE03FE0
1FE00FC0
ENDCHAR
STARTCHAR 03C1
ENCODING 961
SWIDTH 585 0
DWIDTH 26 0
BBX 22 30 2 -8
BITMAP
00FE00
07FF80
0FFFE0
1FFFF0
3FFFF0
3FFFF8
7FCFF8
7F87FC
7F03FC
7F03FC
FF03FC
FF03FC
FF03FC
FF03FC
FF07FC
FF8FF8
FFFFF8
FFFFF0
FFFFF0
FFFFE0
FFFF80
FF3F00
FF0000
FF0000
FF0000
FF0000
FF0000
FF0000
FF0000
FF0000
ENDCHAR
STARTCHAR 03C2
ENCODING 962
SWIDTH 450 0
DWIDTH 20 0
BBX 18 30 1 -8
BITMAP
00FE00
03FFC0
0FFFC0
1FFFC0
3FFF80
3FFF00
7FE200
7F8000
7F8000
7F0000
FF0000
FF0000
7F0000
7F8000
7F8000
7FE000
3FF800
3FFF00
1FFF80
0FFF80
03FFC0
00FFC0
003FC0
001FC0
001FC0
001F80
003F80
003F00
003F00
000600
ENDCHAR
STARTCHAR 03C3
ENCODING 963
SWIDTH 585 0
DWIDTH 26 0
BBX 24 22 1 0
BITMAP
00FFFF
03FFFF
0FFFFF
1FFFFF
3FFFFF
3FFFFF
7FCFE0
7F87F0
7F83F8
7F03F8
FF03F8
FF03FC
7F03FC
7F83F8
7F83F8
7FC7F8
3FFFF8
3FFFF0
1FFFE0
0FFFC0
07FF80
00FE00
ENDCHAR
STARTCHAR 03C4
ENCODING 964
SWIDTH 495 0
DWIDTH 22 0
BBX 20 22 1 0
BITMAP
FFFFF0
FFFFF0
FFFFF0
FFFFF0
FFFFF0
FFFFF0
03FC00
03FC00
03FC00
03FC00
03FC00
03FC00
03FC00
03FC00
03FC00
03FC00
01FFC0
01FFC0
01FFC0
00FFE0
007FE0
003FC0
ENDCHAR
STARTCHAR 03C5
ENCODING 965
SWIDTH 540 0
DWIDTH 24 0
BBX 20 22 2 0
BITMAP
FE00E0
FE1FE0
FE0FE0
FE0FF0
FE0FF0
FE0FF0
FE0FF0
FE07F0
FE07F0
FE07F0
FE07F0
FE07F0
FE07F0
FE0FF0
FE0FF0
FF1FE0
7FFFE0
7FFFE0
3FFFC0
3FFF80
0FFF00
03F800
ENDCHAR
STARTCHAR 03C6
ENCODING 966
SWIDTH 765 0
DWIDTH 34 0
BBX 31 35 1 -8
BITMAP
000FE000
000FE000
000FE000
000FE000
000FE000
007FFE00
01FFFF80
07FFFFE0
0FFFFFF0
1FFFFFF8
3FFFFFFC
7FCFE3FC
7F8FE1FE
7F8FE1FE
7F0FE1FE
FF0FE0FE
FF0FE0FE
7F0FE1FE
7F8FE1FE
7F8FE1FE
7FCFE3FC
3FFFFFFC
1FFFFFF8
0FFFFFF0
07FFFFE0
03FFFF80
007FFC00
000FE000
000FE000
000FE000
000FE000
000FE000
000FE000
000FE000
000FE000
ENDCHAR
STARTCHAR 03C7
ENCODING 967
SWIDTH 540 0
DWIDTH 24 0
BBX 24 30 1 -8
BITMAP
0E01FC
FF03FC
FF03F8
FF87F8
7F87F0
3FC7F0
3FCFE0
1FEFE0
0FFFC0
0FFFC0
07FF80
07FF80
03FF00
01FF00
01FE00
01FF00
01FF00
03FF80
03FFC0
07FFC0
07EFE0
0FEFF0
0FC7F0
1FC7F8
3FC3F8
3F83FC
7F81FE
7F01FE
FF00FF
FE00E0
ENDCHAR
STARTCHAR 03C8
ENCODING 968
SWIDTH 765 0
DWIDTH 34 0
BBX 31 35 2 -8
BITMAP
000FE000
000FE000
000FE000
000FE000
000FE000
FE0FE018
FE0FE3FC
FE0FE3FC
FF0FE3FC
FF0FE3FC
FF0FE1FC
FF0FE1FE
FF0FE1FE
FE0FE1FE
FE0FE1FE
FE0FE1FE
FE0FE1FE
FE0FE1FC
FF0FE1FC
7F0FE3FC
7F8FE7FC
7FFFFFF8
3FFFFFF0
1FFFFFF0
0FFFFFE0
07FFFF80
00FFFE00
000FE000
000FE000
000FE000
000FE000
000FE000
000FE000
000FE000
000FE000
ENDCHAR
STARTCHAR 03C9
ENCODING 969
SWIDTH 765 0
DWIDTH 34 0
BBX 30 22 2 0
BITMAP
10000030
3E0001F0
7FC00FF8
7F8007F8
7F8007F8
FF0003FC
FF0003FC
FF1FE3FC
FE1FE1FC
FE1FE1FC
FE1FC1FC
FE1FC1FC
FE1FC1FC
FE1FC3FC
FE1FE3FC
FF3FE7FC
7FFFFFF8
7FFFFFF8
3FFDFFF0
3FFCFFF0
0FF87FC0
03E01F00
ENDCHAR
STARTCHAR 03CA
ENCODING 970
SWIDTH 315 0
DWIDTH 14 0
BBX 17 32 -2 0
BITMAP
380E00
FC1F00
FE3F80
FE3F80
FE3F80
FC3F00
781E00
000000
000000
000000
07F000
07F000
07F000
07F000
07F000
07F000
07F000
07F000
07F000
07F000
07F000
07F000
07F000
07F000
07F000
07F000
07FE00
07FE00
07FF00
03FF00
01FF00
00FE00
ENDCHAR
STARTCHAR 03CB
ENCODING 971
SWIDTH 540 0
DWIDTH 24 0
BBX 20 31 2 0
BITMAP
1E0780
3F0FC0
3F0FE0
7F1FE0
3F0FC0
3F0FC0
1E0780
000000
000000
FE00E0
FE1FE0
FE0FE0
FE0FF0
FE0FF0
FE0FF0
FE0FF0
FE07F0
FE07F0
FE07F0
FE07F0
FE07F0
FE07F0
FE0FF0
FE0FF0
FF1FE0
7FFFE0
7FFFE0
3FFFC0
3FFF80
0FFF00
03F800
ENDCHAR
STARTCHAR 03CC
ENCODING 972
SWIDTH 562 0
DWIDTH 25 0
BBX 22 35 1 0
BITMAP
003000
003FC0
003F80
003F80
003F00
007F00
007F00
007E00
007E00
007E00
003C00
000000
000000
00FE00
03FF80
0FFFE0
1FFFF0
1FFFF0
3FFFF8
7FC7FC
7F83FC
7F83FC
7F01FC
FF01FC
FF01FC
7F01FC
7F83FC
7F83FC
7FC7FC
3FFFF8
3FFFF0
1FFFF0
0FFFE0
03FF80
00FE00
ENDCHAR
STARTCHAR 03CD
ENCODING 973
SWIDTH 540 0
DWIDTH 24 0
BBX 20 35 2 0
BITMAP
006000
00FF00
00FF00
00FE00
00FE00
00FC00
00FC00
00FC00
01F800
01F800
007800
000000
000000
FE00E0
FE1FE0
FE0FE0
FE0FF0
FE0FF0
FE0FF0
FE0FF0
FE07F0
FE07F0
FE07F0
FE07F0
FE07F0
FE07F0
FE0FF0
FE0FF0
FF1FE0
7FFFE0
7FFFE0
3FFFC0
3FFF80
0FFF00
03F800
ENDCHAR
STARTCHAR 03CE
ENCODING 974
SWIDTH 765 0
DWIDTH 34 0
BBX 30 35 2 0
BITMAP
00070000
0007F800
0007F000
0007F000
0007F000
0007E000
0007E000
0007E000
000FC000
000FC000
0003C000
00000000
00000000
10000030
3E0001F0
7FC00FF8
7F8007F8
7F8007F8
FF0003FC
FF0003FC
FF1FE3FC
FE1FE1FC
FE1FE1FC
FE1FC1FC
FE1FC1FC
FE1FC1FC
FE1FC3FC
FE1FE3FC
FF3FE7FC
7FFFFFF8
7FFFFFF8
3FFDFFF0
3FFCFFF0
0FF87FC0
03E01F00
ENDCHAR
STARTCHAR 03D0
ENCODING 976
SWIDTH 607 0
DWIDTH 27 0
BBX 22 32 3 0
BITMAP
03FC00
0FFF00
1FFFC0
3FFFE0
7FFFE0
7FFFF0
FF8FF0
FF07F0
FE07F0
FE07F0
FE07F0
FE0FE0
FE1FE0
FE7FC0
FFFF00
FFFFC0
FFFFF0
FFFFF8
FFCFF8
FE03FC
FE01FC
FE01FC
FE01FC
FF01FC
FF83FC
FFFFFC
7FFFFC
3FFFF8
3FFFF0
1FFFE0
07FFC0
00FE00
ENDCHAR
STARTCHAR 03D1
ENCODING 977
SWIDTH 562 0
DWIDTH 25 0
BBX 21 32 2 0
BITMAP
03F800
0FFE00
1FFF00
3FFF80
7FFFC0
7FFFE0
FF1FE0
FE0FF0
FE07F0
FE07F0
FE07F8
FF07F8
7F87F8
7FFFF8
3FFFF8
1FFFF8
07FFF8
007FF8
0003F8
7F03F8
7F07F8
7F07F8
7F07F0
7F07F0
7F87F0
7F8FF0
7FFFE0
3FFFE0
3FFFC0
1FFF80
0FFF00
01FC00
ENDCHAR
STARTCHAR 03D5
ENCODING 981
SWIDTH 765 0
DWIDTH 34 0
BBX 31 30 1 -8
BITMAP
0C001F80
0F00FFE0
1F81FFF8
3FE1FFF8
3FE3FFFC
3FC3FFFE
7FC7F3FE
7F87F1FE
7F87E1FE
7F07E1FE
FF07E0FE
FF07E0FE
7F0FE1FE
7F0FE1FE
7F8FE1FE
7FCFE3FC
3FEFEFFC
1FFFFFF8
0FFFFFF0
07FFFFE0
03FFFF80
007FFE00
000FF000
000FF000
000FF000
000FF000
000FF000
000FF000
000FF000
000FF000
ENDCHAR
STARTCHAR 03D7
ENCODING 983
SWIDTH 562 0
DWIDTH 25 0
BBX 23 31 2 -9
BITMAP
000030
FF00F8
FF03F8
FF07F8
FF0FF8
7F1FF8
7F3FF8
7F7FE0
7F7F80
7FFE00
7FFE00
7FFF00
7FFF00
7FFF80
7FFFC0
7FBFC0
7F9FE0
7F1FE0
7F0FF0
7F0FF8
7F07FC
7F03FC
7F03FE
0001FE
0003FC
0007FC
000FF8
000FF0
001FF0
003FE0
007FC0
ENDCHAR
STARTCHAR 03D9
ENCODING 985
SWIDTH 562 0
DWIDTH 25 0
BBX 22 30 1 -8
BITMAP
00FE00
03FF80
0FFFE0
1FFFF0
1FFFF0
3FFFF8
7FC7FC
7F83FC
7F83FC
7F01FC
FF01FC
FF01FC
FF01FC
7F01FC
7F83FC
7F83FC
7FC7F8
3FFFF8
1FFFF0
1FFFE0
0FFFC0
03FF80
00FE00
00FE00
00FE00
00FE00
00FE00
00FF00
00FF00
00FF00
ENDCHAR
STARTCHAR 03DB
ENCODING 987
SWIDTH 495 0
DWIDTH 22 0
BBX 20 30 1 -8
BITMAP
007FF0
03FFF0
0FFFF0
1FFFF0
3FFFF0
3FFFF0
7FE000
7F8000
7F8000
7F0000
FF0000
FF0000
FF0000
7F8000
7FC000
7FE000
3FFC00
3FFF80
1FFFC0
0FFFE0
07FFE0
01FFE0
003FE0
000FE0
0007E0
000FE0
000FC0
001FC0
000F80
000180
ENDCHAR
STARTCHAR 03DD
ENCODING 989
SWIDTH 450 0
DWIDTH 20 0
BBX 15 30 3 -8
BITMAP
FFFE
FFFE
FFFE
FFFE
FFFE
FFFE
FE00
FE00
FE00
FE00
FE00
FE00
FFFE
FFFE
FFFE
FFFE
FFFE
FE00
FE00
FE00
FE00
FE00
FE00
FE00
FE00
FE00
FE00
FE00
FE00
FE00
ENDCHAR
STARTCHAR 03E1
ENCODING 993
SWIDTH 540 0
DWIDTH 24 0
BBX 24 40 0 -8
BITMAP
008000
01E000
03F000
03F800
07FC00
0FFE00
07FF00
03FF00
01FF80
00FFC0
007FE0
003FE0
001FF0
007FF0
01FFF8
07FFF8
3FFFFC
FFFFFC
7FFFFC
7FF1FC
3FC1FE
3F01FE
1C01FE
1007FE
003FFF
00FFFF
03FFFF
07FFFF
07FFFF
03FEFF
03F8FF
01E0FF
01C0FF
0000FF
0000FF
0000FF
0000FF
0000FE
0000FE
00001E
ENDCHAR
STARTCHAR 0400
ENCODING 1024
SWIDTH 562 0
DWIDTH 25 0
BBX 19 40 3 0
BITMAP
060000
0F0000
1F8000
3FC000
3FF000
1FF800
07F800
03F000
00F000
002000
000000
FFFFE0
FFFFE0
FFFFE0
FFFFE0
FFFFE0
FFFFE0
FF0000
FF0000
FF0000
FF0000
FF0000
FFFF80
FFFF80
FFFF80
FFFF80
FFFF80
FFFF80
FF0000
FF0000
FF0000
FF0000
FF0000
FF0000
FFFFE0
FFFFE0
FFFFE0
FFFFE0
FFFFE0
FFFFE0
ENDCHAR
STARTCHAR 0401
ENCODING 1025
SWIDTH 562 0
DWIDTH 25 0
BBX 19 38 3 0
BITMAP
1E0780
3F0FC0
3F0FC0
7F1FC0
7F0FC0
3F0FC0
1E0780
000000
000000
FFFFE0
FFFFE0
FFFFE0
FFFFE0
FFFFE0
FFFFE0
FF0000
FF0000
FF0000
FF0000
FF0000
FFFF80
FFFF80
FFFF80
FFFF80
FFFF80
FFFF80
FF0000
FF0000
FF0000
FF0000
FF0000
FF0000
FFFFE0
FFFFE0
FFFFE0
FFFFE0
FFFFE0
FFFFE0
ENDCHAR
STARTCHAR 0402
ENCODING 1026
SWIDTH 697 0
DWIDTH 31 0
BBX 29 29 1 0
BITMAP
FFFFFE00
FFFFFE00
FFFFFE00
FFFFFE00
FFFFFE00
FFFFFE00
01FC0000
01FC0000
01FC0000
01FC0000
01FC0000
01FFFC00
01FFFF80
01FFFFC0
01FFFFE0
01FFFFF0
01FFFFF0
01FC0FF8
01FC07F8
01FC07F8
01FC07F8
01FC07F8
01FC07F8
01FC3FF0
01FC3FF0
01FC3FF0
01FC3FE0
01FC7FC0
01FC7F00
ENDCHAR
STARTCHAR 0403
ENCODING 1027
SWIDTH 540 0
DWIDTH 24 0
BBX 19 40 3 0
BITMAP
000200
000F00
001F80
003FC0
007FE0
01FF80
01FF00
00FC00
007000
006000
000000
FFFFE0
FFFFE0
FFFFE0
FFFFE0
FFFFE0
FFFFE0
FF0000
FF0000
FF0000
FF0000
FF0000
FF0000
FF0000
FF0000
FF0000
FF0000
FF0000
FF0000
FF0000
FF0000
FF0000
FF0000
FF0000
FF0000
FF0000
FF0000
FF0000
FF0000
FF0000
ENDCHAR
STARTCHAR 0404
ENCODING 1028
SWIDTH 585 0
DWIDTH 26 0
BBX 23 29 2 0
BITMAP
003F80
01FFF0
03FFF8
0FFFFE
1FFFFC
1FFFF8
3FFFF8
7FC070
7F8000
7F8000
FF0000
FFFF80
FFFF80
FFFF80
FFFF80
FFFF80
FFFF80
FF0000
FF0000
7F0000
7F8010
7FC030
3FFFF8
3FFFFC
1FFFFE
0FFFFE
07FFF8
01FFF0
007F80
ENDCHAR
STARTCHAR 0405
ENCODING 1029
SWIDTH 562 0
DWIDTH 25 0
BBX 22 29 2 0
BITMAP
00FE00
07FFC0
0FFFE0
1FFFF0
3FFFF0
7FFFE0
7FFFE0
7F81C0
7F0000
7F8000
7FE000
7FF800
7FFF00
3FFFC0
1FFFF0
0FFFF0
03FFF8
007FF8
000FFC
0007FC
1803FC
3E03F8
7FFFF8
7FFFF8
FFFFF0
FFFFE0
3FFFC0
1FFF80
03FC00
ENDCHAR
STARTCHAR 0406
ENCODING 1030
SWIDTH 315 0
DWIDTH 14 0
BBX 8 29 3 0
BITMAP
FF
FF
FF
FF
FF
FF
FF
FF
FF
FF
FF
FF
FF
FF
FF
FF
FF
FF
FF
FF
FF
FF
FF
FF
FF
FF
FF
FF
FF
ENDCHAR
STARTCHAR 0407
ENCODING 1031
SWIDTH 315 0
DWIDTH 14 0
BBX 18 38 -2 0
BITMAP
3C0F00
7E1F80
7E1F80
FE1FC0
7E1F80
7E1F80
3C0F00
000000
000000
07F800
07F800
07F800
07F800
07F800
07F800
07F800
07F800
07F800
07F800
07F800
07F800
07F800
07F800
07F800
07F800
07F800
07F800
07F800
07F800
07F800
07F800
07F800
07F800
07F800
07F800
07F800
07F800
07F800
ENDCHAR
STARTCHAR 0408
ENCODING 1032
SWIDTH 517 0
DWIDTH 23 0
BBX 20 29 0 0
BITMAP
000FF0
000FF0
000FF0
000FF0
000FF0
000FF0
000FF0
000FF0
000FF0
000FF0
000FF0
000FF0
000FF0
000FF0
000FF0
000FF0
000FF0
000FF0
000FF0
000FF0
040FF0
1E0FF0
3FFFF0
FFFFE0
7FFFE0
3FFFC0
1FFF80
0FFF00
03FC00
ENDCHAR
STARTCHAR 0409
ENCODING 1033
SWIDTH 922 0
DWIDTH 41 0
BBX 40 29 0 0
BITMAP
007FFFC000
007FFFC000
007FFFC000
007FFFC000
007FFFC000
00FFFFC000
00FE1FC000
00FE1FC000
00FE1FC000
00FE1FC000
01FE1FFF80
01FC1FFFE0
01FC1FFFF8
01FC1FFFFC
01FC1FFFFE
03FC1FFFFE
03F81FC3FE
03F81FC0FF
03F81FC0FF
07F81FC0FF
07F81FC0FF
0FF01FC0FE
7FF01FC3FE
7FE01FFFFE
7FE01FFFFC
7FC01FFFFC
7FC01FFFF8
FF801FFFE0
FE001FFF00
ENDCHAR
STARTCHAR 040A
ENCODING 1034
SWIDTH 945 0
DWIDTH 42 0
BBX 37 29 3 0
BITMAP
FF00FF0000
FF00FF0000
FF00FF0000
FF00FF0000
FF00FF0000
FF00FF0000
FF00FF0000
FF00FF0000
FF00FF0000
FF00FF0000
FF00FFFC00
FFFFFFFF80
FFFFFFFFC0
FFFFFFFFE0
FFFFFFFFF0
FFFFFFFFF0
FFFFFF0FF8
FFFFFF07F8
FF00FF07F8
FF00FF03F8
FF00FF07F8
FF00FF07F8
FF00FF0FF8
FF00FFFFF0
FF00FFFFF0
FF00FFFFE0
FF00FFFFC0
FF00FFFF80
FF00FFFC00
ENDCHAR
STARTCHAR 040B
ENCODING 1035
SWIDTH 720 0
DWIDTH 32 0
BBX 29 29 1 0
BITMAP
FFFFFE00
FFFFFE00
FFFFFE00
FFFFFE00
FFFFFE00
FFFFFE00
01FC0000
01FC0000
01FC0000
01FC0000
01FC0000
01FFFC00
01FFFF80
01FFFFC0
01FFFFE0
01FFFFF0
01FFFFF0
01FC0FF0
01FC07F0
01FC07F8
01FC07F8
01FC07F8
01FC07F8
01FC07F8
01FC07F8
01FC07F8
01FC07F8
01FC07F8
01FC07F8
ENDCHAR
STARTCHAR 040C
ENCODING 1036
SWIDTH 630 0
DWIDTH 28 0
BBX 25 40 3 1
BITMAP
0001C000
0003E000
0007F000
000FF000
003FF000
007FE000
003F8000
003E0000
001C0000
00000000
00000000
FF001F80
FF007F00
FF00FF00
FF01FF00
FF03FF00
FF03FF00
FF07FF00
FF07F800
FF0FF000
FF1FE000
FF1FC000
FFFFC000
FFFF8000
FFFF0000
FFFF8000
FFFF8000
FFFFC000
FF1FE000
FF1FE000
FF0FF000
FF0FF000
FF07F800
FF03FC00
FF03FC00
FF01FE00
FF01FE00
FF00FF00
FF007F80
FF007F80
ENDCHAR
STARTCHAR 040D
ENCODING 1037
SWIDTH 675 0
DWIDTH 30 0
BBX 24 40 3 1
BITMAP
01C000
03E000
07F000
07F800
07FE00
03FF00
00FE00
007C00
001C00
000000
000000
FF00FF
FF01FF
FF01FF
FF03FF
FF03FF
FF07FF
FF07FF
FF0FFF
FF0FFF
FF1FFF
FF1FBF
FF3FFF
FF3F7F
FE7F7F
FE7E7F
FE7E7F
FEFC7F
FEFC7F
FFF87F
FFF87F
FFF07F
FFF07F
FFE07F
FFE07F
FFE07F
FFC07F
FFC07F
FF807F
FF807F
ENDCHAR
STARTCHAR 040E
ENCODING 1038
SWIDTH 562 0
DWIDTH 25 0
BBX 25 37 0 0
BITMAP
07E1FC00
07F1F800
03FFF800
03FFF000
01FFE000
007F8000
00000000
00000000
FF003F80
7F803F80
7F807F80
3F807F00
3FC0FF00
1FC0FE00
1FE0FE00
0FE1FE00
0FE1FC00
0FF1FC00
07F3F800
07F3F800
03FBF800
03FFF000
01FFF000
01FFE000
00FFE000
00FFE000
007FC000
007FC000
003F8000
007F8000
07FF0000
0FFF0000
0FFE0000
0FFE0000
0FFC0000
0FF80000
0FE00000
ENDCHAR
STARTCHAR 040F
ENCODING 1039
SWIDTH 675 0
DWIDTH 30 0
BBX 24 37 3 -8
BITMAP
FF00FF
FF00FF
FF00FF
FF00FF
FF00FF
FF00FF
FF00FF
FF00FF
FF00FF
FF00FF
FF00FF
FF00FF
FF00FF
FF00FF
FF00FF
FF00FF
FF00FF
FF00FF
FF00FF
FF00FF
FF00FF
FF00FF
FF00FF
FFFFFF
FFFFFF
FFFFFF
FFFFFF
FFFFFF
FFFFFF
007F00
007F00
007F00
007F00
007F00
007F00
007F00
007E00
ENDCHAR
STARTCHAR 0410
ENCODING 1040
SWIDTH 585 0
DWIDTH 26 0
BBX 26 29 0 0
BITMAP
00FFC000
00FFC000
00FFC000
01FFE000
01FFE000
01FFE000
03FFF000
03F7F000
03F3F000
07F3F000
07F3F800
07F3F800
07E3F800
0FE1FC00
0FE1FC00
0FE1FC00
1FC1FE00
1FFFFE00
1FFFFE00
3FFFFF00
3FFFFF00
3FFFFF00
3FFFFF00
7F807F80
7F007F80
7F007F80
FF003FC0
FF003FC0
FE003FC0
ENDCHAR
STARTCHAR 0411
ENCODING 1041
SWIDTH 607 0
DWIDTH 27 0
BBX 23 29 3 0
BITMAP
FFFFF8
FFFFF8
FFFFF8
FFFFF8
FFFFF8
FFFFF8
FF0000
FF0000
FF0000
FF0000
FF0000
FFFF00
FFFFE0
FFFFF0
FFFFF8
FFFFFC
FFFFFC
FF03FC
FF01FC
FF01FE
FF01FE
FF01FC
FF03FC
FFFFFC
FFFFF8
FFFFF8
FFFFF0
FFFFC0
FFFF00
ENDCHAR
STARTCHAR 0412
ENCODING 1042
SWIDTH 607 0
DWIDTH 27 0
BBX 23 29 3 0
BITMAP
FFFF00
FFFFC0
FFFFF0
FFFFF8
FFFFF8
FFFFF8
FF07FC
FF03FC
FF03F8
FF03F8
FF07F8
FFFFF0
FFFFE0
FFFFC0
FFFFF0
FFFFF8
FFFFFC
FF03FC
FF01FE
FF01FE
FF01FE
FF01FE
FF03FE
FFFFFC
FFFFFC
FFFFF8
FFFFF0
FFFFE0
FFFF00
ENDCHAR
STARTCHAR 0413
ENCODING 1043
SWIDTH 540 0
DWIDTH 24 0
BBX 19 29 3 0
BITMAP
FFFFE0
FFFFE0
FFFFE0
FFFFE0
FFFFE0
FFFFE0
FF0000
FF0000
FF0000
FF0000
FF0000
FF0000
FF0000
FF0000
FF0000
FF0000
FF0000
FF0000
FF0000
FF0000
FF0000
FF0000
FF0000
FF0000
FF0000
FF0000
FF0000
FF0000
FF0000
ENDCHAR
STARTCHAR 0414
ENCODING 1044
SWIDTH 675 0
DWIDTH 30 0
BBX 30 37 0 -8
BITMAP
00FFFFC0
00FFFFC0
00FFFFC0
00FFFFC0
01FFFFC0
01FFFFC0
01FC1FC0
01FC1FC0
01FC1FC0
03F81FC0
03F81FC0
03F81FC0
03F81FC0
03F81FC0
03F81FC0
07F01FC0
07F01FC0
07F01FC0
0FF01FC0
0FE01FC0
0FE01FC0
1FC01FC0
3FC01FC0
FFFFFFFC
FFFFFFFC
FFFFFFFC
FFFFFFFC
FFFFFFFC
FFFFFFFC
FF0003FC
7F0003FC
7F0003FC
7F0003FC
7F0003FC
7F0003F8
7F0003F8
7F0003F8
ENDCHAR
STARTCHAR 0415
ENCODING 1045
SWIDTH 562 0
DWIDTH 25 0
BBX 19 29 3 0
BITMAP
FFFFE0
FFFFE0
FFFFE0
FFFFE0
FFFFE0
FFFFE0
FF0000
FF0000
FF0000
FF0000
FF0000
FFFF80
FFFF80
FFFF80
FFFF80
FFFF80
FFFF80
FF0000
FF0000
FF0000
FF0000
FF0000
FF0000
FFFFE0
FFFFE0
FFFFE0
FFFFE0
FFFFE0
FFFFE0
ENDCHAR
STARTCHAR 0416
ENCODING 1046
SWIDTH 900 0
DWIDTH 40 0
BBX 39 29 0 0
BITMAP
FC00FE007E
7F00FE01FE
7FC0FE03FE
7FC0FE03FE
7FE0FE07FE
7FF0FE0FFC
7FF0FE0FFC
0FF8FE1FE0
03F8FE1FC0
03F8FE3F80
01FCFE3F80
01FFFFFF80
00FFFFFF00
00FFFFFF00
00FFFFFF00
01FFFFFF00
01FFFFFF80
03FCFE3F80
03F8FE1FC0
07F8FE1FE0
07F0FE1FE0
0FF0FE0FF0
1FE0FE0FF0
1FE0FE07F8
3FC0FE07F8
3FC0FE03FC
7F80FE03FC
7F80FE01FE
FF00FE01FE
ENDCHAR
STARTCHAR 0417
ENCODING 1047
SWIDTH 562 0
DWIDTH 25 0
BBX 22 29 2 0
BITMAP
03FC00
1FFF80
3FFFC0
FFFFE0
7FFFF0
3FFFF0
3FFFF8
1C07F8
0007F8
0007F0
0007F0
03FFF0
03FFE0
03FF80
03FFE0
03FFF0
03FFF8
0007F8
0003FC
0003FC
1003FC
3C03FC
7FFFFC
7FFFF8
FFFFF8
FFFFF0
7FFFE0
1FFF80
03FC00
ENDCHAR
STARTCHAR 0418
ENCODING 1048
SWIDTH 675 0
DWIDTH 30 0
BBX 24 29 3 0
BITMAP
FF00FF
FF01FF
FF01FF
FF03FF
FF03FF
FF07FF
FF07FF
FF0FFF
FF0FFF
FF1FFF
FF1FBF
FF3FFF
FF3F7F
FE7F7F
FE7E7F
FE7E7F
FEFC7F
FEFC7F
FFF87F
FFF87F
FFF07F
FFF07F
FFE07F
FFE07F
FFE07F
FFC07F
FFC07F
FF807F
FF807F
ENDCHAR
STARTCHAR 0419
ENCODING 1049
SWIDTH 675 0
DWIDTH 30 0
BBX 24 38 3 0
BITMAP
0FC3F8
0FE3F8
07FFF0
07FFF0
03FFE0
00FF80
000000
000000
000000
FF00FF
FF01FF
FF01FF
FF03FF
FF03FF
FF07FF
FF07FF
FF0FFF
FF0FFF
FF1FFF
FF1FBF
FF3FFF
FF3F7F
FE7F7F
FE7E7F
FE7E7F
FEFC7F
FEFC7F
FFF87F
FFF87F
FFF07F
FFF07F
FFE07F
FFE07F
FFE07F
FFC07F
FFC07F
FF807F
FF807F
ENDCHAR
STARTCHAR 041A
ENCODING 1050
SWIDTH 630 0
DWIDTH 28 0
BBX 25 29 3 0
BITMAP
FF001F80
FF007F00
FF00FF00
FF01FF00
FF03FF00
FF03FF00
FF07FF00
FF07F800
FF0FF000
FF1FE000
FF1FC000
FFFFC000
FFFF8000
FFFF0000
FFFF8000
FFFF8000
FFFFC000
FF1FE000
FF1FE000
FF0FF000
FF0FF000
FF07F800
FF03FC00
FF03FC00
FF01FE00
FF01FE00
FF00FF00
FF007F80
FF007F80
ENDCHAR
STARTCHAR 041B
ENCODING 1051
SWIDTH 675 0
DWIDTH 30 0
BBX 27 29 -1 0
BITMAP
003FFFE0
007FFFE0
007FFFE0
007FFFE0
007FFFE0
007FFFE0
007F0FE0
00FE0FE0
00FE0FE0
00FE0FE0
00FE0FE0
00FE0FE0
01FC0FE0
01FC0FE0
01FC0FE0
01FC0FE0
01FC0FE0
03F80FE0
03F80FE0
03F80FE0
07F80FE0
0FF00FE0
3FF00FE0
7FF00FE0
7FE00FE0
7FE00FE0
7FC00FE0
7F800FE0
FE000FE0
ENDCHAR
STARTCHAR 041C
ENCODING 1052
SWIDTH 765 0
DWIDTH 34 0
BBX 28 29 3 0
BITMAP
FF800FF0
FF800FF0
FF801FF0
FFC01FF0
FFC01FF0
FFC03FF0
FFE03FF0
FFE07FF0
FFF07FF0
FFF07FF0
FFF0FFF0
FDF8FFF0
FDF8FBF0
FFF9FBF0
FEFDFBF0
FEFDF3F0
FEFDF3F0
FE7FF3F0
FE7FE7F0
FE7FE7F0
FE3FC7F0
FE3FC7F0
FE1FC7F0
FE1F87F0
FE1F87F0
FE0F87F0
FE0F07F0
FE0007F0
FE0007F0
ENDCHAR
STARTCHAR 041D
ENCODING 1053
SWIDTH 675 0
DWIDTH 30 0
BBX 24 29 3 0
BITMAP
FF00FF
FF00FF
FF00FF
FF00FF
FF00FF
FF00FF
FF00FF
FF00FF
FF00FF
FF00FF
FF00FF
FFFFFF
FFFFFF
FFFFFF
FFFFFF
FFFFFF
FFFFFF
FFFFFF
FF00FF
FF00FF
FF00FF
FF00FF
FF00FF
FF00FF
FF00FF
FF00FF
FF00FF
FF00FF
FF00FF
ENDCHAR
STARTCHAR 041E
ENCODING 1054
SWIDTH 697 0
DWIDTH 31 0
BBX 27 29 2 0
BITMAP
003F8000
01FFF000
07FFFC00
0FFFFE00
1FFFFF00
3FFFFF00
3FFFFF80
7FC0FFC0
7F807FC0
7F803FC0
FF003FC0
FF001FE0
FF001FE0
FF001FE0
FF001FE0
FF001FE0
FF001FE0
FF001FE0
FF003FC0
7F803FC0
7FC07FC0
7FE0FF80
3FFFFF80
3FFFFF00
1FFFFF00
0FFFFE00
07FFF800
01FFF000
007F8000
ENDCHAR
STARTCHAR 041F
ENCODING 1055
SWIDTH 675 0
DWIDTH 30 0
BBX 24 29 3 0
BITMAP
FFFFFF
FFFFFF
FFFFFF
FFFFFF
FFFFFF
FFFFFF
FF00FF
FF00FF
FF00FF
FF00FF
FF00FF
FF00FF
FF00FF
FF00FF
FF00FF
FF00FF
FF00FF
FF00FF
FF00FF
FF00FF
FF00FF
FF00FF
FF00FF
FF00FF
FF00FF
FF00FF
FF00FF
FF00FF
FF00FF
ENDCHAR
STARTCHAR 0420
ENCODING 1056
SWIDTH 607 0
DWIDTH 27 0
BBX 23 29 3 0
BITMAP
FFFE00
FFFFC0
FFFFF0
FFFFF8
FFFFF8
FFFFFC
FF07FC
FF03FC
FF01FC
FF01FE
FF01FE
FF01FC
FF03FC
FF07FC
FFFFF8
FFFFF8
FFFFF0
FFFFE0
FFFFC0
FFFE00
FF0000
FF0000
FF0000
FF0000
FF0000
FF0000
FF0000
FF0000
FF0000
ENDCHAR
STARTCHAR 0421
ENCODING 1057
SWIDTH 585 0
DWIDTH 26 0
BBX 23 29 2 0
BITMAP
003F80
00FFF0
03FFF8
07FFFE
0FFFFC
1FFFF8
3FFFF8
3FE070
7FC000
7F8000
7F8000
FF0000
FF0000
FF0000
FF0000
FF0000
FF0000
FF0000
FF0000
7F8000
7FC010
7FE070
3FFFF8
3FFFFC
1FFFFE
0FFFFE
07FFF8
01FFF0
003F80
ENDCHAR
STARTCHAR 0422
ENCODING 1058
SWIDTH 562 0
DWIDTH 25 0
BBX 23 29 1 0
BITMAP
FFFFFE
FFFFFE
FFFFFE
FFFFFE
FFFFFE
FFFFFE
00FE00
00FE00
00FE00
00FE00
00FE00
00FE00
00FE00
00FE00
00FE00
00FE00
00FE00
00FE00
00FE00
00FE00
00FE00
00FE00
00FE00
00FE00
00FE00
00FE00
00FE00
00FE00
00FE00
ENDCHAR
STARTCHAR 0423
ENCODING 1059
SWIDTH 562 0
DWIDTH 25 0
BBX 25 29 0 0
BITMAP
FF003F80
7F803F80
7F807F80
3F807F00
3FC0FF00
1FC0FE00
1FE0FE00
0FE1FE00
0FE1FC00
0FF1FC00
07F3F800
07F3F800
03FBF800
03FFF000
01FFF000
01FFE000
00FFE000
00FFE000
007FC000
007FC000
003F8000
007F8000
07FF0000
0FFF0000
0FFE0000
0FFE0000
0FFC0000
0FF80000
0FE00000
ENDCHAR
STARTCHAR 0424
ENCODING 1060
SWIDTH 765 0
DWIDTH 34 0
BBX 31 29 2 0
BITMAP
000FE000
000FE000
000FE000
001FE000
01FFFF00
07FFFFC0
1FFFFFE0
3FFFFFF0
3FFFFFF8
7FCFEFFC
7F0FE3FC
FF0FE1FC
FE0FE1FC
FE0FE1FE
FE0FE1FE
FE0FE1FC
FE0FE1FC
FF0FE1FC
7F8FE3FC
7FCFE7F8
3FFFFFF8
3FFFFFF0
1FFFFFE0
07FFFFC0
03FFFF00
001FF000
000FE000
000FE000
000FE000
ENDCHAR
STARTCHAR 0425
ENCODING 1061
SWIDTH 585 0
DWIDTH 26 0
BBX 24 29 1 0
BITMAP
FF80FF
7F80FE
7F81FE
3FC1FC
3FC3FC
1FE3F8
1FE3F8
0FF7F0
0FF7F0
07F7E0
07FFE0
03FFC0
03FFC0
01FF80
01FF80
01FF80
03FFC0
07FFE0
07FFE0
0FEFF0
0FEFF0
1FE7F8
1FC7F8
3FC3FC
3F83FC
7F81FE
7F81FE
FF01FF
FF00FF
ENDCHAR
STARTCHAR 0426
ENCODING 1062
SWIDTH 675 0
DWIDTH 30 0
BBX 27 37 3 -8
BITMAP
FF00FE00
FF00FE00
FF00FE00
FF00FE00
FF00FE00
FF00FE00
FF00FE00
FF00FE00
FF00FE00
FF00FE00
FF00FE00
FF00FE00
FF00FE00
FF00FE00
FF00FE00
FF00FE00
FF00FE00
FF00FE00
FF00FE00
FF00FE00
FF00FE00
FF00FE00
FF00FE00
FFFFFFE0
FFFFFFE0
FFFFFFE0
FFFFFFE0
FFFFFFE0
FFFFFFE0
00001FE0
00001FE0
00001FE0
00001FE0
00001FC0
00001FC0
00001FC0
00001FC0
ENDCHAR
STARTCHAR 0427
ENCODING 1063
SWIDTH 652 0
DWIDTH 29 0
BBX 22 29 3 0
BITMAP
FE01FC
FE01FC
FE01FC
FE01FC
FE01FC
FE01FC
FE01FC
FE01FC
FE01FC
FE01FC
FF01FC
FF81FC
FFFFFC
7FFFFC
3FFFFC
3FFFFC
0FFFFC
03FFFC
0001FC
0001FC
0001FC
0001FC
0001FC
0001FC
0001FC
0001FC
0001FC
0001FC
0001FC
ENDCHAR
STARTCHAR 0428
ENCODING 1064
SWIDTH 922 0
DWIDTH 41 0
BBX 35 29 3 0
BITMAP
FF03F80FE0
FF03F80FE0
FF03F80FE0
FF03F80FE0
FF03F80FE0
FF03F80FE0
FF03F80FE0
FF03F80FE0
FF03F80FE0
FF03F80FE0
FF03F80FE0
FF03F80FE0
FF03F80FE0
FF03F80FE0
FF03F80FE0
FF03F80FE0
FF03F80FE0
FF03F80FE0
FF03F80FE0
FF03F80FE0
FF03F80FE0
FF03F80FE0
FF03F80FE0
FFFFFFFFE0
FFFFFFFFE0
FFFFFFFFE0
FFFFFFFFE0
FFFFFFFFE0
FFFFFFFFE0
ENDCHAR
STARTCHAR 0429
ENCODING 1065
SWIDTH 945 0
DWIDTH 42 0
BBX 39 37 3 -8
BITMAP
FF03F80FE0
FF03F80FE0
FF03F80FE0
FF03F80FE0
FF03F80FE0
FF03F80FE0
FF03F80FE0
FF03F80FE0
FF03F80FE0
FF03F80FE0
FF03F80FE0
FF03F80FE0
FF03F80FE0
FF03F80FE0
FF03F80FE0
FF03F80FE0
FF03F80FE0
FF03F80FE0
FF03F80FE0
FF03F80FE0
FF03F80FE0
FF03F80FE0
FF03F80FE0
FFFFFFFFFE
FFFFFFFFFE
FFFFFFFFFE
FFFFFFFFFE
FFFFFFFFFE
FFFFFFFFFE
00000001FE
00000001FC
00000001FC
00000001FC
00000001FC
00000001FC
00000001FC
00000001FC
ENDCHAR
STARTCHAR 042A
ENCODING 1066
SWIDTH 742 0
DWIDTH 33 0
BBX 30 29 1 0
BITMAP
FFFF0000
FFFF0000
FFFF0000
FFFF0000
FFFF0000
FFFF0000
00FF0000
00FF0000
00FF0000
00FF0000
00FFFE00
00FFFFC0
00FFFFE0
00FFFFF0
00FFFFF8
00FFFFF8
00FF07FC
00FF03FC
00FF01FC
00FF01FC
00FF01FC
00FF03FC
00FF07FC
00FFFFF8
00FFFFF8
00FFFFF0
00FFFFE0
00FFFFC0
00FFFE00
ENDCHAR
STARTCHAR 042B
ENCODING 1067
SWIDTH 877 0
DWIDTH 39 0
BBX 33 29 3 0
BITMAP
FF00007F80
FF00007F80
FF00007F80
FF00007F80
FF00007F80
FF00007F80
FF00007F80
FF00007F80
FF00007F80
FF00007F80
FFFE007F80
FFFF807F80
FFFFE07F80
FFFFF07F80
FFFFF87F80
FFFFF87F80
FF0FF87F80
FF03FC7F80
FF03FC7F80
FF03FC7F80
FF03FC7F80
FF03F87F80
FF0FF87F80
FFFFF87F80
FFFFF07F80
FFFFF07F80
FFFFE07F80
FFFF807F80
FFFC007F80
ENDCHAR
STARTCHAR 042C
ENCODING 1068
SWIDTH 607 0
DWIDTH 27 0
BBX 23 29 3 0
BITMAP
FF0000
FF0000
FF0000
FF0000
FF0000
FF0000
FF0000
FF0000
FF0000
FF0000
FFFF00
FFFFC0
FFFFF0
FFFFF8
FFFFF8
FFFFFC
FF07FC
FF01FC
FF01FE
FF01FE
FF01FC
FF03FC
FF07FC
FFFFFC
FFFFF8
FFFFF8
FFFFF0
FFFFC0
FFFE00
ENDCHAR
STARTCHAR 042D
ENCODING 1069
SWIDTH 585 0
DWIDTH 26 0
BBX 23 29 1 0
BITMAP
03FC00
0FFF00
3FFFC0
FFFFE0
7FFFF0
3FFFF8
3FFFF8
1C07FC
0003FC
0001FC
0001FE
03FFFE
03FFFE
03FFFE
03FFFE
03FFFE
03FFFE
0001FE
0001FE
0001FE
1003FC
1C07FC
3FFFF8
7FFFF8
FFFFF0
7FFFE0
3FFFC0
1FFF00
03FC00
ENDCHAR
STARTCHAR 042E
ENCODING 1070
SWIDTH 967 0
DWIDTH 43 0
BBX 38 29 3 0
BITMAP
FF0007F800
FF003FFF00
FF007FFF80
FF00FFFFC0
FF01FFFFE0
FF03FFFFF0
FF03FFFFF0
FF07FC0FF8
FF07F807F8
FF07F807F8
FF0FF003FC
FFFFF003FC
FFFFF003FC
FFFFF003FC
FFFFF003FC
FFFFF003FC
FFFFF003FC
FFFFF003FC
FF0FF003FC
FF07F807F8
FF07F807F8
FF07FC0FF8
FF03FFFFF0
FF03FFFFF0
FF01FFFFE0
FF00FFFFC0
FF007FFF80
FF003FFE00
FF0007F800
ENDCHAR
STARTCHAR 042F
ENCODING 1071
SWIDTH 630 0
DWIDTH 28 0
BBX 24 29 1 0
BITMAP
00FFFF
03FFFF
0FFFFF
1FFFFF
3FFFFF
3FFFFF
3FC0FF
7F80FF
7F80FF
7F80FF
7F80FF
3F80FF
3FE0FF
3FFFFF
1FFFFF
1FFFFF
0FFFFF
03FFFF
03FFFF
07F8FF
07F8FF
0FF0FF
0FF0FF
1FE0FF
3FE0FF
3FC0FF
7F80FF
FF80FF
FF00FF
ENDCHAR
STARTCHAR 0430
ENCODING 1072
SWIDTH 540 0
DWIDTH 24 0
BBX 19 22 2 0
BITMAP
03FC00
1FFF00
7FFF80
7FFFC0
7FFFC0
3FFFE0
3C1FE0
100FE0
003FE0
07FFE0
1FFFE0
3FFFE0
7FCFE0
FF0FE0
FE0FE0
FE1FE0
FFFFE0
FFFFE0
FFFFE0
7FFFE0
3FE7E0
0F87E0
ENDCHAR
STARTCHAR 0431
ENCODING 1073
SWIDTH 562 0
DWIDTH 25 0
BBX 22 33 2 0
BITMAP
000020
0007F0
007FF0
03FFF0
07FFF0
0FFFF8
1FFFF8
3FFFE0
3FFC00
7FC000
7F0000
FF0400
FE7F80
FEFFE0
FFFFF0
FFFFF0
FFFFF8
FF8FF8
FF07F8
FE03F8
FE03FC
FE03FC
FE03FC
FE03F8
FF07F8
7F07F8
7F8FF8
3FFFF0
3FFFF0
1FFFE0
0FFFC0
07FF00
01FC00
ENDCHAR
STARTCHAR 0432
ENCODING 1074
SWIDTH 540 0
DWIDTH 24 0
BBX 19 22 3 0
BITMAP
FFFC00
FFFF00
FFFFC0
FFFFC0
FFFFC0
FE1FE0
FE1FE0
FE1FC0
FFFFC0
FFFF00
FFFF00
FFFFC0
FFFFE0
FE1FE0
FE0FE0
FE0FE0
FE1FE0
FFFFE0
FFFFE0
FFFFC0
FFFF80
FFFC00
ENDCHAR
STARTCHAR 0433
ENCODING 1075
SWIDTH 450 0
DWIDTH 20 0
BBX 15 22 3 0
BITMAP
FFFE
FFFE
FFFE
FFFE
FFFE
FFFE
FE00
FE00
FE00
FE00
FE00
FE00
FE00
FE00
FE00
FE00
FE00
FE00
FE00
FE00
FE00
FE00
ENDCHAR
STARTCHAR 0434
ENCODING 1076
SWIDTH 607 0
DWIDTH 27 0
BBX 26 30 0 -8
BITMAP
07FFFE00
07FFFE00
07FFFE00
07FFFE00
07FFFE00
07FFFE00
0FE1FE00
0FE1FE00
0FE1FE00
0FE1FE00
0FE1FE00
0FE1FE00
0FC1FE00
1FC1FE00
1FC1FE00
1FC1FE00
FFFFFFC0
FFFFFFC0
FFFFFFC0
FFFFFFC0
FFFFFFC0
FFFFFFC0
FF001FC0
7F001FC0
7F001FC0
7F001FC0
7F001FC0
7F001FC0
7F001FC0
7F001FC0
ENDCHAR
STARTCHAR 0435
ENCODING 1077
SWIDTH 517 0
DWIDTH 23 0
BBX 21 22 1 0
BITMAP
00FE00
03FF80
0FFFC0
1FFFE0
3FFFE0
3FFFF0
7F83F0
7F03F8
7FFFF8
7FFFF8
FFFFF8
FFFFF8
7FFFF8
7F0000
7F8000
7FC0C0
3FFFC0
3FFFE0
1FFFE0
0FFFF0
03FFC0
00FE00
ENDCHAR
STARTCHAR 0436
ENCODING 1078
SWIDTH 787 0
DWIDTH 35 0
BBX 35 22 0 0
BITMAP
3E03F80FC0
3F83F81F80
3FC3F83F80
3FE3F87F80
3FE3F8FF80
3FF3F8FF80
3FF3F9FF80
07F3F9FC00
03FFFFF800
01FFFFF800
01FFFFF000
01FFFFF000
03FFFFF800
03FFFFFC00
07F3F9FC00
0FF3F9FE00
0FE3F8FE00
1FE3F8FF00
3FC3F87F80
3FC3F87F80
7F83F83FC0
FF83F81FE0
ENDCHAR
STARTCHAR 0437
ENCODING 1079
SWIDTH 495 0
DWIDTH 22 0
BBX 19 22 1 0
BITMAP
07F800
3FFE00
7FFF80
7FFFC0
3FFFC0
3FFFC0
101FC0
001FC0
07FF80
07FF00
07FF00
07FFC0
07FFC0
001FE0
000FE0
181FE0
3FFFE0
7FFFE0
7FFFC0
FFFF80
3FFE00
0FF800
ENDCHAR
STARTCHAR 0438
ENCODING 1080
SWIDTH 585 0
DWIDTH 26 0
BBX 21 22 3 0
BITMAP
FE07F8
FE07F8
FE0FF8
FE0FF8
FE1FF8
FE3FF8
FE3FF8
FE7FF8
FE7FF8
FEFFF8
FEFBF8
FDFBF8
FDF3F8
FFF7F8
FFE7F8
FFC7F8
FFC7F8
FF87F8
FF87F8
FF07F8
FE07F8
FE07F8
ENDCHAR
STARTCHAR 0439
ENCODING 1081
SWIDTH 585 0
DWIDTH 26 0
BBX 21 32 3 0
BITMAP
1F0FC0
1F8FC0
1F8FC0
1FFF80
0FFF80
07FF00
01FC00
000000
000000
000000
FE07F8
FE07F8
FE0FF8
FE0FF8
FE1FF8
FE3FF8
FE3FF8
FE7FF8
FE7FF8
FEFFF8
FEFBF8
FDFBF8
FDF3F8
FFF7F8
FFE7F8
FFC7F8
FFC7F8
FF87F8
FF87F8
FF07F8
FE07F8
FE07F8
ENDCHAR
STARTCHAR 043A
ENCODING 1082
SWIDTH 562 0
DWIDTH 25 0
BBX 22 22 3 0
BITMAP
FE01F0
FE07F0
FE0FF0
FE1FE0
FE1FE0
FE3FE0
FE3FE0
FE7F00
FFFF00
FFFE00
FFFE00
FFFE00
FFFF00
FFFF00
FE7F80
FE3FC0
FE3FC0
FE1FE0
FE1FF0
FE0FF0
FE07F8
FE07FC
ENDCHAR
STARTCHAR 043B
ENCODING 1083
SWIDTH 585 0
DWIDTH 26 0
BBX 24 22 0 0
BITMAP
03FFFF
03FFFF
03FFFF
03FFFF
03FFFF
03FFFF
03F0FF
07F0FF
07F0FF
07F0FF
07F0FF
07F0FF
07E0FF
0FE0FF
0FE0FF
7FE0FF
7FE0FF
7FC0FF
7FC0FF
7F80FF
FF00FF
FC00FF
ENDCHAR
STARTCHAR 043C
ENCODING 1084
SWIDTH 675 0
DWIDTH 30 0
BBX 24 22 3 0
BITMAP
FF01FF
FF81FF
FF81FF
FF83FF
FFC3FF
FFC3FF
FFC3FF
FFE7FF
FFE7FF
FFE7FF
FDFFBF
FDFFBF
FDFF3F
FCFF3F
FCFF3F
FCFE3F
FC7E3F
FC7E7F
FC7C7F
FC3C7F
FC007F
FC007F
ENDCHAR
STARTCHAR 043D
ENCODING 1085
SWIDTH 585 0
DWIDTH 26 0
BBX 21 22 3 0
BITMAP
FE07F8
FE07F8
FE07F8
FE07F8
FE07F8
FE07F8
FE07F8
FFFFF8
FFFFF8
FFFFF8
FFFFF8
FFFFF8
FFFFF8
FFFFF8
FE07F8
FE07F8
FE07F8
FE07F8
FE07F8
FE07F8
FE07F8
FE07F8
ENDCHAR
STARTCHAR 043E
ENCODING 1086
SWIDTH 562 0
DWIDTH 25 0
BBX 22 22 1 0
BITMAP
00FE00
03FF80
0FFFE0
1FFFF0
1FFFF0
3FFFF8
7FC7FC
7F83FC
7F83FC
7F01FC
FF01FC
FF01FC
7F01FC
7F83FC
7F83FC
7FC7FC
3FFFF8
3FFFF0
1FFFF0
0FFFE0
03FF80
00FE00
ENDCHAR
STARTCHAR 043F
ENCODING 1087
SWIDTH 585 0
DWIDTH 26 0
BBX 20 22 3 0
BITMAP
FFFFF0
FFFFF0
FFFFF0
FFFFF0
FFFFF0
FFFFF0
FE07F0
FE07F0
FE07F0
FE07F0
FE07F0
FE07F0
FE07F0
FE07F0
FE07F0
FE07F0
FE07F0
FE07F0
FE07F0
FE07F0
FE07F0
FE07F0
ENDCHAR
STARTCHAR 0440
ENCODING 1088
SWIDTH 585 0
DWIDTH 26 0
BBX 21 30 3 -8
BITMAP
FC3F00
FCFF80
FDFFC0
FFFFE0
FFFFF0
FFFFF0
FF8FF8
FE07F8
FE07F8
FE07F8
FE07F8
FE07F8
FE07F8
FE07F8
FE07F8
FF9FF0
FFFFF0
FFFFE0
FFFFE0
FFFFC0
FEFF80
FE7E00
FE0000
FE0000
FE0000
FE0000
FE0000
FE0000
FE0000
FE0000
ENDCHAR
STARTCHAR 0441
ENCODING 1089
SWIDTH 472 0
DWIDTH 21 0
BBX 19 22 1 0
BITMAP
007F00
03FFC0
07FFE0
0FFFC0
1FFF80
3FFF00
7FE300
7F8000
7F8000
7F0000
FF0000
FF0000
7F0000
7F8000
7F8000
7FE380
3FFF80
3FFFC0
1FFFC0
0FFFE0
03FF80
00FE00
ENDCHAR
STARTCHAR 0442
ENCODING 1090
SWIDTH 495 0
DWIDTH 22 0
BBX 20 22 1 0
BITMAP
FFFFF0
FFFFF0
FFFFF0
FFFFF0
FFFFF0
FFFFF0
03FC00
03FC00
03FC00
03FC00
03FC00
03FC00
03FC00
03FC00
03FC00
03FC00
03FC00
03FC00
03FC00
03FC00
03FC00
03FC00
ENDCHAR
STARTCHAR 0443
ENCODING 1091
SWIDTH 540 0
DWIDTH 24 0
BBX 22 30 1 -8
BITMAP
FE01FC
FF01FC
7F01FC
7F03F8
7F83F8
3F83F8
3F83F0
1FC7F0
1FC7F0
1FC7E0
0FC7E0
0FEFE0
07EFC0
07EFC0
07EF80
03FF80
03FF80
01FF00
01FF00
01FF00
00FE00
00FE00
01FE00
01FC00
1FFC00
3FF800
3FF000
3FF000
3FC000
3F0000
ENDCHAR
STARTCHAR 0444
ENCODING 1092
SWIDTH 787 0
DWIDTH 35 0
BBX 32 40 2 -8
BITMAP
000FE000
000FE000
000FE000
000FE000
000FE000
000FE000
000FE000
000FE000
000FE000
000FE000
03EFE7C0
0FFFFFF0
1FFFFFF8
3FFFFFFC
7FFFFFFC
7FFFFFFE
FF8FF3FE
FF0FE1FE
FF0FE0FF
FF0FE0FF
FE0FE0FF
FE0FE0FF
FF0FE0FF
FF0FE0FF
FF0FE1FE
FF8FF3FE
7FFFFFFE
7FFFFFFC
3FFFFFF8
3FFFFFF8
1FFFFFE0
07EFEFC0
000FE000
000FE000
000FE000
000FE000
000FE000
000FE000
000FE000
000FE000
ENDCHAR
STARTCHAR 0445
ENCODING 1093
SWIDTH 540 0
DWIDTH 24 0
BBX 22 22 1 0
BITMAP
FF03FC
7F83F8
7F87F8
3FC7F0
1FC7F0
1FEFE0
0FEFC0
0FFFC0
07FF80
03FF80
03FF00
03FF00
07FF00
07FF80
0FFFC0
1FDFC0
1FDFE0
3F8FF0
3F8FF0
7F87F8
FF07F8
FF03FC
ENDCHAR
STARTCHAR 0446
ENCODING 1094
SWIDTH 607 0
DWIDTH 27 0
BBX 24 30 3 -8
BITMAP
FE0FF0
FE0FF0
FE0FF0
FE0FF0
FE0FF0
FE0FF0
FE0FF0
FE0FF0
FE0FF0
FE0FF0
FE0FF0
FE0FF0
FE0FF0
FE0FF0
FE0FF0
FE0FF0
FFFFFF
FFFFFF
FFFFFF
FFFFFF
FFFFFF
FFFFFF
0000FF
0000FF
0000FE
0000FE
0000FE
0000FE
0000FE
0000FE
ENDCHAR
STARTCHAR 0447
ENCODING 1095
SWIDTH 562 0
DWIDTH 25 0
BBX 20 22 2 0
BITMAP
FF07F0
FF07F0
FF07F0
FF07F0
FF07F0
FF07F0
FF07F0
FF07F0
FF87F0
FFFFF0
7FFFF0
7FFFF0
3FFFF0
1FFFF0
07FFF0
0007F0
0007F0
0007F0
0007F0
0007F0
0007F0
0007F0
ENDCHAR
STARTCHAR 0448
ENCODING 1096
SWIDTH 832 0
DWIDTH 37 0
BBX 31 22 3 0
BITMAP
FE0FE1FE
FE0FE1FE
FE0FE1FE
FE0FE1FE
FE0FE1FE
FE0FE1FE
FE0FE1FE
FE0FE1FE
FE0FE1FE
FE0FE1FE
FE0FE1FE
FE0FE1FE
FE0FE1FE
FE0FE1FE
FE0FE1FE
FE0FE1FE
FFFFFFFE
FFFFFFFE
FFFFFFFE
FFFFFFFE
FFFFFFFE
FFFFFFFE
ENDCHAR
STARTCHAR 0449
ENCODING 1097
SWIDTH 855 0
DWIDTH 38 0
BBX 35 30 3 -8
BITMAP
FE0FE1FE00
FE0FE1FE00
FE0FE1FE00
FE0FE1FE00
FE0FE1FE00
FE0FE1FE00
FE0FE1FE00
FE0FE1FE00
FE0FE1FE00
FE0FE1FE00
FE0FE1FE00
FE0FE1FE00
FE0FE1FE00
FE0FE1FE00
FE0FE1FE00
FE0FE1FE00
FFFFFFFFE0
FFFFFFFFE0
FFFFFFFFE0
FFFFFFFFE0
FFFFFFFFE0
FFFFFFFFE0
0000001FE0
0000001FC0
0000001FC0
0000001FC0
0000001FC0
0000001FC0
0000001FC0
0000001FC0
ENDCHAR
STARTCHAR 044A
ENCODING 1098
SWIDTH 630 0
DWIDTH 28 0
BBX 26 22 1 0
BITMAP
FFFC0000
FFFC0000
FFFC0000
FFFC0000
FFFC0000
FFFC0000
03FC0000
03FFF000
03FFFE00
03FFFF00
03FFFF80
03FFFF80
03FFFFC0
03FC3FC0
03FC3FC0
03FC3FC0
03FFFF80
03FFFF80
03FFFF80
03FFFF00
03FFFE00
03FFF000
ENDCHAR
STARTCHAR 044B
ENCODING 1099
SWIDTH 765 0
DWIDTH 34 0
BBX 28 22 3 0
BITMAP
FE0007F0
FE0007F0
FE0007F0
FE0007F0
FE0007F0
FE0007F0
FF8007F0
FFFC07F0
FFFF07F0
FFFF87F0
FFFF87F0
FFFFC7F0
FE3FC7F0
FE1FC7F0
FE1FC7F0
FE3FC7F0
FFFFC7F0
FFFF87F0
FFFF87F0
FFFF07F0
FFFE07F0
FFF007F0
ENDCHAR
STARTCHAR 044C
ENCODING 1100
SWIDTH 517 0
DWIDTH 23 0
BBX 19 22 3 0
BITMAP
FE0000
FE0000
FE0000
FE0000
FE0000
FE0000
FFC000
FFFE00
FFFF80
FFFFC0
FFFFC0
FFFFE0
FE1FE0
FE1FE0
FE0FE0
FE1FE0
FFFFE0
FFFFC0
FFFFC0
FFFF80
FFFF00
FFF800
ENDCHAR
STARTCHAR 044D
ENCODING 1101
SWIDTH 472 0
DWIDTH 21 0
BBX 19 22 1 0
BITMAP
0FE000
3FFC00
FFFE00
7FFF00
3FFF80
1FFF80
003FC0
001FC0
0FFFC0
0FFFE0
0FFFE0
0FFFE0
0FFFC0
001FC0
001FC0
203FC0
3FFF80
7FFF80
FFFF00
FFFE00
7FF800
0FE000
ENDCHAR
STARTCHAR 044E
ENCODING 1102
SWIDTH 787 0
DWIDTH 35 0
BBX 31 22 3 0
BITMAP
FE007F00
FE01FFC0
FE07FFE0
FE0FFFF0
FE0FFFF8
FE1FFFFC
FE1FC7FC
FFFFC3FC
FFFF81FE
FFFF81FE
FFFF81FE
FFFF81FE
FFFF81FE
FFFF81FC
FE3FC3FC
FE1FE7FC
FE1FFFF8
FE0FFFF8
FE0FFFF0
FE07FFE0
FE01FFC0
FE007F00
ENDCHAR
STARTCHAR 044F
ENCODING 1103
SWIDTH 562 0
DWIDTH 25 0
BBX 21 22 1 0
BITMAP
01FFF8
07FFF8
1FFFF8
1FFFF8
3FFFF8
3FFFF8
3F87F8
3F87F8
3F87F8
3FC7F8
3FFFF8
1FFFF8
0FFFF8
07FFF8
0FFFF8
0FE7F8
1FE7F8
3FC7F8
3FC7F8
7F87F8
FF87F8
FF07F8
ENDCHAR
STARTCHAR 0450
ENCODING 1104
SWIDTH 517 0
DWIDTH 23 0
BBX 21 36 1 1
BITMAP
030000
078000
0FC000
1FC000
3FE000
1FF000
0FF800
03FC00
01F800
00F000
006000
000000
000000
000000
00FE00
03FF80
0FFFC0
1FFFE0
3FFFE0
3FFFF0
7F83F0
7F03F8
7FFFF8
7FFFF8
FFFFF8
FFFFF8
7FFFF8
7F0000
7F8000
7FC0C0
3FFFC0
3FFFE0
1FFFE0
0FFFF0
03FFC0
00FE00
ENDCHAR
STARTCHAR 0451
ENCODING 1105
SWIDTH 517 0
DWIDTH 23 0
BBX 21 31 1 0
BITMAP
0F03C0
1F87E0
1F87F0
3FC7F0
1F87F0
1F87E0
0F03C0
000000
000000
00FE00
03FF80
0FFFC0
1FFFE0
3FFFE0
3FFFF0
7F83F0
7F03F8
7FFFF8
7FFFF8
FFFFF8
FFFFF8
7FFFF8
7F0000
7F8000
7FC0C0
3FFFC0
3FFFE0
1FFFE0
0FFFF0
03FFC0
00FE00
ENDCHAR
STARTCHAR 0452
ENCODING 1106
SWIDTH 585 0
DWIDTH 26 0
BBX 24 40 0 -8
BITMAP
1FC000
1FC000
1FC000
FFFFC0
FFFFC0
FFFFC0
1FFFC0
1FC000
1FC000
1FC000
1FC000
1FC7E0
1FCFF8
1FFFFC
1FFFFC
1FFFFE
1FFFFE
1FFFFF
1FE1FF
1FC0FF
1FC0FF
1FC0FF
1FC0FF
1FC07F
1FC07F
1FC07F
1FC07F
1FC0FF
1FC0FF
1FC0FF
1FC0FF
1FC0FF
0001FE
0003FE
001FFE
001FFC
003FF8
003FF0
003FE0
003F80
ENDCHAR
STARTCHAR 0453
ENCODING 1107
SWIDTH 450 0
DWIDTH 20 0
BBX 17 37 3 0
BITMAP
001800
003C00
003E00
007F00
00FF80
01FF00
03FE00
07FC00
07F800
03E000
01C000
008000
000000
000000
000000
FFFE00
FFFE00
FFFE00
FFFE00
FFFE00
FFFE00
FE0000
FE0000
FE0000
FE0000
FE0000
FE0000
FE0000
FE0000
FE0000
FE0000
FE0000
FE0000
FE0000
FE0000
FE0000
FE0000
ENDCHAR
STARTCHAR 0454
ENCODING 1108
SWIDTH 472 0
DWIDTH 21 0
BBX 19 22 1 0
BITMAP
007F00
03FFC0
0FFFE0
1FFFC0
3FFF80
3FFF00
7F8100
7F0000
7FFC00
FFFC00
FFFC00
FFFC00
7FFC00
7F0000
7F0000
7FC180
3FFF80
3FFFC0
1FFFC0
0FFFE0
07FF80
00FE00
ENDCHAR
STARTCHAR 0455
ENCODING 1109
SWIDTH 450 0
DWIDTH 20 0
BBX 18 22 1 0
BITMAP
03F800
0FFF00
1FFF80
3FFF80
7FFF80
7FFF00
7F0600
7F8000
7FE000
3FFC00
3FFF00
0FFF80
07FF80
00FFC0
003FC0
381FC0
3FFFC0
7FFF80
FFFF80
7FFF00
3FFE00
07F000
ENDCHAR
STARTCHAR 0456
ENCODING 1110
SWIDTH 292 0
DWIDTH 13 0
BBX 9 33 2 0
BITMAP
0800
7F00
7F00
FF80
FF80
FF00
7F00
3E00
0000
0000
0000
7F00
7F00
7F00
7F00
7F00
7F00
7F00
7F00
7F00
7F00
7F00
7F00
7F00
7F00
7F00
7F00
7F00
7F00
7F00
7F00
7F00
7F00
ENDCHAR
STARTCHAR 0457
ENCODING 1111
SWIDTH 292 0
DWIDTH 13 0
BBX 17 32 -2 0
BITMAP
380E00
FC1F00
FE3F80
FE3F80
FE3F80
FC3F00
781E00
000000
000000
000000
07F000
07F000
07F000
07F000
07F000
07F000
07F000
07F000
07F000
07F000
07F000
07F000
07F000
07F000
07F000
07F000
07F000
07F000
07F000
07F000
07F000
07F000
ENDCHAR
STARTCHAR 0458
ENCODING 1112
SWIDTH 292 0
DWIDTH 13 0
BBX 13 41 -2 -8
BITMAP
0080
07F0
07F0
0FF8
0FF8
0FF8
07F0
03E0
0000
0000
0000
07F0
07F0
07F0
07F0
07F0
07F0
07F0
07F0
07F0
07F0
07F0
07F0
07F0
07F0
07F0
07F0
07F0
07F0
07F0
07F0
07F0
07F0
07F0
0FF0
7FF0
FFE0
FFE0
FFC0
FF80
FE00
ENDCHAR
STARTCHAR 0459
ENCODING 1113
SWIDTH 787 0
DWIDTH 35 0
BBX 34 22 0 0
BITMAP
03FFFE0000
03FFFE0000
03FFFE0000
03FFFE0000
03FFFE0000
03FFFE0000
03F1FE0000
07F1FFF800
07F1FFFE00
07F1FFFF00
07F1FFFF80
07F1FFFF80
07F1FFFFC0
07F1FE3FC0
0FE1FE1FC0
7FE1FE3FC0
7FE1FFFFC0
7FE1FFFF80
7FC1FFFF80
7F81FFFF00
FF01FFFE00
FC01FFF000
ENDCHAR
STARTCHAR 045A
ENCODING 1114
SWIDTH 810 0
DWIDTH 36 0
BBX 31 22 3 0
BITMAP
FE0FF000
FE0FF000
FE0FF000
FE0FF000
FE0FF000
FE0FF000
FE0FFC00
FFFFFFE0
FFFFFFF8
FFFFFFFC
FFFFFFFC
FFFFFFFE
FFFFF1FE
FFFFF0FE
FE0FF0FE
FE0FF1FE
FE0FFFFE
FE0FFFFC
FE0FFFFC
FE0FFFF8
FE0FFFF0
FE0FFF80
ENDCHAR
STARTCHAR 045B
ENCODING 1115
SWIDTH 585 0
DWIDTH 26 0
BBX 23 32 0 0
BITMAP
1FC000
1FC000
1FC000
FFFFC0
FFFFC0
FFFFC0
1FFFC0
1FC000
1FC000
1FC000
1FC000
1FC3E0
1FCFF8
1FFFFC
1FFFFC
1FFFFE
1FFFFE
1FFFFE
1FE1FE
1FC0FE
1FC0FE
1FC0FE
1FC0FE
1FC0FE
1FC0FE
1FC0FE
1FC0FE
1FC0FE
1FC0FE
1FC0FE
1FC0FE
1FC0FE
ENDCHAR
STARTCHAR 045C
ENCODING 1116
SWIDTH 562 0
DWIDTH 25 0
BBX 22 37 3 0
BITMAP
000200
000700
000F80
001FC0
001FE0
003FE0
007FC0
00FF00
00FE00
007C00
003800
001000
000000
000000
000000
FE01F0
FE07F0
FE0FF0
FE1FE0
FE1FE0
FE3FE0
FE3FE0
FE7F00
FFFF00
FFFE00
FFFE00
FFFE00
FFFF00
FFFF00
FE7F80
FE3FC0
FE3FC0
FE1FE0
FE1FF0
FE0FF0
FE07F8
FE07FC
ENDCHAR
STARTCHAR 045D
ENCODING 1117
SWIDTH 585 0
DWIDTH 26 0
BBX 21 37 3 0
BITMAP
060000
0F0000
1F8000
3F8000
7FC000
3FE000
1FF000
0FF800
07F800
01F000
00E000
004000
000000
000000
000000
FE07F8
FE07F8
FE0FF8
FE0FF8
FE1FF8
FE3FF8
FE3FF8
FE7FF8
FE7FF8
FEFFF8
FEFBF8
FDFBF8
FDF3F8
FFF7F8
FFE7F8
FFC7F8
FFC7F8
FF87F8
FF87F8
FF07F8
FE07F8
FE07F8
ENDCHAR
STARTCHAR 045E
ENCODING 1118
SWIDTH 540 0
DWIDTH 24 0
BBX 22 40 1 -8
BITMAP
1F87E0
0FC7E0
0FC7E0
0FFFC0
07FFC0
03FF80
00FE00
000000
000000
000000
FE01FC
FF01FC
7F01FC
7F03F8
7F83F8
3F83F8
3F83F0
1FC7F0
1FC7F0
1FC7E0
0FC7E0
0FEFE0
07EFC0
07EFC0
07EF80
03FF80
03FF80
01FF00
01FF00
01FF00
00FE00
00FE00
01FE00
01FC00
1FFC00
3FF800
3FF000
3FF000
3FC000
3F0000
ENDCHAR
STARTCHAR 045F
ENCODING 1119
SWIDTH 585 0
DWIDTH 26 0
BBX 20 30 3 -8
BITMAP
FE07F0
FE07F0
FE07F0
FE07F0
FE07F0
FE07F0
FE07F0
FE07F0
FE07F0
FE07F0
FE07F0
FE07F0
FE07F0
FE07F0
FE07F0
FE07F0
FFFFF0
FFFFF0
FFFFF0
FFFFF0
FFFFF0
FFFFF0
03FC00
03FC00
03FC00
03FC00
03F800
03F800
03F800
03F800
ENDCHAR
STARTCHAR 0462
ENCODING 1122
SWIDTH 630 0
DWIDTH 28 0
BBX 25 31 1 0
BITMAP
07F80000
07F80000
07F80000
07F80000
FFFFFC00
FFFFFC00
FFFFFC00
FFFFFC00
FFFFFC00
FFFFFC00
07F80000
07F80000
07F80000
07F80000
07FFF000
07FFFC00
07FFFE00
07FFFF00
07FFFF80
07F8FF80
07F83F80
07F83F80
07F83F80
07F83F80
07F87F80
07FFFF80
07FFFF00
07FFFF00
07FFFE00
07FFF800
07FFE000
ENDCHAR
STARTCHAR 0463
ENCODING 1123
SWIDTH 607 0
DWIDTH 27 0
BBX 25 28 1 0
BITMAP
07F80000
07F80000
07F80000
FFFFF000
FFFFF000
FFFFF000
FFFFF000
FFFFF000
FFFFF000
07F80000
07F80000
07F80000
07FF0000
07FFF800
07FFFC00
07FFFE00
07FFFF00
07FFFF00
07F87F80
07F87F80
07F87F80
07F87F80
07FFFF00
07FFFF00
07FFFF00
07FFFE00
07FFF800
07FFE000
ENDCHAR
STARTCHAR 0472
ENCODING 1138
SWIDTH 697 0
DWIDTH 31 0
BBX 27 29 2 0
BITMAP
007FC000
01FFF000
07FFFC00
0FFFFE00
1FFFFF00
3FFFFF80
3FF1FF80
7FC07FC0
7F803FC0
7F003FC0
FF001FE0
FFFFFFE0
FFFFFFE0
FFFFFFE0
FFFFFFE0
FFFFFFE0
FFFFFFE0
FF001FE0
FF001FC0
7F003FC0
7F803FC0
7FC07F80
3FF1FF80
3FFFFF00
1FFFFF00
0FFFFE00
07FFFC00
01FFF000
007F8000
ENDCHAR
STARTCHAR 0473
ENCODING 1139
SWIDTH 562 0
DWIDTH 25 0
BBX 22 22 1 0
BITMAP
00FE00
03FF80
0FFFE0
1FFFF0
3FFFF8
3FFFF8
7F83FC
7F01FC
7FFFFC
FFFFFC
FFFFFC
FFFFFC
7FFFFC
7F01FC
7F01FC
7F83FC
3FFFF8
3FFFF0
1FFFF0
0FFFE0
03FF80
00FE00
ENDCHAR
STARTCHAR 0474
ENCODING 1140
SWIDTH 585 0
DWIDTH 26 0
BBX 28 29 0 0
BITMAP
FF0007F0
FF001FF0
FF003FE0
7F003FE0
7F807FE0
7F807FE0
7F80FFE0
3F80FF00
3FC0FE00
3FC0FE00
1FC1FC00
1FC1FC00
1FE1FC00
1FE1FC00
0FE3F800
0FE3F800
0FF3F800
07F3F800
07F3F000
07F7F000
03F7F000
03FFF000
03FFE000
03FFE000
01FFE000
01FFE000
01FFC000
00FFC000
00FFC000
ENDCHAR
STARTCHAR 0475
ENCODING 1141
SWIDTH 562 0
DWIDTH 25 0
BBX 24 22 1 0
BITMAP
FE003F
FF00FF
FF00FF
7F01FF
7F03FF
7F83FF
3F83FE
3F87F0
3F87F0
1F87E0
1FCFE0
1FCFE0
0FCFE0
0FEFC0
0FEFC0
07EFC0
07FF80
07FF80
03FF80
03FF80
03FF00
01FF00
ENDCHAR
STARTCHAR 0490
ENCODING 1168
SWIDTH 540 0
DWIDTH 24 0
BBX 19 37 3 0
BITMAP
0007E0
0007E0
0007E0
0007E0
000FE0
000FE0
000FE0
000FE0
FFFFE0
FFFFE0
FFFFE0
FFFFE0
FFFFE0
FFFFE0
FF0000
FF0000
FF0000
FF0000
FF0000
FF0000
FF0000
FF0000
FF0000
FF0000
FF0000
FF0000
FF0000
FF0000
FF0000
FF0000
FF0000
FF0000
FF0000
FF0000
FF0000
FF0000
FF0000
ENDCHAR
STARTCHAR 0491
ENCODING 1169
SWIDTH 450 0
DWIDTH 20 0
BBX 16 30 3 0
BITMAP
003F
007F
007F
007F
007F
007F
007F
007F
FFFF
FFFF
FFFF
FFFE
FFFE
FFFE
FE00
FE00
FE00
FE00
FE00
FE00
FE00
FE00
FE00
FE00
FE00
FE00
FE00
FE00
FE00
FE00
ENDCHAR
ENDFONT
